<?xml version="1.0" encoding="utf-8"?>
<!-- Generator: Adobe Illustrator 24.0.1, SVG Export Plug-In . SVG Version: 6.00 Build 0)  -->
<svg version="1.1" id="Layer_1" xmlns="http://www.w3.org/2000/svg" xmlns:xlink="http://www.w3.org/1999/xlink" x="0px" y="0px"
	 viewBox="0 0 1388.9 766.6" style="enable-background:new 0 0 1388.9 766.6;" xml:space="preserve">
<title>anatomy_diagram</title>
<path d="M171,298.6c14-6.5,24.3-15.4,30.9-26.5c6.6-11.2,10-23.8,10.1-37.9c-0.1-6.2-0.3-12-0.5-17.5c-0.2-5.5-0.6-11.2-1.2-17
	l-6.4-78.7c-0.4-5.9,0.6-10.8,3-14.5c2.4-3.7,6.4-6.4,12-7.9l4.5-1.5c3.1-0.9,6-2.4,8.4-4.6c1.9-1.9,2.8-4.6,2.8-8.2
	c0.2-3.2-1-6.3-3.1-8.7c-2.1-2.1-5.2-3.2-9.2-3.2h-60.9c-4,0-7,1.1-9.2,3.2c-2.3,2.3-3.5,5.4-3.3,8.7c-0.1,3,0.8,5.9,2.6,8.2
	c1.8,2.1,4.6,3.7,8.6,4.8l4.5,1.5c4.6,1.2,8,3.4,10.2,6.6s3.6,7.8,4,14l5.9,81c0.4,4.7,0.6,9.5,0.9,14.4c0.2,4.8,0.3,10.9,0.2,18.3
	c0.1,9.8-1.8,18.3-5.6,25.5c-3.8,7.1-9.7,12.9-16.9,16.5c-7.4,3.8-16.2,5.7-26.3,5.7c-13.2,0-23.6-4-31.1-12.1
	c-7.5-8.1-11.2-21-11.1-38.9c0.1-4,0.2-8.7,0.2-14.3s0.2-11.7,0.7-18.4l5.5-87c0.3-3.4,1.1-5.9,2.4-7.6c1.4-1.8,3.4-3.1,5.6-3.7
	l7.3-1.6c3.8-1.2,6.7-2.8,8.6-4.7c1.9-1.9,2.8-4.8,2.8-8.5c0.1-3.2-1.1-6.3-3.3-8.5c-2.2-2.1-5.3-3.2-9.2-3.2H12.7
	c-4.2,0-7.4,1.1-9.5,3.2C1,77.7-0.2,80.8,0,84c0,7,3.9,11.4,11.7,13.2l6.1,1.7c3.8,1.1,6.4,2.4,7.7,4s1.8,4.1,1.6,7.4l-5.4,85.1
	c-0.4,5.2-0.8,10.2-1.2,15.1c-0.3,4.9-0.6,9.4-0.9,13.5c-0.3,3.5-0.3,6.9-0.1,10.4c-0.1,15.3,3.5,28.5,10.8,39.6
	c7.3,11.1,18.2,19.6,32.5,25.6c14.4,5.9,32.2,8.9,53.5,8.9C138.8,308.4,157,305.1,171,298.6z M248.8,95.7l4.8,2.3
	c2.5,1.2,4.7,2.9,6.4,5.1c1.4,2,2.8,5.2,4.1,9.6L315.3,268c1.1,3.2,2.1,6,2.9,8.6c0.7,2.1,1.2,4.3,1.2,6.6v8.9c0,3.7,1,6.6,3,8.4
	c1.9,1.8,4.5,2.8,7.2,2.8h59.7c2.8,0.1,5.5-0.9,7.5-2.8c2-1.9,3.1-4.6,3.1-8.1v-8.7c0-3.1,0.4-6.3,1.2-9.3c0.8-3.1,2.1-7.4,4-12.8
	l43.8-138.5c2.6-7.9,5.2-13.7,7.8-17.4c2.6-3.6,6.1-6.4,10.2-8.2l5-2.3c2.3-1.1,4.2-2.7,5.8-4.7c2.9-4.8,2.3-10.8-1.4-15
	c-2.1-2.1-5.4-3.2-9.8-3.2h-51.6c-4.6,0-8,1-10,3.1c-2.1,2.3-3.2,5.3-3,8.4c0,3.1,0.6,5.4,1.9,7c1.7,1.9,3.7,3.4,6,4.5l4.3,2.1
	c5.6,2.2,9,5.2,10.3,9.1c1.3,3.9,1,8.5-0.7,13.8l-39.4,123.2l-40.6-127.3c-1.8-5.3-2.3-9.3-1.6-12.2c0.7-2.9,2.7-5.2,5.4-6.4
	l5.1-2.2c2.5-1.1,4.7-2.7,6.4-4.7c1.4-2,2.1-4.4,2-6.8c0.2-3.1-1-6.2-3.2-8.4c-2.1-2.1-5.6-3.1-10.3-3.1h-91.7
	c-4.7,0-8.2,1-10.4,3.1c-2.3,2.2-3.5,5.3-3.3,8.4C241.7,88.8,244.4,93.5,248.8,95.7z M575.5,265.7c0,3-0.7,5.3-2,6.9
	c-1.7,1.8-3.9,3.2-6.3,4l-6.3,2.6c-5.4,2.5-8.1,6.7-8.1,12.5c-0.1,3.1,1.1,6.2,3.3,8.4c2.2,2.1,5.6,3.1,10.1,3.1h121.3
	c4.2-0.1,8.4,0.4,12.5,1.4c3.5,0.9,6.7,1.8,9.4,2.6c2.7,0.8,5.6,1.2,8.4,1.2c4.9,0,8.5-1.4,11-4.3c2.5-2.9,4.6-7.4,6.3-13.5l14-56.8
	c1-4.3,0.7-7.8-0.7-10.6c-1.5-2.8-4-4.6-7.7-5.5c-3-0.9-6.2-0.7-9.1,0.5c-2.6,1.2-4.8,3.7-6.6,7.6l-11.6,22.4
	c-3.7,8-7.7,14.3-11.8,18.7c-3.6,4.1-8.1,7.3-13.2,9.3c-4.9,1.8-10.2,2.7-15.4,2.6h-11.5c-3.9,0-6.8-1-9-2.9
	c-2.1-1.9-3.2-5.2-3.2-9.8V110c-0.2-2.5,0.6-5,2.2-6.9c1.7-1.8,3.8-3.2,6.1-4l6.4-2.6c5.3-2.4,7.9-6.6,7.9-12.5
	c0-3.7-1.1-6.5-3.3-8.5s-5.5-3-9.9-3h-92.6c-4.5,0-7.9,1-10.1,3s-3.3,4.9-3.3,8.5c0,5.8,2.7,10,8.1,12.5l6.3,2.6
	c2.4,0.7,4.6,2.1,6.3,4c1.4,2,2.1,4.5,2,6.9V265.7z M777.2,124c6.8,5.9,15.9,8.8,27.3,8.8c11.6,0,20.7-2.9,27.4-8.8
	s10.1-13.8,10.1-23.7c0-9.7-3.4-17.5-10.1-23.3c-6.8-5.9-15.9-8.8-27.3-8.8c-11.4,0-20.5,2.9-27.3,8.8c-6.8,5.9-10.2,13.7-10.2,23.3
	C767.1,110.3,770.5,118.1,777.2,124z M765.2,183.8l3.5,1c1.5,0.7,2.7,1.8,3.6,3.1c0.9,1.4,1.4,3.9,1.4,7.4v73.4
	c0.1,3.1-0.2,6.1-0.8,9.1c-0.5,1.8-1.8,3.2-3.5,3.9l-3.1,1.3c-1.9,1.1-3.5,2.7-4.8,4.5c-1.1,1.8-1.7,3.8-1.7,5.9
	c-0.1,2.6,1,5.2,2.9,7c1.9,1.8,4.8,2.7,8.7,2.7h71c3.6,0,6.4-0.9,8.3-2.7c1.9-1.8,3-4.4,2.9-7c0.1-2.1-0.4-4.3-1.6-6.1
	c-1.3-1.7-2.9-3.1-4.9-4.1l-3.3-1.5c-1.4-1.1-2.5-2.5-3.1-4.1c-0.7-1.7-1-4.7-1-9.1V156.8c0.1-3.1-1-6-2.9-8.4
	c-1.9-2.3-4.8-3.5-8.5-3.5c-2.7,0-5.4,0.5-7.9,1.3c-2.8,0.9-6.4,2.2-11.1,3.8l-40.6,14.2c-2.8,1-5.3,2.6-7.4,4.6
	c-2.8,3.2-3.1,7.9-0.7,11.5C761.8,181.8,763.4,183.1,765.2,183.8z M862.4,351.8c-0.1,6.8,2.9,13.2,8.1,17.6
	c5.4,4.8,14.1,8.5,26.2,11c12,2.5,28,3.8,47.9,3.8c33.7,0,59.1-5.3,76.2-15.8c17.2-10.5,25.7-24.2,25.7-41c0-9.4-2.3-17.2-6.8-23.4
	s-11.9-11.2-21.9-14.7c-10-3.5-23.6-6.2-40.8-8.1c-12.1-1.3-21.1-2.5-27.1-3.5c-5.9-1-9.8-2-11.6-3.1c-1.8-1.1-2.7-2.4-2.7-3.8
	c-0.1-1.3,0.4-2.5,1.3-3.4c0.6-0.5,1.2-1,1.9-1.4c3.9,0.3,8,0.4,12.2,0.4c16.8,0,31.4-2.6,43.7-7.8c12.3-5.2,21.9-12.4,28.8-21.8h0
	c6.9-9.3,10.3-20.2,10.3-32.6c0-10.4-3.1-20.5-9-29c-6-8.9-15-16-27-21.4c-2.1-0.9-4.3-1.8-6.5-2.6c1.2-2.2,2.3-4,3.4-5.3
	c2.1-2.7,5.3-4.3,8.8-4.3c2.8-0.1,5.5,0.8,7.7,2.6c2,1.9,3.9,3.9,5.7,6.1c1.9,2.4,4.2,4.5,6.8,6.2c2.6,1.8,6.1,2.7,10.4,2.7
	c6.8,0,12.1-2.4,15.9-7.2c3.8-4.8,5.7-11.2,5.7-19.2c0-8.8-2.5-15.7-7.5-20.5c-5-4.9-11.7-7.3-20.1-7.3c-10.7,0-21,3.8-29.1,10.8
	c-8.6,7.2-15.5,17.9-20.8,32c-7.5-1.4-15.7-2.1-24.5-2.1c-18.2,0-33.7,2.7-46.7,8.1c-13,5.4-22.9,12.8-29.9,22.3
	s-10.4,20.6-10.4,33.3c-0.1,10.5,3.3,20.8,9.7,29.1c6.5,8.6,16,15.4,28.6,20.4c4.9,1.9,10.1,3.4,15.8,4.6
	c-6.4,0.9-11.9,2.2-16.5,3.9c-8.5,3.2-14.5,7.3-18.2,12.4c-3.6,4.8-5.5,10.5-5.5,16.5c-0.1,5.6,1.7,11.1,5.1,15.5
	c3.3,4.2,9,7.7,17.1,10.7c-13.3,1.6-23,4.4-29.1,8.5C866.2,336.1,862.4,343,862.4,351.8z M932.2,182.8c0.3-5.8,1.4-10.3,3.2-13.5
	c1.5-2.9,4.3-5,7.5-5.4c5.4-0.7,10.1,2.7,14.2,10.1c4.1,7.4,7.2,18.4,9.4,33.2c2,13,2.1,22.8,0.5,29.6c-1.7,6.8-5,10.5-9.9,11.3
	c-3.5,0.3-6.8-1.1-9.9-4.2c-3.1-3.1-5.7-8-8-14.6c-2.6-8.2-4.5-16.6-5.7-25.1C932.4,197.1,932,190,932.2,182.8z M912.9,329.9
	c0.3-1.4,0.9-2.7,1.7-3.9c7.1,1.7,15.5,3.1,25.4,4.3c13.4,1.4,23.7,2.9,31,4.5c7.3,1.5,12.3,3.4,15.2,5.5c2.7,1.7,4.3,4.7,4.3,7.9
	c0.1,2.9-1.1,5.7-3.1,7.8c-2.1,2.1-5.7,3.7-10.7,4.8c-5.1,1.1-12.2,1.7-21.4,1.7c-16.4,0-27.7-2.4-33.8-7.2
	c-6-4.5-9.5-11.6-9.2-19.1C912.1,333.9,912.4,331.8,912.9,329.9z M1060.2,93.1l3.3,0.7c1.6,0.7,2.9,1.9,3.9,3.3
	c0.8,1.3,1.2,3.8,1.2,7.4v164.4c0,4.3-0.3,7.3-1,9.1c-0.5,1.6-1.6,3-3.1,3.9l-3.3,1.3c-1.9,1.1-3.6,2.6-4.8,4.4
	c-1,1.8-1.6,3.9-1.5,6c-0.1,2.6,0.9,5.2,2.8,7c1.9,1.8,4.6,2.7,8.2,2.7h70.5c7,0,10.6-3.3,10.6-9.9c0.1-3.8-1.8-7.3-5-9.2l-3.3-1.5
	c-1.6-1-2.7-2.5-3.3-4.3c-0.7-1.9-1-5.1-1-9.7V194l0,0c2.8-2.3,5.9-4.3,9.2-5.7c2.8-1.2,5.8-1.8,8.9-1.9c5,0,8.7,1.6,11,4.8
	s3.8,7.9,4.5,14.2l5.9,63.7c0.4,4.6,0.2,7.8-0.6,9.6c-0.7,1.6-1.8,3-3.2,4.1l-3.6,1.5c-3.3,1.9-5.2,5.5-5.1,9.2
	c0,6.6,3.5,9.9,10.4,9.9h71.8c3.5,0,6.2-0.9,8.1-2.7c1.9-1.8,2.9-4.4,2.8-7c0.1-2.1-0.4-4.2-1.5-6c-1.2-1.8-2.8-3.3-4.6-4.4
	l-3.5-1.5c-1.4-1-2.4-2.4-2.9-4c-0.7-3-1.2-6-1.4-9.1l-7.6-77.4c-1.3-14.3-5.5-25.5-12.4-33.7c-6.9-8.1-16.9-12.2-29.9-12.2
	c-8.7,0-18.2,2.8-28.3,8.5c-8.1,4.5-17.5,11.5-28.1,21V65.7c0.1-3-0.9-5.9-2.7-8.2c-1.9-2.2-4.6-3.3-8.2-3.3c-2.8,0-5.5,0.4-8.2,1.1
	c-3.8,1.1-7.5,2.4-11.1,3.9l-40.4,14.2c-3.6,1.3-6.2,2.8-7.6,4.5c-1.5,1.8-2.2,4.2-2.1,6.5c-0.1,1.9,0.5,3.7,1.6,5.2
	C1056.7,91.1,1058.3,92.3,1060.2,93.1z M1362.1,172.8c8.5,0,14.6-1.4,18.3-4.1c3.6-2.4,5.7-6.4,5.6-10.7c0.1-2.4-0.8-4.8-2.6-6.4
	c-1.7-1.5-4.3-2.2-7.6-2.2h-35.3v-30c0-4.1-1.1-7.2-3.2-9.2c-2.1-2.1-4.9-3.2-7.8-3.1c-3.1,0.1-6.2,1-8.8,2.7
	c-3.3,2.1-6.3,4.7-8.7,7.8l-25.4,24.4c-1.7,2.2-3.6,4.2-5.8,5.9c-1.5,1-3.2,1.6-5,1.6h-7.8c-3-0.1-6,0.9-8.2,2.9
	c-2.1,1.9-3.2,4.7-3.1,7.5c-0.1,2.1,0.4,4.1,1.5,5.9c1.2,1.8,3,3.2,5,4l5.4,1.8c1.9,0.9,3.6,2.3,4.9,3.9c1,1.4,1.6,3.7,1.6,6.9V256
	c0,17.6,4.6,30.5,13.8,38.9c9.2,8.3,22.6,12.5,40.2,12.5c10.9,0,20.5-2.1,29-6.3c8.1-3.9,15-9.8,20.1-17.2
	c4.9-7.3,7.6-15.8,7.8-24.6c0.1-3.1-0.4-5.3-1.6-6.5c-1.1-1.2-2.6-1.9-4.2-1.9c-2,1.1-3.7,2.5-5.2,4.2c-1.6,1.8-3.2,3.7-4.9,5.7
	c-1.7,2-3.7,3.7-5.9,5.2c-2.2,1.5-4.9,2.3-7.6,2.2c-5.5,0-9.6-2-12.1-6c-2.6-4-3.9-9.9-3.9-17.7v-71.5H1362.1z M302,477.2
	c-13.7-5.9-30.5-8.9-50.5-8.9H151c-4.6,0-8.2,1.2-10.7,3.6c-2.5,2.5-3.9,5.9-3.8,9.4c-0.2,2.2,0.5,4.3,1.9,6
	c1.6,1.7,3.4,3.1,5.4,4.4l6.8,2.2c2.6,1.2,4.1,2.8,4.5,4.9s0,5.2-0.8,9.5c-0.8,2.6-2,7.1-3.6,13.3c-1.6,6.2-3.6,13.6-5.8,22.1
	s-4.6,17.6-7.2,27.2c-2.6,9.6-5.1,19.1-7.7,28.7c-2.5,9.6-5,18.6-7.3,27.1c-2.3,8.5-4.3,15.9-6,21.9c-1.7,6.1-2.9,10.5-3.5,13.1
	c-0.6,2.6-1.6,5.1-3.1,7.3c-1.4,1.7-3.2,3-5.3,3.7l-7.6,2.5c-2.4,1.1-4.5,2.8-6.1,4.9c-1.8,2.3-2.7,5.1-2.6,8
	c-0.2,2.9,0.6,5.7,2.4,8c1.7,2.1,4.9,3.2,9.6,3.2h86.5c4.8,0,8.4-1.2,10.7-3.5c2.3-2.5,3.6-5.8,3.5-9.2c0.1-2.5-0.6-4.9-2.1-6.8
	c-1.6-1.9-3.4-3.5-5.5-4.7l-6.3-2.3c-1.5-0.8-2.8-1.9-3.9-3.2c-0.8-1.2-0.8-3.8,0.1-8c0.8-3.2,1.9-8,3.4-14.3
	c1.5-6.3,3.4-13.7,5.6-22.1c1-3.8,2-7.6,3.1-11.6c5.5,1.1,11.8,1.7,18.8,1.9l14.2,61.4c1.3,5.6,3.7,10.9,6.9,15.7
	c2.9,4,6.9,7.1,11.5,8.9c5.4,2,11.2,2.9,16.9,2.8c13.8,0.1,27.3-3.9,38.8-11.5c11.7-7.6,20.7-18.7,25.8-31.8c1.4-3.7,1.9-7,1.3-9.7
	c-0.3-2.5-2-4.6-4.3-5.5c-1.6-0.5-3.4-0.5-5,0c-1.6,0.5-3,1.3-4.2,2.5c-2.1,2.1-4.4,3.9-6.9,5.4c-2,1.3-4.4,2-6.8,2
	c-2,0-3.9-0.7-5.4-1.9c-1.8-1.4-3.2-3.1-4.2-5.1c-1.2-2.4-2.2-4.9-2.9-7.5L280,605.7c16.1-6.1,29.1-14.5,39.1-25.3
	c9.9-10.5,16.3-23.9,18.2-38.3c2.6-15.3,0.8-28.4-5.4-39.4C325.6,491.6,315.7,483.2,302,477.2z M268.9,534.5
	c-1.4,11.8-4.3,22.1-8.8,30.9c-4.4,8.9-10.2,15.7-17.4,20.6c-7.4,4.9-16.1,7.5-25,7.3c-5.6,0.1-11.1-0.5-16.6-1.6
	c1.9-7.2,3.8-14.4,5.9-21.6c2.6-9.4,5.1-18.2,7.3-26.5c2.2-8.3,4.1-15.5,5.7-21.7s2.8-10.5,3.7-13c1.3-4.9,3.7-9.4,6.9-13.2
	c3-3.3,7.7-5,14.2-5c5.1-0.1,10,1.6,14.1,4.6c4.1,3.1,7.1,7.7,9.1,14.1C269.9,515.8,270.2,524.1,268.9,534.5z M523.4,554.6
	c-4.6-3.5-11.8-6.3-21.5-8.4s-22.2-3.1-37.4-3.1c-14.2-0.2-28.3,1.9-41.8,6.2c-12,3.8-23.2,9.5-33.3,17c-9.4,7-17.7,15.3-24.7,24.7
	c-6.7,8.9-12,18.8-15.8,29.2c-3.6,9.8-6,20.1-6.9,30.5c-1.3,17.6,1.9,30.8,9.5,39.5c7.6,8.7,18.1,13.1,31.4,13.1
	c9.3,0.2,18.5-1.6,27.1-5.2c8.3-3.7,15.6-9.1,21.5-16c3.3-3.9,6.4-8,9.1-12.4c-0.1,2.2-0.2,4.4-0.2,6.3c0,8.5,2.1,15.2,6.4,20
	c4.2,4.8,10.8,7.3,19.7,7.3c11.9,0.2,23.7-3.1,33.8-9.4c9.7-5.9,17.2-14.7,21.5-25.2c1.8-5.1,2.6-8.9,2.1-11.5
	c-0.4-2.6-1.6-4.2-3.6-4.9c-1-0.5-2.2-0.7-3.4-0.4c-1.5,0.5-2.8,1.2-4,2.2c-1.5,1.6-3.2,3-5,4.3c-1.4,0.9-2.9,1.3-4.5,1.3
	c-2.3,0-3.9-1.5-4.6-4.5c-0.8-3-0.2-7.9,1.7-14.8l13.8-52c1.1-3.8,2.8-6.7,5.1-8.5c2.3-1.8,4.5-3.6,6.5-5.3c2-1.7,3.3-4.4,3.9-8.2
	C530.1,562,528,558.1,523.4,554.6z M455.5,588.2c-1.4,8.4-3.2,16.8-5.5,25c-2.1,7.5-4.7,14.8-7.8,21.9c-2.6,6-5.6,11.7-9.1,17.2
	c-2.6,4.2-5.7,8-9.4,11.3c-3.1,2.7-6.1,4-9,4c-2.3,0-4.2-1.4-5.8-4.2c-1.5-2.8-2-7.7-1.3-14.8c0.6-7.3,1.8-14.5,3.6-21.6
	c1.9-7.3,4.2-14.6,6.9-21.6c2.5-6.6,5.6-12.9,9.2-19c2.9-5,6.5-9.5,10.6-13.5c3.7-3.3,7.4-5,11-5c3.3,0,5.5,1.8,6.5,5.4
	C456.6,576.8,456.6,581.8,455.5,588.2z M660.6,559.3c-2.9-1.6-7.1-2.4-12.6-2.4l-12.7-0.1c-0.2-2.5-0.8-5-1.7-7.4
	c-2.2-5.8-5-11.4-8.3-16.7c-3.4-5.4-6.3-10.5-8.9-15.2s-3.4-9.1-2.6-13.2c0.4-2.2,1.5-4.2,3-5.8c1.7-1.5,3.9-2.3,6.2-2.1
	c3.5,0.1,6.8,1.3,9.6,3.4c3.3,2.3,6.7,4.9,10.3,7.8c3.6,3,7.5,5.6,11.6,7.8c4.2,2.2,8.8,3.3,13.5,3.3c8,0,14.5-2.5,19.3-7.5
	c4.8-5,7.3-11.8,7.3-20.4c0-8.8-3.4-16.4-10.3-22.7c-6.9-6.3-16.9-9.5-30.1-9.5c-13.9,0-25.6,2.9-35.2,8.6
	c-9.6,5.7-17.6,14-23.8,24.9c-6.3,10.9-11.2,24.1-14.8,39.8l-6,24.6h-13.6c-4.8,0-8.6,1.1-11.2,3.4c-2.6,2.1-4,5.2-4,8.5
	c0,2.7,0.9,5.4,2.6,7.5c1.7,2.2,4.6,4.6,8.8,7.3c4.4,2.1,7.2,4.9,8.3,8.3s0.7,8.8-1.4,16.1l-32.8,116.2c-3.7,13.7-4.2,24.3-1.2,31.8
	c2.9,7.4,9.8,11.1,20.5,11.1c10.3,0.1,20.5-1.5,30.3-4.7c9.5-3.2,17.3-7.2,23.4-12c6.1-4.8,9.2-10,9.2-15.5c0.1-3.3-1.2-6.4-3.5-8.7
	l-7.3-7c-2.6-2.5-3.9-6-3.8-9.6c0-2,0.2-4,0.5-5.9c0.4-3,1-6,1.8-8.9l28-105.3l10.8,0c4.4,0,8.7-0.9,12.7-2.7
	c3.7-1.7,6.9-4.3,9.3-7.5c2.3-3,3.6-6.7,3.5-10.6C665,563.9,663.6,560.9,660.6,559.3z M783.5,552h-24.3l2.9-10.2
	c1.1-3.8,2-7.6,2.7-11.5c0.4-2.6,0.7-5.3,0.7-8c0.1-2.9-0.9-5.6-2.8-7.8c-1.9-2-4.7-3-8.6-3c-3.1-0.1-6.2,0.6-8.9,2.1
	c-2.7,1.5-5.1,3.4-7.1,5.7l-26.2,21.6c-3.6,3.8-6.9,6.5-9.8,7.8c-3.4,1.5-7,2.2-10.6,2.1h-6.9c-4.8,0-8.6,1.1-11.4,3.2
	c-2.8,2.2-4.3,5.5-4.1,9c0,2.3,0.6,4.5,1.7,6.4c1.4,2.2,3.3,3.9,5.5,5.1l6.1,2.8c3.3,1.8,5.1,4.3,5.4,7.4s-0.6,7.7-2.7,14L671.8,644
	c-4.5,13.6-6.4,24.8-5.6,33.6c0.8,8.7,4.1,15.2,9.9,19.5c5.8,4.2,13.8,6.3,23.9,6.3c18.1,0.2,35.9-5.3,50.7-15.6
	c6.1-4.1,11.4-9.3,15.8-15.2c3.9-5.4,6.2-10.7,6.8-15.8c0.4-2.8,0-4.9-1.2-6.4c-1.2-1.5-3.1-2.4-5-2.3c-1.5-0.1-2.9,0.2-4.2,0.9
	c-1.9,1.2-3.7,2.6-5.2,4.2c-2.5,3-5.5,5.5-8.8,7.6c-2.5,1.5-5.4,2.3-8.3,2.3c-4.3,0-7.1-1.7-8.4-5s-0.7-9.7,2-19l17.3-60.6h19
	c6.5,0,11.7-1.6,15.7-4.7c4-3.1,5.9-7.5,5.9-13C792.3,555,789.3,552,783.5,552z M951.4,594.5c-1.4-0.9-2.5-2.2-3.2-3.7
	c-1-2-1.7-4.2-2.1-6.3c-1-7.6-3.6-14.9-7.6-21.5c-4.1-6.5-10-11.7-17-15c-7.4-3.6-16.7-5.5-27.9-5.5c-13.6-0.2-27.1,2.3-39.8,7.2
	c-11.7,4.6-22.5,11.4-31.7,20c-9,8.5-16.3,18.6-21.4,29.9c-5.3,11.6-8.6,24-9.7,36.7c-0.9,13.5,0.8,25.4,5.1,35.5
	c4.3,10.1,11.9,18.4,21.6,23.4c10.1,5.5,23,8.2,38.6,8.2c17.9,0,33.2-2.7,46-8.1c12.8-5.4,23-12.4,30.7-21
	c7.7-8.6,12.5-17.9,14.3-27.8c0.6-2.9,0.3-5.9-1-8.5c-1.2-2.2-3.4-3.6-5.9-3.7c-2.5-0.3-5.1,0.3-7.2,1.7c-3.1,2.2-5.8,4.7-8.2,7.6
	c-3.3,4.3-7.2,8.2-11.6,11.5c-4,3-8.4,5.4-13,7.2c-4.7,1.8-9.7,2.7-14.7,2.6c-10.4,0-18.1-3.7-23-11.1c-2.9-4.4-4.7-10-5.5-16.7
	c4.6-1.2,9.5-2.4,14.6-3.8c8.8-2.3,17.7-4.6,26.6-7c8.9-2.4,17.2-4.6,24.9-6.7s14-3.7,18.8-4.8c5.3-1.4,8.9-3.3,10.8-5.6
	c1.8-2.1,2.9-4.8,3-7.6c-0.1-1.6-0.5-3.1-1.3-4.5C954,595.9,952.8,594.9,951.4,594.5z M892.3,601.4c-0.4,3-1.1,5.9-1.9,8.8
	c-3.5,1.1-7.5,2.2-12.1,3.5c-6.2,1.8-12.5,3.5-18.9,5.3c-0.6,0.2-1.2,0.3-1.8,0.5c0.8-6.9,2-13.8,3.6-20.5c1.4-6,3.4-11.9,6-17.5
	c1.9-4.1,4.4-7.9,7.6-11.1c2.8-2.7,5.7-4,8.8-4c3.2-0.1,6.2,1.6,7.8,4.4c1.8,2.9,2.6,6.9,2.5,12
	C893.7,588.9,893.2,595.2,892.3,601.4z M1126.7,553.4c-5.3-6.6-12.7-9.9-22.1-9.9c-7.3,0.1-14.4,1.9-20.8,5.3
	c-6.8,3.5-13.3,8.9-19.5,16c-3.4,3.9-6.7,8.5-9.8,13.7c1.2-4.7,1.9-9.5,2-14.3c0-6.4-2-11.5-6.2-15.3s-10.2-5.7-18.2-5.7
	c-17.5,0-34.5,6.4-47.5,18.2c-6,5.4-10.9,11.9-14.5,19.2c-2.3,4.2-3,7.6-2,10.2c0.7,2.4,2.7,4.2,5.1,4.6c1.4,0.2,2.8,0.1,4.1-0.5
	c1.4-0.6,2.8-1.3,4-2.2c1.7-1.7,3.6-3.2,5.6-4.5c1.4-0.8,3-1.2,4.6-1.2c2.7,0,4.3,1.6,4.7,4.6s-0.8,8.1-3.7,15l-20,54.1
	c-3.4,8.4-5.2,15.8-5.4,22.2c-0.2,6.4,1.7,11.4,5.7,15c4,3.6,10.3,5.4,19,5.4c11.9,0,22.1-1.2,30.8-3.5c8.6-2.3,15.3-5.4,20-9.3
	c4.7-3.9,7.1-8.1,7.1-12.5c0-2.3-0.7-4.6-2.1-6.4c-1.3-1.9-2.7-3.9-4-6.1c-1.4-2.5-2.1-5.4-2-8.2c0.1-5.1,0.6-10.2,1.6-15.2
	c1.4-6.8,3.1-13.5,5.4-20.1c2.4-7.1,5.1-14.2,8.2-21c2.5-5.3,5.1-9.2,7.7-11.5s5-3.5,7.3-3.5c1.4-0.1,2.7,0.5,3.6,1.6
	c0.9,1.2,1.4,2.7,1.3,4.2c0,3.1-0.5,6.2-1.4,9.2c-0.9,2.9-1.4,5.9-1.4,9c0,4.1,1.7,8,4.6,10.8c3.1,3.1,8.3,4.7,15.5,4.7
	c6.7-0.1,13.2-2.1,18.7-5.8c6.1-4,11.2-9.5,14.6-16c3.7-6.8,5.8-14.8,6.3-24.1C1134.4,568.7,1132,560,1126.7,553.4z M1264.6,547.7
	c-8.9-3.4-20.1-5.1-33.5-5.1c-17.4,0-32,2.4-43.9,7.3c-11.9,4.9-21,11.4-27.4,19.4c-6.2,7.6-9.7,17.1-9.9,26.9
	c-0.2,6.4,1,12.8,3.6,18.6c2.8,5.8,6.9,10.9,12,14.9c6.5,5.2,13.6,9.8,21,13.6c5.7,2.9,11.2,6.1,16.4,9.7c3.8,2.7,6.4,5.3,7.8,7.8
	c1.4,2.5,2.1,5.3,2,8.2c0.1,3.4-1.1,6.7-3.3,9.3c-2.3,2.5-5.5,3.9-8.9,3.7c-4.8,0.1-9.5-1.3-13.4-4.1c-3.7-2.7-7.5-7.8-11.4-15.3
	c-3.6-7.7-7.5-13.6-11.6-17.6c-4-4-9.5-6.2-15.2-6c-5.7,0-10.2,2.1-13.3,6.3c-3.1,4.2-4.8,9.8-5,16.8c-0.1,7.5,2.2,14.8,6.6,20.9
	c4.4,6.2,11.4,11.2,20.9,14.8s21.8,5.5,36.9,5.5c15.7,0,29.5-2,41.2-6.1s21-9.8,27.6-17.2c6.5-7,10.4-16,11-25.6
	c0.5-5.9-0.2-11.9-2.1-17.5c-1.8-5.3-5.4-10.5-10.7-15.5c-5.3-5.1-12.9-10.4-22.5-16.2c-5.9-3.4-11.7-7.2-17.1-11.4
	c-4.1-3.3-7-6.4-8.6-9.3c-1.5-2.6-2.3-5.5-2.4-8.5c0-4.1,1.1-7.2,3.2-9.4c2.3-2.3,5.4-3.5,8.7-3.3c5.1,0,10.1,1.8,14,5.1
	c4.1,3.4,7.9,8.6,11.4,15.5c4,8.5,7.9,14.3,11.7,17.6c3.8,3.2,8.6,5,13.5,4.9c5,0.2,9.7-2.2,12.6-6.2c3.1-4.2,4.7-10.2,4.5-18.2
	c0.1-7.4-2.2-14.6-6.7-20.5C1280.2,555.7,1273.5,551.1,1264.6,547.7z"/>
<circle cx="378.9" cy="295" r="37.8"/>
<circle cx="1187.6" cy="235.8" r="37.8"/>
<circle cx="567" cy="295" r="37.8"/>
<circle cx="692.5" cy="471.5" r="37.8"/>
<circle cx="193.2" cy="170.2" r="37.8"/>
<line x1="349.2" y1="318.5" x2="244.1" y2="378.6"/>
<line x1="317.8" y1="33.9" x2="222.1" y2="145.7"/>
<line x1="782.3" y1="33.6" x2="597.1" y2="270.9"/>
<line x1="1204.1" y1="269.9" x2="1293.9" y2="397.9"/>
<line x1="730.3" y1="471.5" x2="871.2" y2="461.9"/>
<circle cx="508.5" cy="563.6" r="37.8"/>
<line x1="494.1" y1="528.6" x2="446.5" y2="427.7"/>
<path d="M38.9,401.9l-0.5-0.2c-0.2-0.1-0.4-0.2-0.5-0.4c-0.1-0.2-0.2-0.5-0.2-0.8v-7.3c0.1-1.2-0.4-2.3-1.2-3.2
	c-0.8-0.8-1.9-1.3-3.1-1.2c-0.9,0-1.9,0.3-2.7,0.7c-0.9,0.5-1.8,1.2-2.6,1.9v-1.6c0-0.2-0.1-0.4-0.2-0.6c-0.2-0.2-0.4-0.3-0.6-0.2
	c-0.2,0-0.4,0-0.6,0.1c-0.2,0.1-0.5,0.2-0.8,0.3l-2.3,0.8c-0.2,0.1-0.4,0.2-0.6,0.3c-0.1,0.1-0.2,0.3-0.2,0.5c0,0.2,0.1,0.3,0.2,0.4
	c0.1,0.1,0.3,0.2,0.4,0.3h0.9c0.2,0,0.3,0.1,0.5,0.3c0.1,0.2,0.2,0.5,0.1,0.7v7.8c0,0.3,0,0.5-0.2,0.8c-0.1,0.2-0.3,0.3-0.5,0.4
	l-0.5,0.2c-0.2,0.1-0.3,0.2-0.5,0.3c-0.1,0.1-0.2,0.3-0.2,0.5c0,0.2,0.1,0.4,0.2,0.5c0.2,0.1,0.4,0.2,0.6,0.2h5.2
	c0.5,0,0.8-0.2,0.8-0.7c0-0.3-0.2-0.6-0.6-0.7l-0.5-0.2c-0.2-0.1-0.4-0.2-0.5-0.4c-0.1-0.3-0.2-0.5-0.2-0.8v-7.5l0.2-0.2
	c0.6-0.5,1.2-1,1.9-1.3c0.5-0.3,1.1-0.4,1.7-0.4c0.7,0,1.4,0.2,1.9,0.7c0.5,0.6,0.8,1.4,0.7,2.2v6.5c0,0.3,0,0.6-0.2,0.8
	c-0.1,0.2-0.3,0.3-0.5,0.4l-0.6,0.2c-0.4,0.2-0.6,0.4-0.6,0.7c0,0.5,0.3,0.7,0.8,0.7h5.2c0.2,0,0.5-0.1,0.6-0.2
	c0.1-0.1,0.2-0.3,0.2-0.5c0-0.2,0-0.3-0.2-0.5C39.2,402.1,39.1,402,38.9,401.9z M56.9,401.9l-0.5-0.2c-0.2-0.1-0.4-0.2-0.5-0.4
	c-0.1-0.2-0.2-0.5-0.2-0.8v-10.6c0-0.2-0.1-0.5-0.2-0.7c-0.2-0.2-0.4-0.3-0.6-0.2c-0.2,0-0.4,0-0.7,0.1c-0.2,0.1-0.5,0.2-0.8,0.3
	l-2.2,0.8c-0.2,0.1-0.4,0.2-0.6,0.3c-0.1,0.1-0.2,0.3-0.2,0.5c0,0.2,0,0.3,0.2,0.4c0.1,0.1,0.3,0.2,0.4,0.2l1,0
	c0.2,0,0.3,0.1,0.5,0.3c0.1,0.2,0.2,0.5,0.2,0.7v6.8l-0.3,0.2c-0.6,0.5-1.2,0.9-1.8,1.3c-0.5,0.3-1.1,0.4-1.6,0.4
	c-0.7,0-1.3-0.2-1.8-0.7c-0.5-0.6-0.7-1.4-0.7-2.1v-8.6c0-0.2-0.1-0.5-0.2-0.7c-0.2-0.2-0.4-0.3-0.6-0.2c-0.2,0-0.4,0-0.7,0.1
	c-0.2,0.1-0.5,0.2-0.8,0.3l-2.3,0.8c-0.2,0.1-0.4,0.2-0.6,0.3c-0.1,0.1-0.2,0.3-0.2,0.5c0,0.2,0,0.3,0.2,0.4
	c0.1,0.1,0.3,0.2,0.4,0.2l0.9,0c0.2,0,0.3,0.1,0.5,0.3c0.1,0.2,0.2,0.5,0.1,0.7v6.6c-0.1,1.2,0.4,2.3,1.2,3.2c0.8,0.8,1.9,1.2,3,1.2
	c0.9,0,1.8-0.3,2.6-0.8c1-0.6,1.8-1.2,2.7-2l0.1,0.6c-0.1,0.5,0.1,0.9,0.4,1.3c0.3,0.3,0.8,0.5,1.2,0.4h2.4c0.2,0,0.5-0.1,0.6-0.2
	c0.2-0.1,0.2-0.3,0.2-0.5c0-0.2-0.1-0.3-0.2-0.5C57.3,402.1,57.1,402,56.9,401.9z M72.3,390c-1-0.6-2.1-0.9-3.2-0.9
	c-1.2,0-2.4,0.3-3.4,1c-0.5,0.3-0.9,0.7-1.4,1.1v-9c0-0.2-0.1-0.4-0.2-0.6c-0.2-0.2-0.4-0.3-0.6-0.2c-0.2,0-0.4,0-0.7,0.1
	c-0.2,0.1-0.5,0.2-0.8,0.3l-2.3,0.8c-0.2,0.1-0.4,0.2-0.6,0.3c-0.1,0.1-0.2,0.3-0.2,0.5c0,0.2,0.1,0.3,0.2,0.4
	c0.1,0.1,0.3,0.2,0.4,0.2h0.9c0.2,0,0.3,0.1,0.5,0.3c0.1,0.2,0.2,0.5,0.2,0.7v17.9c0,0.2,0.1,0.4,0.2,0.6c0.1,0.1,0.3,0.2,0.5,0.2
	c0.2,0,0.5-0.1,0.7-0.2c0.2-0.1,0.4-0.2,0.7-0.3l0.9-1c0.3,0.3,0.6,0.5,0.9,0.7c1,0.6,2.1,1,3.3,0.9c2.5,0,4.9-1.4,6.1-3.6
	c0.6-1.2,1-2.6,0.9-4c0-1.3-0.2-2.5-0.8-3.7C74,391.5,73.3,390.6,72.3,390z M71.4,399.4c-0.3,0.8-0.8,1.4-1.5,1.9
	c-0.6,0.4-1.4,0.7-2.1,0.7c-0.8,0-1.7-0.3-2.4-0.8c-0.4-0.3-0.8-0.6-1.1-1v-7.5c0.3-0.4,0.7-0.7,1-1c0.7-0.5,1.5-0.7,2.4-0.7
	c0.8,0,1.5,0.2,2.1,0.6c0.7,0.5,1.2,1.1,1.5,1.8c0.4,0.9,0.6,1.9,0.5,2.9C72,397.5,71.8,398.5,71.4,399.4z M90.2,390
	c-1-0.6-2.1-0.9-3.2-0.9c-1.2,0-2.4,0.3-3.4,1c-0.5,0.3-0.9,0.7-1.3,1.1v-9c0-0.2-0.1-0.4-0.2-0.6c-0.2-0.2-0.4-0.3-0.6-0.2
	c-0.2,0-0.4,0-0.7,0.1c-0.2,0.1-0.5,0.2-0.8,0.3l-2.3,0.8c-0.2,0.1-0.4,0.2-0.6,0.3c-0.1,0.1-0.2,0.3-0.2,0.5c0,0.2,0.1,0.3,0.2,0.4
	c0.1,0.1,0.3,0.2,0.4,0.2h0.9c0.2,0,0.3,0.1,0.5,0.3c0.1,0.2,0.2,0.5,0.2,0.7v17.8c0,0.2,0,0.4,0.2,0.6c0.1,0.1,0.3,0.2,0.5,0.2
	c0.2,0,0.5,0,0.7-0.2c0.2-0.1,0.5-0.2,0.7-0.3l0.9-1c0.3,0.3,0.6,0.5,0.9,0.7c1,0.6,2.1,1,3.2,0.9c1.3,0,2.5-0.3,3.6-0.9
	c1.1-0.6,2-1.6,2.5-2.7c0.7-1.2,1-2.6,1-4c0-1.3-0.3-2.5-0.8-3.7C91.9,391.5,91.2,390.6,90.2,390z M81.4,393.9
	C81.4,393.9,81.4,393.9,81.4,393.9L81.4,393.9L81.4,393.9z M89.3,399.4c-0.3,0.8-0.8,1.4-1.5,1.9c-0.6,0.4-1.4,0.7-2.1,0.7
	c-0.8,0-1.7-0.3-2.4-0.8c-0.4-0.3-0.7-0.6-1-0.9v-7.6c0.3-0.3,0.6-0.6,1-0.9c0.7-0.5,1.5-0.7,2.4-0.7c0.8,0,1.5,0.2,2.1,0.6
	c0.7,0.5,1.2,1.1,1.5,1.8c0.4,0.9,0.6,1.9,0.5,2.9C89.8,397.5,89.7,398.5,89.3,399.4z M110.3,389.3H106c-0.2,0-0.4,0.1-0.6,0.2
	c-0.2,0.1-0.2,0.3-0.2,0.5c0,0.2,0.1,0.4,0.2,0.5c0.1,0.1,0.3,0.2,0.5,0.3l0.7,0.2c0.3,0,0.6,0.3,0.7,0.5c0.1,0.4,0,0.8-0.2,1.2
	l-3.3,8.2l-3.3-8.1c-0.2-0.4-0.3-0.8-0.3-1.2c0-0.3,0.2-0.5,0.6-0.5l0.6-0.2c0.2-0.1,0.4-0.2,0.5-0.3c0.1-0.1,0.2-0.3,0.2-0.5
	c0-0.2-0.1-0.4-0.2-0.5c-0.2-0.1-0.4-0.2-0.6-0.2h-5.8c-0.2,0-0.5,0-0.6,0.2c-0.2,0.1-0.2,0.3-0.2,0.5c0,0.2,0.1,0.3,0.2,0.4
	c0.1,0.1,0.3,0.3,0.5,0.3c0.3,0.1,0.7,0.2,1,0.4c0.3,0.2,0.5,0.5,0.7,0.9l5.3,12.2l-0.5,1.2l0,0c-0.2,0.6-0.5,1.2-0.9,1.7
	c-0.2,0.4-0.5,0.7-0.8,0.9c-0.2,0.2-0.5,0.3-0.8,0.3c-0.2,0-0.5-0.1-0.7-0.2c-0.2-0.2-0.3-0.5-0.4-0.8l-0.1-0.5
	c-0.1-0.4-0.3-0.8-0.5-1.1c-0.3-0.3-0.6-0.4-1-0.4c-0.4,0-0.8,0.2-1,0.5c-0.3,0.4-0.4,0.8-0.4,1.3c0,0.8,0.3,1.6,0.9,2.2
	c0.7,0.6,1.6,1,2.6,0.9c0.7,0,1.3-0.2,1.9-0.5c0.6-0.4,1.2-1,1.6-1.6c0.6-1,1.1-2,1.6-3.1l5.2-12.7c0.1-0.4,0.4-0.8,0.7-1.1
	c0.3-0.2,0.6-0.4,1-0.5c0.2-0.1,0.4-0.2,0.5-0.4c0.1-0.1,0.1-0.3,0.1-0.4c0-0.2-0.1-0.4-0.2-0.5
	C110.7,389.4,110.5,389.3,110.3,389.3z M131.7,390c-1-0.6-2.1-0.9-3.2-0.9c-1.2,0-2.4,0.3-3.4,1c-0.5,0.3-0.9,0.7-1.3,1.1v-9
	c0-0.2-0.1-0.4-0.2-0.6c-0.2-0.2-0.4-0.3-0.6-0.2c-0.2,0-0.4,0-0.6,0.1c-0.2,0.1-0.5,0.2-0.8,0.3l-2.3,0.8c-0.2,0.1-0.4,0.2-0.6,0.3
	c-0.1,0.1-0.2,0.3-0.2,0.5c0,0.2,0.1,0.3,0.2,0.4c0.1,0.1,0.3,0.2,0.4,0.2h0.9c0.2,0,0.3,0.1,0.5,0.3c0.1,0.2,0.2,0.5,0.2,0.7v17.9
	c0,0.2,0,0.4,0.2,0.6c0.1,0.1,0.3,0.2,0.5,0.2c0.2,0,0.5,0,0.7-0.2c0.2-0.1,0.5-0.2,0.7-0.3l0.9-1c0.3,0.3,0.6,0.5,0.9,0.7
	c1,0.6,2.1,1,3.2,0.9c1.3,0,2.5-0.3,3.6-0.9c1.1-0.6,2-1.6,2.5-2.7c0.6-1.2,1-2.6,1-4c0-1.3-0.3-2.5-0.8-3.7
	C133.4,391.5,132.6,390.6,131.7,390z M130.8,399.5c-0.3,0.8-0.8,1.4-1.5,1.9c-0.6,0.4-1.4,0.6-2.1,0.6c-0.8,0-1.7-0.3-2.4-0.8
	c-0.4-0.3-0.8-0.6-1.1-1v-7.5c0.3-0.3,0.6-0.7,1-0.9c0.7-0.5,1.5-0.7,2.4-0.7c0.8,0,1.5,0.2,2.2,0.6c0.7,0.5,1.2,1.1,1.5,1.8
	c0.4,0.9,0.6,1.9,0.5,2.9C131.3,397.5,131.1,398.5,130.8,399.5z M148.6,390c-1.2-0.6-2.5-1-3.9-0.9c-1.4,0-2.7,0.3-3.9,0.9
	c-1.1,0.6-2,1.5-2.7,2.6c-0.7,1.1-1,2.4-1,3.8c0,1.4,0.3,2.7,1,3.9c0.6,1.1,1.5,2,2.6,2.6c2.5,1.3,5.4,1.3,7.8,0
	c1.1-0.6,2-1.5,2.7-2.6c0.7-1.1,1-2.5,1-3.8c0-1.3-0.3-2.7-1-3.8C150.6,391.5,149.7,390.6,148.6,390z M148.8,398.7
	c-0.1,0.8-0.5,1.6-1,2.2c-0.5,0.6-1.2,0.9-1.9,1.1c-0.8,0.1-1.5,0-2.2-0.3c-0.8-0.4-1.4-0.9-1.9-1.6c-0.6-0.9-1-1.9-1.2-2.9
	c-0.2-1-0.3-2-0.1-3c0.1-0.8,0.5-1.6,1-2.2c0.5-0.6,1.2-0.9,1.9-1.1c0.8-0.2,1.6-0.1,2.3,0.3c0.7,0.4,1.4,0.9,1.8,1.7
	c0.6,0.9,1,1.9,1.2,2.9C149,396.7,149,397.7,148.8,398.7z M161.9,391.1c0.4,0,0.9-0.1,1.3-0.3c0.2-0.2,0.4-0.4,0.4-0.7
	c0-0.2-0.1-0.4-0.2-0.5c-0.2-0.1-0.4-0.2-0.6-0.2h-3.3v-2.6c0-0.2-0.1-0.5-0.2-0.7c-0.2-0.2-0.4-0.2-0.6-0.2c-0.2,0-0.4,0.1-0.6,0.2
	c-0.2,0.2-0.4,0.4-0.5,0.6l-0.7,1.8c-0.1,0.3-0.3,0.5-0.5,0.7c-0.2,0.1-0.4,0.2-0.7,0.2h-0.7c-0.2,0-0.4,0.1-0.6,0.2
	c-0.1,0.1-0.2,0.3-0.2,0.5c0,0.2,0.1,0.3,0.2,0.5c0.1,0.1,0.3,0.3,0.4,0.3l0.7,0.1c0.3,0,0.5,0.2,0.7,0.4c0.2,0.2,0.2,0.5,0.2,0.8v8
	c-0.1,1,0.3,2,1,2.7c0.8,0.6,1.7,1,2.7,0.9c0.6,0,1.2-0.1,1.8-0.3c0.5-0.2,0.9-0.5,1.3-0.9c0.3-0.3,0.5-0.7,0.5-1.2
	c0-0.2,0-0.4-0.1-0.5c-0.1-0.1-0.2-0.2-0.4-0.2c-0.1,0-0.3,0-0.4,0.1c-0.1,0.1-0.3,0.2-0.4,0.3c-0.2,0.1-0.3,0.2-0.5,0.3
	c-0.2,0.1-0.5,0.1-0.7,0.1c-0.4,0-0.9-0.2-1.2-0.5c-0.3-0.4-0.5-0.9-0.4-1.4v-8.4L161.9,391.1z M173,391.1c0.4,0,0.9-0.1,1.3-0.3
	c0.2-0.2,0.4-0.4,0.4-0.7c0-0.2-0.1-0.4-0.2-0.5c-0.2-0.1-0.4-0.2-0.6-0.2h-3.3v-2.6c0-0.2-0.1-0.5-0.2-0.7
	c-0.2-0.2-0.4-0.2-0.6-0.2c-0.2,0-0.4,0.1-0.6,0.2c-0.2,0.2-0.4,0.4-0.5,0.6l-0.7,1.8c-0.1,0.3-0.3,0.5-0.5,0.7
	c-0.2,0.1-0.4,0.2-0.7,0.2H166c-0.2,0-0.4,0.1-0.6,0.2c-0.1,0.1-0.2,0.3-0.2,0.5c0,0.2,0.1,0.3,0.2,0.5c0.1,0.1,0.3,0.3,0.4,0.3
	l0.7,0.1c0.3,0,0.5,0.2,0.7,0.4c0.2,0.2,0.2,0.5,0.2,0.8v8c-0.1,1,0.3,2,1,2.7c0.8,0.6,1.7,1,2.7,0.9c0.6,0,1.2-0.1,1.8-0.3
	c0.5-0.2,0.9-0.5,1.3-0.9c0.3-0.3,0.5-0.7,0.5-1.2c0-0.2,0-0.4-0.1-0.5c-0.1-0.1-0.2-0.2-0.4-0.2c-0.1,0-0.3,0-0.4,0.1
	c-0.1,0.1-0.3,0.2-0.4,0.3c-0.2,0.1-0.4,0.2-0.5,0.3c-0.2,0.1-0.5,0.1-0.7,0.1c-0.4,0-0.9-0.2-1.2-0.5c-0.3-0.4-0.5-0.9-0.4-1.4
	v-8.4L173,391.1z M188.4,390c-1.2-0.6-2.5-1-3.9-0.9c-1.4,0-2.7,0.3-3.9,0.9c-1.1,0.6-2,1.5-2.7,2.6c-0.7,1.1-1,2.4-1,3.8
	c0,1.3,0.3,2.7,0.9,3.9c0.6,1.1,1.5,2,2.6,2.6c2.5,1.3,5.4,1.3,7.9,0c1.1-0.6,2-1.5,2.7-2.6c0.7-1.1,1-2.5,1-3.8
	c0-1.3-0.3-2.7-1-3.8C190.4,391.5,189.5,390.6,188.4,390z M188.6,398.7c-0.1,0.8-0.5,1.6-1,2.2c-0.5,0.6-1.2,0.9-1.9,1.1
	c-0.8,0.1-1.6,0-2.3-0.3c-0.8-0.4-1.4-0.9-1.9-1.6c-0.6-0.9-1-1.9-1.2-2.9c-0.2-1-0.3-2-0.1-3c0.1-0.8,0.5-1.6,1-2.2
	c0.5-0.6,1.2-0.9,1.9-1.1c0.8-0.2,1.6-0.1,2.3,0.3c0.7,0.4,1.4,0.9,1.8,1.7c0.6,0.9,1,1.9,1.2,2.9
	C188.7,396.7,188.8,397.7,188.6,398.7z M219.7,402l-0.5-0.2c-0.2-0.1-0.4-0.2-0.5-0.4c-0.1-0.2-0.2-0.5-0.2-0.8v-7.3
	c0.1-1.2-0.4-2.3-1.2-3.2c-0.8-0.8-1.9-1.3-3-1.2c-0.9,0-1.8,0.3-2.7,0.8c-1,0.6-1.9,1.3-2.8,2.1c-0.2-0.6-0.5-1.2-1-1.7
	c-0.8-0.8-1.9-1.2-3-1.2c-0.9,0-1.8,0.3-2.7,0.7c-1,0.5-1.8,1.2-2.7,1.9v-1.6c0-0.2,0-0.5-0.2-0.7c-0.2-0.2-0.4-0.3-0.6-0.2
	c-0.2,0-0.4,0-0.7,0.1c-0.3,0.1-0.5,0.2-0.8,0.3l-2.2,0.8c-0.2,0.1-0.4,0.2-0.6,0.3c-0.1,0.1-0.2,0.3-0.2,0.5c0,0.2,0.1,0.3,0.2,0.4
	c0.1,0.1,0.3,0.2,0.4,0.3h0.9c0.2,0,0.3,0.1,0.5,0.3c0.1,0.2,0.2,0.5,0.2,0.7v7.8c0,0.3,0,0.5-0.2,0.8c-0.1,0.2-0.3,0.3-0.5,0.4
	l-0.5,0.2c-0.2,0.1-0.3,0.2-0.5,0.3c-0.1,0.1-0.2,0.3-0.2,0.5c0,0.2,0.1,0.4,0.2,0.5c0.2,0.1,0.4,0.2,0.6,0.2h5.2
	c0.5,0,0.8-0.2,0.8-0.7c0-0.3-0.2-0.6-0.6-0.7l-0.5-0.2c-0.2-0.1-0.4-0.2-0.5-0.4c-0.1-0.3-0.2-0.5-0.2-0.8v-7.4l0.2-0.2
	c0.6-0.5,1.2-1,1.9-1.3c0.5-0.3,1.1-0.4,1.7-0.4c0.7,0,1.4,0.2,1.9,0.7c0.5,0.6,0.8,1.4,0.7,2.2v6.5c0,0.3,0,0.6-0.2,0.8
	c-0.1,0.2-0.3,0.3-0.5,0.4l-0.6,0.2c-0.4,0.2-0.6,0.4-0.6,0.7c0,0.5,0.3,0.7,0.8,0.7h5.1c0.5,0,0.8-0.2,0.8-0.7
	c0-0.3-0.2-0.6-0.6-0.7l-0.5-0.2c-0.2-0.1-0.4-0.2-0.5-0.4c-0.1-0.3-0.2-0.5-0.2-0.8v-7.3c0,0,0,0,0,0l0.2-0.2
	c0.6-0.6,1.2-1,1.9-1.4c0.5-0.3,1.1-0.4,1.7-0.4c0.7,0,1.4,0.2,1.9,0.7c0.5,0.6,0.8,1.4,0.7,2.2v6.5c0,0.3,0,0.6-0.2,0.8
	c-0.1,0.2-0.3,0.3-0.5,0.4l-0.6,0.2c-0.3,0.1-0.6,0.4-0.6,0.7c0,0.5,0.3,0.7,0.8,0.7h5.2c0.2,0,0.5-0.1,0.7-0.2
	c0.2-0.1,0.2-0.3,0.2-0.5c0-0.2-0.1-0.3-0.2-0.5C220.1,402.2,219.9,402.1,219.7,402z M231.6,395.8c-0.9-0.4-1.9-0.8-2.9-1
	c-0.5-0.1-1-0.3-1.5-0.5c-0.4-0.2-0.7-0.4-1-0.7c-0.3-0.3-0.4-0.7-0.4-1.1c0-0.5,0.2-1,0.6-1.4c0.5-0.4,1.1-0.6,1.7-0.5
	c0.9,0,1.7,0.2,2.5,0.6c0.7,0.5,1.3,1.1,1.7,1.8c0.2,0.3,0.4,0.5,0.7,0.7c0.2,0.1,0.4,0.2,0.6,0.1c0.3-0.1,0.5-0.3,0.5-0.6
	c0-0.3,0-0.7-0.1-1l-0.8-2.5c0-0.2-0.1-0.4-0.3-0.5c-0.1-0.1-0.3-0.2-0.5-0.2c-0.1,0-0.3,0.1-0.4,0.1c-0.1,0.1-0.2,0.2-0.4,0.3
	c-0.1,0.1-0.3,0.1-0.4,0.2c-0.2,0-0.4-0.1-0.6-0.2c-0.3-0.1-0.7-0.2-1-0.3c-0.5-0.1-1-0.1-1.5-0.1c-0.9,0-1.8,0.2-2.6,0.5
	c-0.7,0.3-1.3,0.8-1.7,1.5c-0.4,0.6-0.6,1.4-0.6,2.1c0,0.8,0.2,1.6,0.6,2.2c0.5,0.6,1.1,1.2,1.8,1.5c0.9,0.4,1.8,0.7,2.7,0.9
	c0.6,0.1,1.1,0.3,1.7,0.5c0.4,0.2,0.8,0.4,1.2,0.8c0.3,0.3,0.4,0.7,0.4,1.1c0,0.6-0.2,1.1-0.6,1.5c-0.5,0.4-1.2,0.7-2,0.6
	c-0.6,0-1.1-0.1-1.7-0.3c-0.5-0.2-1.1-0.5-1.5-0.9c-0.5-0.4-0.9-0.9-1.3-1.5c-0.2-0.2-0.4-0.4-0.6-0.5c-0.2-0.1-0.5-0.1-0.7,0
	c-0.2,0.1-0.4,0.3-0.5,0.5c-0.1,0.3,0,0.7,0.1,1l1.1,2.4c0.1,0.2,0.2,0.5,0.4,0.6c0.1,0.1,0.3,0.2,0.5,0.2c0.2,0,0.3,0,0.4-0.2
	l0.4-0.3c0.1-0.1,0.3-0.2,0.5-0.2c0.2,0,0.5,0.1,0.7,0.1c0.3,0.1,0.6,0.2,1,0.3c0.4,0.1,0.9,0.2,1.3,0.2c1.4,0.1,2.8-0.3,3.9-1.2
	c0.9-0.8,1.4-1.9,1.3-3.1c0-0.8-0.3-1.5-0.8-2.1C233,396.6,232.3,396.1,231.6,395.8z M799.6,15c-0.9-0.4-1.9-0.8-2.9-1
	c-0.5-0.1-1-0.3-1.5-0.5c-0.4-0.2-0.7-0.4-1-0.7c-0.3-0.3-0.4-0.7-0.4-1.1c0-0.5,0.2-1,0.6-1.4c0.5-0.4,1.1-0.6,1.7-0.5
	c0.9,0,1.7,0.2,2.4,0.6c0.7,0.5,1.3,1.1,1.7,1.9c0.2,0.3,0.4,0.5,0.7,0.7c0.2,0.1,0.4,0.2,0.6,0.1c0.3-0.1,0.5-0.3,0.5-0.6
	c0-0.3,0-0.7-0.1-1l-0.8-2.5c0-0.2-0.1-0.4-0.3-0.5c-0.1-0.1-0.3-0.2-0.5-0.2c-0.1,0-0.3,0.1-0.4,0.1c-0.1,0.1-0.2,0.2-0.4,0.3
	c-0.1,0.1-0.3,0.1-0.4,0.2c-0.2,0-0.4-0.1-0.6-0.2c-0.3-0.1-0.7-0.2-1-0.3c-0.5-0.1-1-0.1-1.5-0.1c-0.9,0-1.8,0.2-2.6,0.5
	c-0.7,0.3-1.3,0.8-1.7,1.5c-0.4,0.6-0.6,1.4-0.6,2.1c0,0.8,0.2,1.6,0.6,2.2c0.5,0.6,1.1,1.1,1.8,1.5c0.9,0.4,1.8,0.7,2.7,0.9
	c0.6,0.1,1.1,0.3,1.7,0.5c0.4,0.2,0.8,0.4,1.2,0.8c0.3,0.3,0.4,0.7,0.4,1.1c0,0.6-0.2,1.1-0.6,1.5c-0.6,0.5-1.3,0.7-2,0.6
	c-0.6,0-1.1-0.1-1.7-0.3c-0.5-0.2-1.1-0.5-1.5-0.9c-0.5-0.4-0.9-0.9-1.3-1.5c-0.2-0.2-0.4-0.4-0.6-0.5c-0.2-0.1-0.5-0.1-0.7,0
	c-0.2,0.1-0.4,0.3-0.5,0.5c-0.1,0.3,0,0.7,0.1,1l1.1,2.4c0.1,0.2,0.2,0.5,0.4,0.6c0.1,0.1,0.3,0.2,0.5,0.2c0.2,0,0.3,0,0.4-0.1
	c0.1-0.1,0.2-0.2,0.4-0.3c0.1-0.1,0.3-0.2,0.4-0.2c0.2,0,0.5,0.1,0.7,0.2c0.3,0.1,0.6,0.2,1,0.3c0.4,0.1,0.9,0.1,1.3,0.1
	c1.4,0.1,2.8-0.3,3.9-1.2c0.9-0.8,1.4-1.9,1.3-3.1c0-0.8-0.2-1.5-0.7-2.2C801,15.8,800.3,15.3,799.6,15z M816.2,9.2
	c-1.2-0.6-2.5-1-3.9-0.9c-1.4,0-2.7,0.3-3.9,0.9c-1.1,0.6-2,1.5-2.7,2.6c-0.7,1.1-1,2.4-1,3.8c0,1.4,0.3,2.7,0.9,3.9
	c0.6,1.1,1.5,2,2.6,2.6c2.5,1.3,5.4,1.3,7.8,0c1.1-0.6,2-1.5,2.7-2.6c0.7-1.1,1-2.5,1-3.8c0-1.3-0.3-2.7-1-3.8
	C818.2,10.7,817.3,9.8,816.2,9.2z M816.4,17.9c-0.1,0.8-0.5,1.6-1,2.2c-0.5,0.6-1.2,0.9-1.9,1.1c-0.8,0.2-1.6,0.1-2.3-0.2
	c-0.8-0.4-1.4-0.9-1.9-1.6c-0.6-0.9-1-1.9-1.2-2.9c-0.2-1-0.3-2-0.1-3c0.1-0.8,0.5-1.6,1-2.2c0.5-0.6,1.2-0.9,1.9-1.1
	c0.8-0.2,1.6-0.1,2.3,0.3c0.8,0.4,1.4,0.9,1.9,1.6c0.6,0.9,1,1.9,1.2,2.9C816.5,15.9,816.5,16.9,816.4,17.9z M830.2,1.5
	c-0.7-0.3-1.5-0.5-2.3-0.4c-1.2-0.1-2.5,0.3-3.4,1.1c-1.2,1-1.6,2.7-1,4.2c0.2,0.4,0.3,0.7,0.6,1.1c0.2,0.3,0.4,0.6,0.6,0.8
	c0.1,0.2,0.2,0.4,0.2,0.6H823c-0.2,0-0.4,0.1-0.5,0.2c-0.1,0.1-0.2,0.3-0.2,0.5c0,0.2,0.1,0.4,0.3,0.5c0.2,0.2,0.5,0.3,0.8,0.4
	l0.5,0.2c0.3,0.1,0.5,0.2,0.7,0.4c0.1,0.2,0.2,0.4,0.2,0.7v8.1c0,0.3-0.1,0.6-0.2,0.8c-0.2,0.2-0.4,0.3-0.6,0.4l-0.6,0.1
	c-0.2,0.1-0.4,0.2-0.6,0.3c-0.1,0.1-0.2,0.3-0.2,0.5c0,0.2,0.1,0.4,0.2,0.5c0.2,0.1,0.4,0.2,0.6,0.2h6.7c0.6,0,0.9-0.2,0.9-0.7
	c0-0.2-0.1-0.4-0.2-0.5c-0.2-0.2-0.4-0.2-0.6-0.3l-1.4-0.1c-0.3,0-0.5-0.1-0.6-0.3c-0.2-0.2-0.2-0.5-0.2-0.8l-0.1-9.3h2.1
	c0.4,0,0.9-0.1,1.3-0.3c0.2-0.2,0.4-0.4,0.4-0.7c0-0.2-0.1-0.4-0.2-0.5c-0.2-0.1-0.4-0.2-0.6-0.2h-3.2V8.8c0-0.3-0.1-0.5-0.2-0.7
	c-0.1-0.3-0.3-0.5-0.5-0.8c-0.2-0.3-0.4-0.6-0.6-0.9c-0.2-0.3-0.4-0.7-0.5-1c-0.1-0.4-0.2-0.7-0.2-1.1c0-0.5,0.2-1.1,0.5-1.5
	c0.4-0.4,0.9-0.5,1.4-0.5c0.4,0,0.8,0.1,1.1,0.4c0.3,0.3,0.4,0.7,0.4,1.1v0.6c0,0.4,0.1,0.9,0.4,1.2c0.3,0.3,0.7,0.5,1.2,0.4
	c0.4,0,0.8-0.1,1.1-0.4c0.3-0.4,0.4-0.8,0.4-1.3c0-0.6-0.2-1.2-0.5-1.6C831.2,2.1,830.7,1.7,830.2,1.5z M840.7,10.2
	c0.4,0,0.9-0.1,1.3-0.3c0.2-0.2,0.4-0.4,0.4-0.7c0-0.2-0.1-0.4-0.2-0.5c-0.2-0.1-0.4-0.2-0.6-0.2h-3.3V6c0-0.2-0.1-0.5-0.2-0.7
	c-0.2-0.2-0.4-0.2-0.6-0.2c-0.2,0-0.4,0.1-0.6,0.2c-0.2,0.2-0.4,0.4-0.5,0.6l-0.7,1.8c-0.1,0.3-0.3,0.5-0.5,0.7
	c-0.2,0.1-0.4,0.2-0.7,0.2h-0.7c-0.2,0-0.4,0.1-0.6,0.2c-0.1,0.1-0.2,0.3-0.2,0.5c0,0.2,0,0.3,0.2,0.5c0.1,0.1,0.3,0.2,0.4,0.3
	l0.7,0.1c0.3,0,0.5,0.2,0.7,0.4c0.2,0.2,0.2,0.5,0.2,0.8v8c-0.1,1,0.3,2,1,2.7c0.8,0.6,1.7,1,2.7,0.9c0.6,0,1.2-0.1,1.8-0.3
	c0.5-0.2,0.9-0.5,1.3-0.9c0.3-0.3,0.5-0.7,0.5-1.2c0.1-0.2,0-0.4-0.1-0.5c-0.1-0.1-0.2-0.2-0.4-0.2c-0.1,0-0.3,0-0.4,0.1
	c-0.1,0.1-0.3,0.2-0.4,0.3c-0.2,0.1-0.3,0.2-0.5,0.3c-0.2,0.1-0.5,0.1-0.7,0.1c-0.4,0-0.9-0.2-1.2-0.5c-0.3-0.4-0.5-0.9-0.4-1.4
	v-8.5H840.7z M853.6,13h-7.3c-0.2,0-0.4,0-0.6,0.1c-0.2,0.1-0.3,0.3-0.3,0.5l-0.4,0.9c-0.2,0.5,0,0.8,0.6,0.8h7.3
	c0.2,0,0.4,0,0.6-0.1c0.2-0.1,0.3-0.3,0.3-0.5l0.4-0.9C854.4,13.3,854.2,13,853.6,13z M869.5,9.2c-1-0.6-2.1-0.9-3.2-0.9
	c-1.2,0-2.4,0.3-3.4,1c-0.5,0.3-0.9,0.7-1.3,1.1v-9c0-0.2-0.1-0.4-0.2-0.6c-0.2-0.2-0.4-0.3-0.6-0.2c-0.2,0-0.4,0-0.7,0.1
	c-0.2,0.1-0.5,0.2-0.8,0.3L857,1.8c-0.2,0.1-0.4,0.2-0.6,0.3c-0.1,0.1-0.2,0.3-0.2,0.5c0,0.2,0.1,0.3,0.2,0.5
	c0.1,0.1,0.3,0.2,0.4,0.2h0.9c0.2,0,0.3,0.1,0.4,0.3c0.1,0.2,0.2,0.5,0.2,0.7V22c0,0.2,0,0.4,0.2,0.6c0.1,0.1,0.3,0.2,0.5,0.2
	c0.2,0,0.5,0,0.7-0.1c0.2-0.1,0.5-0.2,0.7-0.4l0.8-0.9c0.3,0.3,0.6,0.5,0.9,0.7c1,0.6,2.1,1,3.3,0.9c1.2,0,2.5-0.3,3.6-0.9
	c1.1-0.6,2-1.6,2.5-2.7c0.7-1.2,1-2.6,1-4.1c0-1.3-0.3-2.5-0.8-3.7C871.2,10.7,870.4,9.8,869.5,9.2z M868.6,18.7
	c-0.3,0.8-0.8,1.4-1.5,1.9c-0.6,0.4-1.4,0.7-2.1,0.7c-0.8,0-1.7-0.3-2.4-0.8c-0.4-0.3-0.7-0.6-1-0.9v-7.6c0.3-0.3,0.6-0.7,1-0.9
	c0.7-0.5,1.5-0.7,2.4-0.7c0.8,0,1.5,0.2,2.2,0.6c0.7,0.5,1.2,1.1,1.5,1.8c0.4,0.9,0.6,1.9,0.5,2.9C869.1,16.7,868.9,17.7,868.6,18.7
	z M886.5,9.2c-1.2-0.6-2.5-1-3.9-0.9c-1.4,0-2.7,0.3-3.9,0.9c-1.1,0.6-2,1.5-2.7,2.6c-0.7,1.1-1,2.4-1,3.8c0,1.4,0.3,2.7,1,3.9
	c0.6,1.1,1.5,2,2.6,2.6c2.5,1.3,5.4,1.3,7.8,0c1.1-0.6,2-1.5,2.7-2.6c0.7-1.1,1-2.5,1-3.8c0-1.3-0.3-2.7-1-3.8
	C888.5,10.7,887.6,9.8,886.5,9.2z M886.7,17.9c-0.1,0.8-0.5,1.6-1,2.2c-0.5,0.6-1.2,0.9-1.9,1.1c-0.8,0.1-1.6,0-2.3-0.3
	c-0.8-0.4-1.4-0.9-1.9-1.6c-0.6-0.9-1-1.9-1.2-2.9c-0.2-1-0.3-2-0.1-3c0.1-0.8,0.5-1.6,1-2.2c0.5-0.6,1.2-0.9,1.9-1.1
	c0.8-0.2,1.6-0.1,2.3,0.3c0.7,0.4,1.4,0.9,1.8,1.7c0.6,0.9,1,1.9,1.2,2.9C886.8,15.9,886.8,16.9,886.7,17.9z M897.6,26.5
	c-0.2,0.4-0.5,0.7-0.8,0.9c-0.2,0.2-0.5,0.3-0.8,0.3c-0.2,0-0.5-0.1-0.7-0.2c-0.2-0.2-0.3-0.5-0.4-0.8l-0.1-0.5
	c-0.1-0.4-0.3-0.8-0.5-1.1c-0.3-0.3-0.6-0.4-1-0.4c-0.4,0-0.8,0.2-1,0.5c-0.3,0.4-0.4,0.8-0.4,1.3c0,0.8,0.3,1.6,0.9,2.2
	c0.7,0.6,1.6,1,2.6,0.9c0.7,0,1.3-0.2,1.9-0.5c0.6-0.4,1.2-1,1.6-1.6c0.6-1,1.1-2,1.6-3.1l5.3-12.7c0.1-0.4,0.4-0.8,0.7-1.1
	c0.3-0.2,0.6-0.4,1-0.5c0.2-0.1,0.4-0.2,0.5-0.4c0.1-0.1,0.1-0.3,0.1-0.4c0-0.2-0.1-0.4-0.2-0.6c-0.2-0.1-0.4-0.2-0.6-0.2h-4.3
	c-0.2,0-0.4,0.1-0.6,0.2c-0.2,0.1-0.3,0.3-0.2,0.5c0,0.2,0.1,0.4,0.2,0.5c0.1,0.1,0.3,0.2,0.5,0.3l0.7,0.2c0.3,0.1,0.6,0.3,0.7,0.6
	c0.1,0.4,0,0.8-0.2,1.2l-3.3,8.2l-3.3-8c-0.2-0.4-0.3-0.8-0.3-1.2c0-0.3,0.2-0.5,0.6-0.5l0.6-0.2c0.2-0.1,0.4-0.2,0.5-0.3
	c0.1-0.1,0.2-0.3,0.2-0.5c0-0.2-0.1-0.4-0.2-0.5c-0.2-0.1-0.4-0.2-0.6-0.2h-5.8c-0.2,0-0.4,0.1-0.6,0.2c-0.2,0.1-0.3,0.3-0.2,0.6
	c0,0.2,0.1,0.3,0.2,0.4c0.1,0.1,0.3,0.3,0.5,0.3c0.3,0.1,0.7,0.2,1,0.4c0.3,0.2,0.5,0.5,0.7,0.9l5.3,12.1l-0.5,1.2
	C898.2,25.4,897.9,26,897.6,26.5z M919.5,22.4c0.3,0,0.5,0.1,0.7,0.2c0.2,0.1,0.6,0.2,1,0.3c0.4,0.1,0.9,0.1,1.3,0.1
	c1.4,0.1,2.8-0.3,3.9-1.2c0.9-0.8,1.4-1.9,1.3-3.1c0-0.8-0.2-1.5-0.7-2.2c-0.5-0.6-1.2-1.2-1.9-1.5c-0.9-0.4-1.9-0.8-2.9-1
	c-0.5-0.1-1-0.3-1.5-0.5c-0.4-0.2-0.7-0.4-1-0.7c-0.3-0.3-0.4-0.7-0.4-1.1c0-0.5,0.2-1,0.6-1.4c0.5-0.4,1.1-0.6,1.7-0.5
	c0.8,0,1.7,0.2,2.4,0.6c0.7,0.5,1.3,1.1,1.7,1.9c0.2,0.3,0.4,0.5,0.7,0.7c0.2,0.1,0.4,0.2,0.6,0.1c0.3-0.1,0.5-0.3,0.5-0.6
	c0-0.3,0-0.7-0.1-1l-0.8-2.5c0-0.2-0.1-0.4-0.3-0.5c-0.1-0.1-0.3-0.2-0.5-0.2c-0.1,0-0.3,0-0.4,0.1l-0.4,0.3
	c-0.1,0.1-0.3,0.2-0.4,0.2c-0.2,0-0.4-0.1-0.6-0.2c-0.3-0.1-0.7-0.2-1-0.3c-0.5-0.1-1-0.1-1.5-0.1c-0.9,0-1.8,0.2-2.6,0.5
	c-0.7,0.3-1.3,0.8-1.7,1.5c-0.4,0.6-0.6,1.4-0.6,2.1c0,0.8,0.2,1.6,0.6,2.2c0.5,0.6,1.1,1.2,1.8,1.5c0.9,0.4,1.8,0.7,2.7,0.9
	c0.6,0.1,1.1,0.3,1.7,0.5c0.4,0.2,0.8,0.4,1.2,0.8c0.3,0.3,0.4,0.7,0.4,1.1c0,0.6-0.2,1.1-0.6,1.5c-0.6,0.5-1.3,0.7-2,0.6
	c-0.6,0-1.1-0.1-1.6-0.3c-0.6-0.2-1.1-0.5-1.5-0.9c-0.5-0.4-0.9-0.9-1.3-1.5c-0.2-0.2-0.4-0.4-0.6-0.5c-0.2-0.1-0.5-0.1-0.8,0
	c-0.2,0.1-0.4,0.3-0.5,0.5c-0.1,0.3,0,0.7,0.1,1l1.1,2.4c0.1,0.2,0.2,0.5,0.4,0.6c0.1,0.1,0.3,0.2,0.5,0.2c0.2,0,0.3,0,0.4-0.1
	l0.3-0.3C919.2,22.4,919.3,22.4,919.5,22.4z M943.1,17.9c-0.1,0-0.2,0-0.3,0.1c-0.1,0.1-0.2,0.2-0.3,0.4c-0.4,0.7-0.9,1.2-1.5,1.6
	c-0.8,0.5-1.7,0.7-2.6,0.7c-1.4,0.1-2.7-0.5-3.7-1.5c-0.9-1-1.4-2.3-1.4-3.7h8.3c0.5,0,1.1-0.1,1.5-0.5c0.4-0.4,0.6-0.9,0.5-1.4
	c0-1-0.2-1.9-0.8-2.8c-0.5-0.8-1.2-1.5-2.1-1.9c-1-0.5-2-0.7-3.1-0.7c-1.4,0-2.7,0.3-3.9,1c-1.1,0.7-1.9,1.6-2.5,2.7
	c-0.6,1.2-0.9,2.5-0.9,3.9c0,1.3,0.3,2.6,0.9,3.8c0.6,1.1,1.4,2,2.5,2.5c1.2,0.6,2.5,1,3.8,0.9c1.1,0,2.2-0.2,3.2-0.6
	c0.8-0.4,1.6-1,2.1-1.7c0.5-0.6,0.8-1.4,0.8-2.2c0-0.2,0-0.3-0.1-0.5C943.4,17.9,943.2,17.9,943.1,17.9z M933.7,12.2
	c0.3-0.7,0.8-1.3,1.4-1.7c0.6-0.4,1.3-0.6,2-0.6c0.9,0,1.7,0.3,2.3,0.9c0.6,0.7,0.9,1.6,0.9,2.5c0,0.6-0.3,0.9-0.9,0.9h-6.1
	C933.3,13.5,933.5,12.9,933.7,12.2z M946.4,11.1h0.9c0.2,0,0.3,0.1,0.5,0.3c0.1,0.2,0.2,0.5,0.2,0.7v7.8c0,0.3,0,0.5-0.2,0.8
	c-0.1,0.2-0.3,0.3-0.5,0.4l-0.5,0.1c-0.2,0.1-0.3,0.2-0.5,0.3c-0.1,0.1-0.2,0.3-0.2,0.5c0,0.2,0.1,0.4,0.2,0.5
	c0.2,0.1,0.4,0.2,0.6,0.2h6.1c0.2,0,0.5-0.1,0.6-0.2c0.2-0.1,0.2-0.3,0.2-0.5c0-0.2-0.1-0.4-0.2-0.5c-0.2-0.2-0.4-0.3-0.6-0.3
	l-1.2-0.1c-0.2,0-0.5-0.1-0.6-0.3c-0.2-0.2-0.2-0.5-0.2-0.8v-5.1l0,0c0-0.8,0.1-1.6,0.4-2.4c0.2-0.6,0.5-1.1,1-1.5
	c0.4-0.3,0.8-0.5,1.3-0.5c0.3,0,0.5,0.1,0.7,0.2c0.2,0.2,0.3,0.5,0.3,0.7v0.5c0,0.4,0.1,0.8,0.4,1.1c0.3,0.3,0.7,0.4,1.1,0.4
	c0.4,0,0.9-0.2,1.2-0.5c0.3-0.4,0.5-1,0.4-1.5c0-0.8-0.2-1.6-0.8-2.2c-0.6-0.5-1.3-0.8-2.1-0.8c-0.8,0-1.6,0.3-2.3,0.8
	c-0.8,0.6-1.3,1.3-1.7,2.2c0,0,0,0.1,0,0.1l-0.1-2c0-0.3-0.1-0.5-0.2-0.7c-0.1-0.1-0.3-0.2-0.6-0.2c-0.2,0-0.4,0-0.5,0.1l-0.7,0.3
	l-2.3,0.8c-0.2,0.1-0.4,0.2-0.6,0.3c-0.1,0.1-0.2,0.3-0.2,0.5c0,0.2,0.1,0.3,0.2,0.4C946.1,11,946.2,11.1,946.4,11.1z M962.7,5.6
	C962.7,5.6,962.7,5.6,962.7,5.6C962.7,5.6,962.7,5.6,962.7,5.6L962.7,5.6z M960,11l0.9,0c0.2,0,0.3,0.1,0.5,0.3
	c0.1,0.2,0.2,0.5,0.2,0.7v7.8c0,0.3,0,0.5-0.2,0.8c-0.1,0.2-0.3,0.3-0.5,0.4l-0.5,0.1c-0.2,0.1-0.3,0.2-0.5,0.3
	c-0.1,0.1-0.2,0.3-0.2,0.5c0,0.2,0.1,0.4,0.2,0.5c0.2,0.1,0.4,0.2,0.6,0.2h5.2c0.2,0,0.5-0.1,0.6-0.2c0.2-0.1,0.2-0.3,0.2-0.5
	c0-0.2-0.1-0.3-0.2-0.5c-0.1-0.1-0.3-0.2-0.5-0.3l-0.5-0.1c-0.2-0.1-0.4-0.2-0.5-0.4c-0.1-0.2-0.2-0.5-0.2-0.8V9.3
	c0-0.2-0.1-0.5-0.2-0.7c-0.2-0.2-0.4-0.3-0.6-0.2c-0.2,0-0.4,0-0.7,0.1l-0.8,0.3l-2.3,0.8c-0.2,0.1-0.4,0.2-0.6,0.3
	c-0.1,0.1-0.2,0.3-0.2,0.5c0,0.2,0.1,0.3,0.2,0.4C959.6,10.9,959.8,11,960,11z M962.7,5.6c0.6,0,1.2-0.2,1.7-0.5
	c0.4-0.4,0.6-0.9,0.6-1.4c0-0.5-0.2-1-0.6-1.4c-0.5-0.4-1.1-0.6-1.7-0.5c-0.6,0-1.2,0.2-1.6,0.5c-0.4,0.3-0.6,0.9-0.6,1.4
	c0,0.5,0.2,1.1,0.6,1.4C961.5,5.4,962.1,5.6,962.7,5.6z M977.4,21.9c0-0.2-0.1-0.4-0.2-0.5c-0.2-0.2-0.4-0.2-0.6-0.3l-1.4-0.1
	c-0.2,0-0.5-0.1-0.6-0.3c-0.2-0.2-0.2-0.5-0.2-0.8l-0.1-9.3h2.1c0.4,0,0.9-0.1,1.3-0.3c0.2-0.2,0.4-0.4,0.4-0.7
	c0-0.2-0.1-0.4-0.2-0.5c-0.2-0.1-0.4-0.2-0.6-0.2h-3.2V8.8c0-0.2-0.1-0.5-0.2-0.7c-0.1-0.3-0.3-0.5-0.5-0.8
	c-0.2-0.3-0.4-0.6-0.6-0.9c-0.2-0.3-0.4-0.7-0.5-1c-0.1-0.4-0.2-0.7-0.2-1.1c0-0.5,0.2-1.1,0.5-1.5c0.4-0.4,0.9-0.5,1.4-0.5
	c0.4,0,0.8,0.1,1.1,0.4c0.3,0.3,0.4,0.7,0.4,1.1v0.6c0,0.4,0.1,0.9,0.4,1.2c0.3,0.3,0.7,0.5,1.2,0.4c0.4,0,0.8-0.1,1.1-0.4
	c0.3-0.4,0.4-0.8,0.4-1.3c0-0.6-0.2-1.2-0.5-1.6c-0.4-0.5-0.9-0.9-1.4-1.2c-0.7-0.3-1.5-0.5-2.3-0.4c-1.2-0.1-2.5,0.3-3.4,1.1
	c-1.2,1-1.6,2.7-1,4.2c0.2,0.4,0.3,0.7,0.6,1.1l0.6,0.8c0.1,0.2,0.2,0.4,0.2,0.6h-1.8c-0.2,0-0.4,0.1-0.5,0.2
	c-0.1,0.1-0.2,0.3-0.2,0.5c0,0.2,0.1,0.4,0.3,0.5c0.2,0.2,0.5,0.3,0.8,0.4l0.5,0.2c0.3,0.1,0.5,0.2,0.7,0.4c0.1,0.2,0.2,0.4,0.2,0.7
	v8.1c0,0.3-0.1,0.6-0.2,0.8c-0.2,0.2-0.4,0.3-0.6,0.4l-0.6,0.1c-0.2,0.1-0.4,0.2-0.6,0.3c-0.1,0.1-0.2,0.3-0.2,0.5
	c0,0.2,0.1,0.4,0.2,0.5c0.2,0.1,0.4,0.2,0.6,0.2h6.7C977.1,22.7,977.4,22.4,977.4,21.9z M989,15c-0.9-0.4-1.9-0.8-2.9-1
	c-0.5-0.1-1-0.3-1.5-0.5c-0.4-0.2-0.7-0.4-1-0.7c-0.3-0.3-0.4-0.7-0.4-1.1c0-0.5,0.2-1,0.6-1.4c0.5-0.4,1.1-0.6,1.7-0.5
	c0.8,0,1.6,0.2,2.3,0.6c0.7,0.5,1.3,1.1,1.7,1.9c0.2,0.3,0.4,0.5,0.7,0.7c0.2,0.1,0.4,0.2,0.6,0.1c0.3-0.1,0.5-0.3,0.5-0.6
	c0-0.3,0-0.7-0.1-1l-0.8-2.5c0-0.2-0.1-0.4-0.3-0.5c-0.1-0.1-0.3-0.2-0.5-0.2c-0.1,0-0.3,0.1-0.4,0.1c-0.1,0.1-0.2,0.2-0.4,0.3
	c-0.1,0.1-0.3,0.1-0.4,0.2c-0.2,0-0.4-0.1-0.6-0.2c-0.3-0.1-0.7-0.2-1-0.3c-0.5-0.1-1-0.1-1.5-0.1c-0.9,0-1.8,0.2-2.6,0.5
	c-0.7,0.3-1.3,0.8-1.7,1.5c-0.4,0.6-0.6,1.4-0.6,2.1c0,0.8,0.2,1.6,0.6,2.2c0.5,0.6,1.1,1.1,1.8,1.5c0.9,0.4,1.8,0.7,2.7,0.9
	c0.6,0.1,1.1,0.3,1.7,0.5c0.4,0.2,0.8,0.4,1.2,0.8c0.3,0.3,0.4,0.7,0.4,1.1c0,0.6-0.2,1.1-0.6,1.5c-0.5,0.4-1.2,0.7-1.9,0.6
	c-0.6,0-1.1-0.1-1.6-0.3c-0.6-0.2-1.1-0.5-1.5-0.9c-0.5-0.4-0.9-0.9-1.3-1.5c-0.2-0.2-0.4-0.4-0.6-0.5c-0.2-0.1-0.5-0.1-0.7,0
	c-0.2,0.1-0.4,0.3-0.5,0.5c-0.1,0.3,0,0.7,0.1,1l1.1,2.4c0.1,0.2,0.2,0.5,0.4,0.6c0.1,0.1,0.3,0.2,0.5,0.2c0.2,0,0.3,0,0.4-0.1
	c0.1-0.1,0.2-0.2,0.3-0.3c0.1-0.1,0.3-0.2,0.4-0.2c0.3,0,0.5,0.1,0.7,0.2c0.3,0.1,0.6,0.2,1,0.3c0.4,0.1,0.9,0.1,1.3,0.1
	c1.4,0.1,2.9-0.3,4-1.2c0.9-0.8,1.4-1.9,1.3-3.1c0-0.8-0.2-1.5-0.7-2.2C990.4,15.8,989.7,15.3,989,15z M334.8,22.3
	c1-0.5,1.9-1.2,2.7-2l0.1,0.6c0,0.5,0.1,1,0.4,1.3c0.3,0.3,0.8,0.5,1.2,0.4h2.4c0.2,0,0.5-0.1,0.7-0.2c0.2-0.1,0.2-0.3,0.2-0.5
	c0-0.2-0.1-0.3-0.2-0.5c-0.1-0.1-0.3-0.2-0.5-0.3l-0.5-0.2c-0.2-0.1-0.4-0.2-0.5-0.3c-0.1-0.2-0.2-0.5-0.2-0.8V9.3
	c0-0.2-0.1-0.5-0.2-0.7c-0.2-0.2-0.4-0.3-0.6-0.2c-0.2,0-0.4,0-0.7,0.1l-0.8,0.3L336,9.6c-0.2,0.1-0.4,0.2-0.6,0.3
	c-0.1,0.1-0.2,0.3-0.2,0.5c0,0.1,0,0.3,0.1,0.4c0.1,0.1,0.3,0.2,0.4,0.2h1c0.2,0,0.3,0.1,0.5,0.3c0.1,0.2,0.2,0.5,0.2,0.7v6.8
	l-0.2,0.2c-0.6,0.5-1.2,0.9-1.9,1.3c-0.5,0.3-1.1,0.4-1.6,0.4c-0.7,0-1.3-0.2-1.8-0.7c-0.5-0.6-0.7-1.4-0.7-2.1V9.3
	c0-0.2-0.1-0.5-0.2-0.7c-0.2-0.2-0.4-0.3-0.6-0.2c-0.2,0-0.4,0-0.7,0.1l-0.8,0.3l-2.3,0.8c-0.2,0.1-0.4,0.2-0.6,0.3
	c-0.1,0.1-0.2,0.3-0.2,0.5c0,0.2,0,0.3,0.2,0.4c0.1,0.1,0.3,0.2,0.4,0.2h0.9c0.2,0,0.3,0.1,0.5,0.3c0.1,0.2,0.2,0.5,0.2,0.7v6.6
	c-0.1,1.2,0.4,2.3,1.2,3.2c0.8,0.8,1.9,1.2,3,1.2C333.1,23,334,22.8,334.8,22.3z M346.5,20.6c-0.1,0.2-0.3,0.3-0.5,0.4l-0.5,0.2
	c-0.2,0.1-0.3,0.2-0.5,0.3c-0.1,0.1-0.2,0.3-0.2,0.5c0,0.2,0.1,0.4,0.2,0.5c0.2,0.1,0.4,0.2,0.6,0.2h5.2c0.5,0,0.8-0.2,0.8-0.7
	c0-0.3-0.2-0.5-0.6-0.7l-0.5-0.2c-0.2-0.1-0.4-0.2-0.5-0.4c-0.1-0.3-0.2-0.5-0.2-0.8v-7.5l0.1-0.1c0.6-0.5,1.2-1,1.9-1.3
	c0.5-0.3,1.1-0.4,1.7-0.4c0.7,0,1.4,0.2,1.9,0.7c0.5,0.6,0.8,1.4,0.7,2.1v6.5c0,0.3,0,0.6-0.2,0.8c-0.1,0.2-0.3,0.3-0.5,0.4
	l-0.6,0.2c-0.4,0.2-0.6,0.4-0.6,0.7c0,0.5,0.3,0.7,0.8,0.7h5.2c0.2,0,0.5,0,0.6-0.2c0.2-0.1,0.2-0.3,0.2-0.5c0-0.2,0-0.3-0.2-0.5
	c-0.1-0.1-0.3-0.2-0.5-0.3l-0.5-0.2c-0.2-0.1-0.4-0.2-0.5-0.3c-0.1-0.2-0.2-0.5-0.2-0.8v-7.3c0.1-1.2-0.4-2.3-1.2-3.1
	c-0.8-0.8-1.9-1.3-3.1-1.2c-0.9,0-1.9,0.3-2.7,0.7c-0.9,0.5-1.8,1.2-2.6,1.9V9.3c0-0.2-0.1-0.5-0.2-0.7c-0.2-0.2-0.4-0.3-0.6-0.2
	c-0.2,0-0.4,0-0.7,0.1c-0.3,0.1-0.5,0.2-0.8,0.3l-2.3,0.8c-0.2,0.1-0.4,0.2-0.6,0.3c-0.1,0.1-0.2,0.3-0.2,0.5c0,0.2,0.1,0.3,0.2,0.4
	c0.1,0.1,0.3,0.2,0.4,0.3l0.9,0c0.2,0,0.3,0.1,0.5,0.3c0.1,0.2,0.2,0.5,0.2,0.7v7.8C346.7,20.1,346.7,20.4,346.5,20.6z M369.6,22.7
	c0.5,0,0.8-0.2,0.8-0.7c0-0.3-0.2-0.5-0.6-0.7l-0.5-0.2c-0.2-0.1-0.4-0.2-0.5-0.4c-0.1-0.3-0.2-0.5-0.2-0.8v-7.5l0.2-0.2
	c0.6-0.5,1.2-1,1.9-1.3c0.5-0.3,1.1-0.4,1.7-0.4c0.7,0,1.4,0.2,1.9,0.7c0.5,0.6,0.8,1.4,0.7,2.1v6.5c0,0.3,0,0.6-0.2,0.8
	c-0.1,0.2-0.3,0.3-0.5,0.4l-0.5,0.2c-0.4,0.2-0.6,0.4-0.6,0.7c0,0.5,0.3,0.7,0.8,0.7h5.2c0.2,0,0.5-0.1,0.6-0.2
	c0.2-0.1,0.2-0.3,0.2-0.5c0-0.2-0.1-0.3-0.2-0.5c-0.1-0.1-0.3-0.2-0.5-0.3l-0.5-0.2c-0.2-0.1-0.4-0.2-0.5-0.3
	c-0.1-0.2-0.2-0.5-0.2-0.8v-7.3c0.1-1.2-0.4-2.3-1.2-3.1c-0.8-0.8-1.9-1.3-3.1-1.2c-0.9,0-1.9,0.3-2.7,0.7c-0.9,0.5-1.8,1.2-2.6,1.9
	V9.3c0-0.2-0.1-0.5-0.3-0.6c-0.2-0.2-0.4-0.3-0.6-0.2c-0.2,0-0.4,0-0.7,0.1c-0.2,0.1-0.5,0.2-0.8,0.3L364,9.6
	c-0.2,0.1-0.4,0.2-0.6,0.3c-0.1,0.1-0.2,0.3-0.2,0.5c0,0.1,0.1,0.3,0.2,0.4c0.1,0.1,0.3,0.2,0.4,0.3l0.9,0c0.2,0,0.3,0.1,0.5,0.3
	c0.1,0.2,0.2,0.5,0.2,0.7v7.8c0,0.3,0,0.5-0.2,0.8c-0.1,0.2-0.3,0.3-0.5,0.4l-0.5,0.2c-0.2,0.1-0.4,0.2-0.5,0.3
	c-0.1,0.1-0.2,0.3-0.2,0.5c0,0.2,0.1,0.4,0.2,0.5c0.2,0.1,0.4,0.2,0.6,0.2H369.6z M395,17.9c-0.1,0-0.2,0-0.3,0.1
	c-0.1,0.1-0.2,0.2-0.3,0.4c-0.4,0.7-0.9,1.2-1.5,1.6c-0.8,0.5-1.7,0.7-2.6,0.7c-1.4,0.1-2.7-0.5-3.7-1.5c-0.9-1-1.4-2.3-1.4-3.7h8.3
	c0.5,0,1.1-0.1,1.5-0.5c0.4-0.4,0.6-0.9,0.5-1.4c0-1-0.2-1.9-0.8-2.8c-0.5-0.8-1.2-1.5-2.1-1.9c-1-0.5-2-0.7-3.1-0.7
	c-1.4,0-2.7,0.3-3.9,1c-1.1,0.7-1.9,1.6-2.5,2.7c-0.6,1.2-0.9,2.5-0.9,3.9c0,1.3,0.3,2.6,0.9,3.8c0.6,1.1,1.4,2,2.5,2.5
	c1.2,0.6,2.5,1,3.8,0.9c1.1,0,2.2-0.2,3.2-0.6c0.8-0.4,1.6-1,2.1-1.7c0.5-0.6,0.8-1.4,0.8-2.2c0-0.2,0-0.3-0.1-0.5
	C395.3,17.9,395.2,17.9,395,17.9z M385.7,12.2c0.3-0.7,0.8-1.3,1.4-1.7c0.6-0.4,1.3-0.6,2-0.6c0.9,0,1.7,0.3,2.3,0.9
	c0.6,0.7,0.9,1.6,0.9,2.5c0,0.6-0.3,0.9-0.9,0.9h-6.1C385.2,13.5,385.4,12.9,385.7,12.2z M401.3,22.1c1.1,0.6,2.4,0.9,3.7,0.9
	c1.1,0,2.1-0.2,3.1-0.6c0.8-0.4,1.6-0.9,2.1-1.7c0.5-0.6,0.8-1.4,0.8-2.2c0-0.2,0-0.3-0.1-0.5c-0.1-0.1-0.2-0.2-0.4-0.2
	c-0.1,0-0.2,0-0.3,0.1l-0.4,0.4c-0.4,0.6-0.9,1.2-1.5,1.5c-0.8,0.5-1.7,0.7-2.5,0.7c-0.9,0-1.8-0.2-2.6-0.7
	c-0.8-0.5-1.4-1.1-1.8-1.9c-0.5-1-0.7-2-0.7-3.1c0-0.9,0.2-1.8,0.5-2.6c0.3-0.7,0.8-1.3,1.4-1.7c0.6-0.4,1.3-0.6,2.1-0.6
	c0.7,0,1.4,0.2,2,0.6c0.5,0.4,0.7,0.9,0.7,1.5v0.4c0,0.4,0.1,0.9,0.4,1.2c0.3,0.3,0.7,0.5,1.2,0.4c0.5,0,0.9-0.2,1.2-0.5
	c0.3-0.3,0.5-0.8,0.5-1.3c0-0.7-0.2-1.4-0.7-1.9c-0.5-0.7-1.2-1.2-1.9-1.5c-0.9-0.4-2-0.6-3-0.6c-1.4,0-2.7,0.3-3.9,1
	c-1.1,0.7-2,1.6-2.6,2.7c-0.6,1.2-0.9,2.5-0.9,3.9c0,1.3,0.3,2.6,0.9,3.7C399.4,20.7,400.3,21.5,401.3,22.1z M416.6,22.1
	c1.2,0.6,2.5,1,3.8,0.9c1.1,0,2.2-0.2,3.2-0.6c0.8-0.4,1.6-1,2.1-1.7c0.5-0.6,0.8-1.4,0.8-2.2c0-0.2,0-0.3-0.1-0.5
	c-0.1-0.1-0.2-0.2-0.3-0.2c-0.1,0-0.2,0-0.3,0.1c-0.1,0.1-0.2,0.2-0.3,0.4c-0.4,0.7-0.9,1.2-1.5,1.6c-0.8,0.5-1.7,0.7-2.6,0.7
	c-1.4,0.1-2.7-0.5-3.7-1.5c-0.9-1-1.4-2.3-1.4-3.7h8.3c0.5,0,1.1-0.1,1.5-0.5c0.4-0.4,0.6-0.9,0.5-1.4c0-1-0.3-1.9-0.8-2.8
	c-0.5-0.8-1.2-1.5-2.1-1.9c-1-0.5-2-0.7-3.1-0.7c-1.4,0-2.7,0.3-3.9,1c-1.1,0.7-1.9,1.6-2.5,2.7c-0.6,1.2-0.9,2.5-0.9,3.9
	c0,1.3,0.3,2.6,0.9,3.8C414.7,20.6,415.5,21.5,416.6,22.1z M416.7,12.2c0.3-0.7,0.8-1.3,1.4-1.7c0.6-0.4,1.3-0.6,2-0.6
	c0.9,0,1.7,0.3,2.3,0.9c0.6,0.7,0.9,1.6,0.9,2.5c0,0.6-0.3,0.9-0.9,0.9h-6.1C416.2,13.5,416.4,12.9,416.7,12.2z M440.6,18.6
	c0-0.8-0.2-1.5-0.7-2.2c-0.5-0.6-1.2-1.2-1.9-1.5c-0.9-0.4-1.9-0.8-2.9-1c-0.5-0.1-1-0.3-1.5-0.5c-0.4-0.2-0.7-0.4-1-0.7
	c-0.3-0.3-0.4-0.7-0.4-1.1c0-0.5,0.2-1,0.6-1.4c0.5-0.4,1.1-0.6,1.7-0.5c0.8,0,1.7,0.2,2.4,0.6c0.7,0.5,1.3,1.1,1.7,1.9
	c0.2,0.3,0.4,0.5,0.7,0.7c0.2,0.1,0.4,0.2,0.6,0.1c0.3-0.1,0.5-0.3,0.5-0.6c0-0.3,0-0.7-0.1-1L439.4,9c0-0.2-0.1-0.4-0.3-0.5
	c-0.1-0.1-0.3-0.2-0.5-0.2c-0.1,0-0.3,0-0.4,0.1l-0.3,0.3c-0.1,0.1-0.3,0.2-0.4,0.2c-0.2,0-0.4-0.1-0.6-0.2c-0.3-0.1-0.7-0.2-1-0.3
	c-0.5-0.1-1-0.1-1.5-0.1c-0.9,0-1.8,0.2-2.6,0.5c-0.7,0.3-1.3,0.8-1.7,1.5c-0.4,0.6-0.6,1.4-0.6,2.1c0,0.8,0.2,1.6,0.6,2.2
	c0.5,0.6,1.1,1.2,1.8,1.5c0.9,0.4,1.8,0.7,2.7,0.9c0.6,0.1,1.1,0.3,1.7,0.5c0.4,0.2,0.8,0.4,1.2,0.8c0.3,0.3,0.4,0.7,0.4,1.1
	c0,0.6-0.2,1.1-0.6,1.5c-0.5,0.4-1.2,0.7-2,0.6c-0.6,0-1.1-0.1-1.6-0.3c-0.6-0.2-1.1-0.5-1.5-0.9c-0.5-0.4-0.9-0.9-1.3-1.5
	c-0.2-0.2-0.4-0.4-0.6-0.5c-0.2-0.1-0.5-0.1-0.7,0c-0.2,0.1-0.4,0.3-0.5,0.5c-0.1,0.3,0,0.7,0.1,1l1.1,2.4c0.1,0.2,0.2,0.5,0.4,0.6
	c0.1,0.1,0.3,0.2,0.5,0.2c0.2,0,0.3,0,0.4-0.1l0.3-0.3c0.1-0.1,0.3-0.2,0.5-0.2c0.2,0,0.5,0,0.7,0.1c0.3,0.1,0.6,0.2,1,0.3
	c0.4,0.1,0.9,0.1,1.3,0.1c1.4,0.1,2.9-0.3,4-1.2C440.1,20.9,440.6,19.8,440.6,18.6z M454.7,18.6c0-0.8-0.2-1.5-0.7-2.2
	c-0.5-0.6-1.2-1.2-1.9-1.5c-0.9-0.4-1.9-0.8-2.9-1c-0.5-0.1-1-0.3-1.5-0.5c-0.4-0.2-0.7-0.4-1-0.7c-0.3-0.3-0.4-0.7-0.4-1.1
	c0-0.5,0.2-1,0.6-1.4c0.5-0.4,1.1-0.6,1.7-0.5c0.8,0,1.6,0.2,2.3,0.6c0.7,0.5,1.3,1.1,1.7,1.9c0.2,0.3,0.4,0.5,0.7,0.7
	c0.2,0.1,0.4,0.2,0.6,0.1c0.3-0.1,0.5-0.3,0.5-0.6c0-0.3,0-0.7-0.1-1l-0.8-2.5c0-0.2-0.1-0.4-0.3-0.5c-0.1-0.1-0.3-0.2-0.5-0.2
	c-0.1,0-0.3,0-0.4,0.1l-0.4,0.3c-0.1,0.1-0.3,0.2-0.4,0.2c-0.2,0-0.4-0.1-0.6-0.2c-0.3-0.1-0.7-0.2-1-0.3c-0.5-0.1-1-0.1-1.5-0.1
	c-0.9,0-1.8,0.2-2.6,0.5c-0.7,0.3-1.3,0.8-1.7,1.5c-0.4,0.6-0.6,1.4-0.6,2.1c0,0.8,0.2,1.6,0.6,2.2c0.5,0.6,1.1,1.2,1.8,1.5
	c0.9,0.4,1.8,0.7,2.7,0.9c0.6,0.1,1.1,0.3,1.7,0.5c0.5,0.2,0.9,0.4,1.2,0.8c0.3,0.3,0.4,0.7,0.4,1.1c0,0.6-0.2,1.1-0.6,1.5
	c-0.6,0.5-1.3,0.7-2,0.6c-0.6,0-1.1-0.1-1.6-0.3c-0.6-0.2-1.1-0.5-1.5-0.9c-0.5-0.4-0.9-0.9-1.3-1.5c-0.2-0.2-0.4-0.4-0.6-0.5
	c-0.2-0.1-0.5-0.1-0.7,0c-0.2,0.1-0.4,0.3-0.5,0.5c-0.1,0.3,0,0.7,0.1,1l1.1,2.4c0.1,0.2,0.2,0.5,0.4,0.6c0.1,0.1,0.3,0.2,0.5,0.2
	c0.2,0,0.3,0,0.4-0.1l0.3-0.3c0.1-0.1,0.3-0.2,0.5-0.2c0.3,0,0.5,0.1,0.7,0.2c0.3,0.1,0.6,0.2,1,0.3c0.4,0.1,0.9,0.1,1.3,0.1
	c1.4,0.1,2.9-0.3,4-1.2C454.2,20.9,454.7,19.8,454.7,18.6z M470.4,22.8c0.3-0.2,0.7-0.4,0.9-0.7c0.2-0.3,0.3-0.6,0.3-0.9
	c0-0.2,0-0.3-0.2-0.5c-0.1-0.1-0.3-0.2-0.4-0.2c-0.1,0-0.2,0-0.3,0.1c-0.1,0.1-0.2,0.2-0.3,0.2c-0.1,0.1-0.3,0.1-0.5,0.1
	c-0.2,0-0.4-0.1-0.5-0.2c-0.1-0.1-0.2-0.3-0.2-0.5v-7.8c0.1-1.1-0.4-2.2-1.2-3c-1-0.8-2.3-1.2-3.6-1.1c-1.2,0-2.4,0.2-3.5,0.6
	c-0.9,0.3-1.6,0.8-2.2,1.5c-0.5,0.5-0.7,1.2-0.8,1.9h0c0,0.4,0.1,0.7,0.4,1c0.3,0.3,0.7,0.4,1.1,0.4c0.5,0,0.9-0.1,1.3-0.4
	c0.3-0.3,0.5-0.7,0.5-1.1v-1c0-0.4,0.2-0.8,0.6-1c0.5-0.3,1.1-0.5,1.7-0.4c0.7,0,1.4,0.2,1.9,0.6c0.5,0.5,0.7,1.1,0.7,1.8v3.6
	c-0.3-0.1-0.6-0.2-0.9-0.2c-0.6-0.1-1.2-0.2-1.8-0.2c-1.6-0.1-3.1,0.3-4.5,1.2c-1,0.6-1.7,1.8-1.7,3c0,1,0.4,2,1.2,2.6
	c0.9,0.7,2,1,3.1,0.9c1.1,0,2.1-0.2,3.1-0.7c0.6-0.3,1.2-0.7,1.7-1.3c0,0.6,0.3,1.1,0.7,1.4c0.5,0.4,1.2,0.6,1.9,0.6
	C469.5,23.1,470,23,470.4,22.8z M466.2,19.8c-0.3,0.3-0.7,0.6-1.1,0.9c-0.6,0.3-1.3,0.5-2.1,0.5c-0.6,0-1.2-0.2-1.7-0.5
	c-0.5-0.4-0.7-1-0.7-1.6c0-0.7,0.3-1.3,0.8-1.7c0.7-0.5,1.5-0.7,2.3-0.6c0.5,0,1,0,1.4,0.2c0.3,0.1,0.6,0.2,1,0.3V19.8z M473.9,11.1
	h0.9c0.2,0,0.3,0.1,0.5,0.3c0.1,0.2,0.2,0.5,0.2,0.7v7.8c0,0.3,0,0.5-0.2,0.8c-0.1,0.2-0.3,0.3-0.5,0.4l-0.5,0.1
	c-0.2,0.1-0.3,0.2-0.5,0.3c-0.1,0.1-0.2,0.3-0.2,0.5c0,0.2,0.1,0.4,0.2,0.5c0.2,0.1,0.4,0.2,0.6,0.2h6.1c0.2,0,0.5-0.1,0.6-0.2
	c0.2-0.1,0.2-0.3,0.2-0.5c0-0.2-0.1-0.4-0.2-0.5c-0.2-0.2-0.4-0.3-0.6-0.3l-1.2-0.1c-0.2,0-0.5-0.1-0.6-0.3
	c-0.2-0.2-0.2-0.5-0.2-0.8v-5.2l0,0c0-0.8,0.1-1.6,0.4-2.4c0.2-0.6,0.5-1.1,1-1.5c0.4-0.3,0.8-0.5,1.3-0.5c0.3,0,0.5,0.1,0.7,0.2
	c0.2,0.2,0.3,0.5,0.3,0.7v0.5c0,0.4,0.1,0.8,0.4,1.1c0.3,0.3,0.7,0.4,1.1,0.4c0.4,0,0.9-0.2,1.2-0.5c0.3-0.4,0.5-1,0.5-1.5
	c0-0.8-0.2-1.6-0.8-2.2c-0.6-0.5-1.3-0.8-2.1-0.8c-0.8,0-1.6,0.3-2.3,0.8c-0.8,0.6-1.3,1.3-1.7,2.2c0,0,0,0.1,0,0.1l-0.1-2
	c0-0.3-0.1-0.5-0.3-0.8c-0.1-0.1-0.4-0.2-0.6-0.2c-0.2,0-0.4,0-0.5,0.1l-0.7,0.3L474,9.6c-0.2,0.1-0.4,0.2-0.6,0.3
	c-0.1,0.1-0.2,0.3-0.2,0.5c0,0.2,0.1,0.4,0.2,0.5C473.6,11,473.7,11.1,473.9,11.1z M500.9,10.6c0.3-0.2,0.6-0.4,1-0.5
	c0.2-0.1,0.4-0.2,0.5-0.4c0.1-0.1,0.1-0.3,0.1-0.4c0-0.2-0.1-0.4-0.2-0.6c-0.2-0.1-0.4-0.2-0.6-0.2h-4.3c-0.2,0-0.4,0.1-0.6,0.2
	c-0.2,0.1-0.2,0.3-0.2,0.5c0,0.2,0.1,0.4,0.2,0.5c0.1,0.1,0.3,0.2,0.5,0.3l0.7,0.2c0.3,0.1,0.6,0.3,0.7,0.6c0.1,0.4,0,0.8-0.2,1.2
	l-3.3,8.2l-3.3-8c-0.2-0.4-0.3-0.8-0.3-1.2c0-0.3,0.2-0.5,0.6-0.5l0.6-0.2c0.2-0.1,0.4-0.2,0.5-0.3c0.1-0.1,0.2-0.3,0.2-0.5
	c0-0.2-0.1-0.4-0.2-0.5c-0.2-0.1-0.4-0.2-0.6-0.2h-5.8c-0.2,0-0.5,0.1-0.6,0.2C486,8.9,486,9.1,486,9.3c0,0.2,0,0.3,0.2,0.4
	c0.1,0.1,0.3,0.3,0.5,0.3c0.3,0.1,0.7,0.2,1,0.4c0.3,0.2,0.5,0.5,0.7,0.9l5.3,12.1l-0.6,1.3h0c-0.2,0.6-0.5,1.2-0.9,1.8
	c-0.2,0.4-0.5,0.7-0.8,0.9c-0.2,0.2-0.5,0.3-0.8,0.3c-0.2,0-0.5-0.1-0.7-0.2c-0.2-0.2-0.3-0.5-0.4-0.8l-0.1-0.5
	c-0.1-0.4-0.3-0.8-0.5-1.1c0,0-0.1-0.1-0.1-0.1c-0.6-0.5-1.4-0.4-1.9,0.2c-0.3,0.4-0.4,0.8-0.4,1.3c0,0.8,0.3,1.6,0.9,2.2
	c0.7,0.6,1.6,1,2.6,0.9c0.7,0,1.3-0.2,1.9-0.5c0.6-0.4,1.2-1,1.6-1.6c0.6-1,1.1-2,1.6-3.1l5.3-12.7
	C500.4,11.3,500.6,10.9,500.9,10.6z M530.1,1.7h-5.3c-0.3,0-0.5,0.1-0.7,0.2c-0.2,0.2-0.3,0.4-0.2,0.6c0,0.2,0.1,0.5,0.2,0.6
	c0.2,0.2,0.4,0.3,0.7,0.3l0.7,0.1c0.3,0,0.6,0.2,0.8,0.4c0.2,0.2,0.3,0.5,0.3,0.8l0.5,9.1c0,0.4,0.1,0.8,0.1,1.2c0,0.4,0,0.9,0,1.6
	c0.1,0.8-0.1,1.7-0.5,2.4c-0.4,0.7-1,1.2-1.8,1.6c-0.9,0.4-1.9,0.6-2.9,0.5c-1.5,0.1-2.9-0.3-4.2-1.2c-1-0.9-1.6-2.2-1.4-3.5
	c0-0.5,0-1,0-1.6c0-0.6,0.1-1.2,0.1-1.9l0.4-8.1c0-0.3,0.1-0.6,0.3-0.8c0.2-0.2,0.5-0.4,0.8-0.4l0.7-0.1c0.2-0.1,0.5-0.2,0.7-0.3
	c0.2-0.2,0.3-0.4,0.2-0.6c0-0.2-0.1-0.5-0.2-0.6c-0.2-0.2-0.5-0.2-0.7-0.2h-6.9c-0.3,0-0.5,0.1-0.7,0.2c-0.2,0.2-0.3,0.4-0.3,0.6
	c0,0.5,0.3,0.8,0.9,1l0.7,0.1c0.3,0,0.6,0.2,0.8,0.4c0.2,0.3,0.3,0.6,0.2,0.9l-0.4,8c0,0.3-0.1,0.8-0.1,1.2l-0.1,1.5
	c0,0.5,0,0.9,0,1.2c-0.1,1.2,0.3,2.4,0.9,3.4c0.7,1,1.7,1.8,2.8,2.2c1.4,0.5,3,0.8,4.5,0.8c1.6,0,3.1-0.2,4.6-0.8
	c1.1-0.5,2.1-1.2,2.8-2.2c0.6-1,0.9-2.1,0.8-3.3c-0.1-0.5,0-1-0.1-1.5c0-0.5-0.1-1-0.1-1.5l-0.6-9c0-0.3,0.1-0.6,0.3-0.9
	c0.2-0.2,0.5-0.4,0.9-0.5l0.7-0.1c0.2-0.1,0.5-0.2,0.7-0.3c0.2-0.2,0.2-0.4,0.2-0.6c0-0.2-0.1-0.5-0.2-0.6
	C530.6,1.7,530.4,1.7,530.1,1.7z M535,3.8l0.3,0c0.2,0,0.3,0,0.5,0.2c0.1,0.2,0.1,0.3,0.1,0.5c0,0.3-0.1,0.7-0.2,0.9
	c-0.2,0.3-0.4,0.6-0.7,0.9c-0.3,0.3-0.7,0.5-1.2,0.6c-0.2,0.1-0.4,0.2-0.6,0.4c-0.1,0.1-0.1,0.3-0.1,0.5c0,0.2,0.2,0.4,0.4,0.5
	c0.2,0.1,0.5,0.1,0.8,0c0.7-0.2,1.3-0.6,1.9-1.1c0.5-0.5,1-1.1,1.2-1.8c0.3-0.7,0.4-1.5,0.4-2.3c0.1-0.9-0.2-1.7-0.7-2.4
	c-0.5-0.5-1.1-0.8-1.8-0.8c-0.6,0-1.1,0.2-1.6,0.6c-0.4,0.4-0.7,0.9-0.7,1.5c0,0.5,0.2,1,0.5,1.3C533.9,3.7,534.4,3.9,535,3.8z
	 M540.9,22.1c0.1,0.2,0.2,0.5,0.4,0.6c0.1,0.1,0.3,0.2,0.5,0.2c0.2,0,0.3,0,0.4-0.1c0.1-0.1,0.2-0.2,0.3-0.3
	c0.1-0.1,0.3-0.2,0.5-0.2c0.2,0,0.5,0.1,0.7,0.2c0.3,0.1,0.6,0.2,1,0.3c0.4,0.1,0.9,0.1,1.3,0.1c1.4,0.1,2.8-0.3,4-1.2
	c0.9-0.8,1.4-1.9,1.3-3.1c0-0.8-0.2-1.5-0.7-2.2c-0.5-0.6-1.2-1.1-1.9-1.5c-0.9-0.4-1.9-0.8-2.9-1c-0.5-0.1-1-0.3-1.5-0.5
	c-0.4-0.2-0.7-0.4-1-0.7c-0.3-0.3-0.4-0.7-0.4-1.1c0-0.5,0.2-1,0.6-1.4c0.5-0.4,1-0.6,1.6-0.5c0.9,0,1.7,0.2,2.4,0.6
	c0.7,0.5,1.3,1.1,1.7,1.9c0.2,0.3,0.4,0.5,0.7,0.7c0.2,0.1,0.4,0.2,0.6,0.1c0.3-0.1,0.5-0.3,0.5-0.6c0-0.3,0-0.7-0.1-1l-0.8-2.5
	c0-0.2-0.1-0.4-0.3-0.5c-0.1-0.1-0.3-0.2-0.5-0.2c-0.1,0-0.3,0.1-0.4,0.1c-0.1,0.1-0.2,0.2-0.4,0.3c-0.1,0.1-0.3,0.1-0.5,0.2
	c-0.2,0-0.4-0.1-0.6-0.2c-0.3-0.1-0.7-0.2-1-0.3c-0.5-0.1-1-0.1-1.5-0.1c-0.9,0-1.8,0.2-2.6,0.5c-0.7,0.3-1.3,0.8-1.7,1.5
	c-0.4,0.6-0.6,1.4-0.6,2.1c0,0.8,0.2,1.6,0.6,2.2c0.5,0.6,1.1,1.1,1.8,1.5c0.9,0.4,1.8,0.7,2.7,0.9c0.6,0.1,1.1,0.3,1.7,0.5
	c0.4,0.2,0.8,0.4,1.2,0.8c0.3,0.3,0.4,0.7,0.4,1.1c0,0.6-0.2,1.1-0.6,1.5c-0.6,0.5-1.3,0.7-2,0.6c-0.6,0-1.1-0.1-1.6-0.3
	c-0.5-0.2-1.1-0.5-1.5-0.9c-0.5-0.4-0.9-0.9-1.3-1.5c-0.2-0.2-0.4-0.4-0.6-0.5c-0.2-0.1-0.5-0.1-0.7,0c-0.2,0.1-0.4,0.3-0.5,0.5
	c-0.1,0.3,0,0.7,0.1,1L540.9,22.1z M1189.7,427.8c-1-0.6-2.1-0.9-3.2-0.9c-1.2,0-2.4,0.3-3.4,1c-0.5,0.4-1,0.8-1.5,1.2v-1.2
	c0-0.2-0.1-0.4-0.2-0.6c-0.2-0.2-0.4-0.3-0.6-0.2c-0.2,0-0.4,0-0.7,0.1c-0.3,0.1-0.5,0.2-0.8,0.3l-2.1,0.8c-0.2,0.1-0.4,0.2-0.6,0.3
	c-0.1,0.1-0.2,0.3-0.2,0.5c0,0.2,0.1,0.3,0.2,0.4c0.1,0.1,0.3,0.2,0.4,0.3h0.9c0.2,0,0.3,0.1,0.5,0.3c0.1,0.2,0.2,0.5,0.2,0.7v14.8
	c0,0.3,0,0.5-0.2,0.8c-0.1,0.2-0.3,0.3-0.5,0.4l-0.5,0.2c-0.2,0.1-0.3,0.2-0.5,0.3c-0.1,0.1-0.2,0.3-0.2,0.5c0,0.2,0.1,0.4,0.2,0.5
	c0.2,0.1,0.4,0.2,0.6,0.2h5.6c0.2,0,0.5-0.1,0.7-0.2c0.2-0.1,0.2-0.3,0.2-0.5c0-0.2-0.1-0.3-0.2-0.5c-0.1-0.1-0.3-0.2-0.5-0.3
	l-0.9-0.2c-0.2-0.1-0.4-0.2-0.5-0.3c-0.1-0.2-0.2-0.5-0.2-0.8v-5.2c0.2,0.2,0.4,0.3,0.7,0.5c1,0.6,2.1,1,3.3,0.9
	c1.2,0,2.5-0.3,3.6-0.9c1.1-0.6,2-1.6,2.5-2.7c0.7-1.3,1-2.6,0.9-4.1c0-1.3-0.2-2.5-0.8-3.7C1191.4,429.3,1190.6,428.4,1189.7,427.8
	z M1188.8,437.3c-0.3,0.8-0.8,1.4-1.5,1.9c-0.6,0.4-1.4,0.7-2.1,0.7c-0.9,0-1.7-0.3-2.4-0.8c-0.4-0.3-0.8-0.6-1.1-1v-7.5
	c0.3-0.3,0.7-0.7,1-0.9c0.7-0.5,1.5-0.7,2.4-0.7c0.8,0,1.5,0.2,2.1,0.6c0.7,0.5,1.2,1.1,1.5,1.8
	C1189.5,433.3,1189.5,435.4,1188.8,437.3z M1204.2,426.9c-0.8,0-1.6,0.3-2.3,0.8c-0.8,0.6-1.3,1.3-1.7,2.2c0,0,0,0.1,0,0.1l-0.1-2
	c0-0.3-0.1-0.5-0.2-0.7c-0.1-0.1-0.3-0.2-0.6-0.2c-0.2,0-0.4,0-0.5,0.1l-0.7,0.3l-2.3,0.8c-0.2,0.1-0.4,0.2-0.6,0.3
	c-0.1,0.1-0.2,0.3-0.2,0.5c0,0.2,0.1,0.3,0.2,0.4c0.1,0.1,0.3,0.2,0.4,0.2h0.9c0.2,0,0.4,0.1,0.5,0.3c0.1,0.2,0.2,0.4,0.2,0.7v7.8
	c0,0.3,0,0.5-0.2,0.8c-0.1,0.2-0.3,0.3-0.5,0.4l-0.5,0.2c-0.2,0.1-0.3,0.2-0.5,0.3c-0.1,0.1-0.2,0.3-0.2,0.5c0,0.2,0.1,0.4,0.2,0.5
	c0.2,0.1,0.4,0.2,0.6,0.2h6.1c0.2,0,0.5-0.1,0.6-0.2c0.2-0.1,0.2-0.3,0.2-0.5c0-0.2-0.1-0.4-0.2-0.5c-0.2-0.1-0.4-0.2-0.6-0.3
	l-1.2-0.2c-0.2,0-0.5-0.1-0.6-0.3c-0.2-0.2-0.2-0.5-0.2-0.8v-5.1l0,0c0-0.8,0.1-1.6,0.4-2.4c0.2-0.6,0.6-1.1,1-1.5
	c0.4-0.3,0.8-0.5,1.3-0.5c0.3,0,0.5,0.1,0.7,0.2c0.2,0.2,0.3,0.5,0.3,0.8v0.5c0,0.4,0.1,0.8,0.4,1c0.3,0.3,0.7,0.4,1.1,0.4
	c0.4,0,0.9-0.2,1.2-0.5c0.3-0.4,0.5-1,0.4-1.5c0-0.8-0.2-1.6-0.8-2.2C1205.7,427.1,1204.9,426.8,1204.2,426.9z M1221.6,436.5
	c-0.1,0-0.2,0-0.3,0.1c-0.1,0.1-0.3,0.2-0.4,0.4c-0.4,0.7-0.9,1.2-1.5,1.6c-0.8,0.5-1.7,0.7-2.6,0.7c-1.4,0.1-2.7-0.5-3.7-1.5
	c-0.9-1-1.4-2.3-1.4-3.7h8.2c0.5,0,1.1-0.1,1.5-0.5c0.4-0.4,0.6-0.9,0.5-1.4c0-1-0.2-1.9-0.7-2.8c-0.5-0.8-1.2-1.5-2.1-1.9
	c-1-0.5-2-0.7-3.1-0.7c-1.4,0-2.7,0.3-3.9,1c-1.1,0.6-1.9,1.6-2.5,2.7c-0.6,1.2-0.9,2.5-0.9,3.8c0,1.3,0.3,2.6,0.9,3.8
	c0.6,1.1,1.4,2,2.5,2.5c1.2,0.6,2.5,1,3.8,0.9c1.1,0,2.2-0.2,3.2-0.7c0.8-0.4,1.6-1,2.1-1.7c0.5-0.6,0.8-1.4,0.8-2.2
	c0-0.2,0-0.3-0.1-0.5C1221.8,436.6,1221.7,436.5,1221.6,436.5z M1212.2,430.9c0.3-0.7,0.8-1.3,1.4-1.7c0.6-0.4,1.3-0.6,2-0.6
	c0.9,0,1.7,0.3,2.3,0.9c0.6,0.7,0.9,1.6,0.9,2.5c0,0.6-0.4,0.9-1,0.9h-6C1211.8,432.2,1211.9,431.5,1212.2,430.9z M1237.2,436.5
	c-0.1,0-0.2,0-0.3,0.1c-0.1,0.1-0.2,0.2-0.4,0.4c-0.4,0.6-0.9,1.2-1.5,1.5c-0.8,0.5-1.7,0.7-2.6,0.7c-0.9,0-1.8-0.2-2.6-0.7
	c-0.8-0.4-1.4-1.1-1.8-1.9c-0.5-1-0.7-2-0.7-3.1c0-0.9,0.2-1.8,0.5-2.6c0.3-0.7,0.8-1.3,1.4-1.7c0.6-0.4,1.3-0.6,2-0.6
	c0.7,0,1.4,0.2,2,0.6c0.5,0.4,0.7,0.9,0.7,1.5v0.4c0,0.4,0.1,0.9,0.4,1.2c0.3,0.3,0.8,0.5,1.2,0.4c0.5,0,0.9-0.2,1.2-0.5
	c0.3-0.3,0.5-0.8,0.5-1.2c0-0.7-0.2-1.4-0.6-2c-0.5-0.7-1.2-1.2-1.9-1.5c-0.9-0.4-2-0.6-3-0.6c-1.4,0-2.7,0.3-3.9,1
	c-1.1,0.7-2,1.6-2.6,2.7c-0.6,1.2-0.9,2.5-0.9,3.9c0,1.3,0.3,2.6,0.9,3.7c0.6,1.1,1.4,1.9,2.5,2.5c1.1,0.6,2.4,0.9,3.7,0.9
	c1.1,0,2.1-0.2,3.1-0.6c0.8-0.4,1.6-0.9,2.1-1.7c0.5-0.6,0.8-1.4,0.8-2.2c0-0.2,0-0.3-0.1-0.5
	C1237.4,436.5,1237.3,436.5,1237.2,436.5z M1253.6,439.1c-0.1,0-0.2,0-0.3,0.1c-0.1,0.1-0.2,0.2-0.3,0.2c-0.1,0.1-0.3,0.1-0.4,0.1
	c-0.2,0-0.4-0.1-0.5-0.2c-0.1-0.1-0.2-0.3-0.2-0.5V431c0.1-1.1-0.4-2.2-1.2-3c-1-0.8-2.3-1.2-3.6-1.1c-1.2,0-2.4,0.2-3.5,0.6
	c-0.9,0.3-1.6,0.8-2.2,1.5c-0.5,0.5-0.7,1.2-0.8,1.9c0,0.4,0.1,0.7,0.4,1c0.3,0.3,0.7,0.4,1.1,0.4c0.5,0,0.9-0.1,1.3-0.4
	c0.3-0.3,0.5-0.7,0.5-1.1v-1c0-0.4,0.2-0.8,0.6-1c0.5-0.3,1.1-0.5,1.7-0.4c0.7,0,1.4,0.2,1.9,0.6c0.5,0.5,0.7,1.1,0.7,1.8v3.6
	c-0.3-0.1-0.6-0.2-0.9-0.2c-0.6-0.1-1.2-0.2-1.8-0.2c-1.6-0.1-3.1,0.3-4.5,1.2c-1,0.6-1.7,1.8-1.7,3c0,1,0.4,2,1.2,2.6
	c0.9,0.6,2,1,3.1,0.9c1.1,0,2.1-0.2,3.1-0.7c0.6-0.3,1.2-0.8,1.7-1.3c0,0.6,0.3,1.1,0.7,1.5c0.5,0.4,1.2,0.6,1.9,0.5
	c0.5,0,0.9-0.1,1.3-0.3c0.4-0.2,0.7-0.4,0.9-0.7c0.2-0.3,0.3-0.6,0.3-0.9c0-0.2,0-0.3-0.2-0.5
	C1253.9,439.2,1253.8,439.1,1253.6,439.1z M1248.8,438.4c-0.3,0.3-0.7,0.6-1.1,0.8c-0.6,0.3-1.3,0.5-2.1,0.5c-0.6,0-1.2-0.2-1.7-0.5
	c-0.5-0.4-0.7-1-0.7-1.6c0-0.7,0.3-1.3,0.8-1.7c0.7-0.4,1.5-0.7,2.3-0.6c0.5,0,1,0,1.4,0.1c0.3,0.1,0.6,0.2,1,0.3V438.4z
	 M1265.1,426.9c-0.8,0-1.6,0.3-2.3,0.8c-0.8,0.6-1.3,1.3-1.7,2.2c0,0,0,0.1,0,0.1l-0.1-2c0-0.3-0.1-0.5-0.2-0.7
	c-0.1-0.2-0.4-0.2-0.6-0.2c-0.2,0-0.4,0.1-0.5,0.1l-0.7,0.3l-2.3,0.8c-0.2,0.1-0.4,0.2-0.6,0.3c-0.1,0.1-0.2,0.3-0.2,0.5
	c0,0.2,0,0.3,0.2,0.4c0.1,0.1,0.3,0.2,0.4,0.2h0.9c0.2,0,0.3,0.1,0.5,0.3c0.1,0.2,0.2,0.5,0.2,0.7v7.8c0,0.3,0,0.5-0.2,0.8
	c-0.1,0.2-0.3,0.3-0.5,0.4l-0.5,0.2c-0.2,0.1-0.3,0.2-0.5,0.3c-0.1,0.1-0.2,0.3-0.2,0.5c0,0.2,0.1,0.4,0.2,0.5
	c0.2,0.1,0.4,0.2,0.6,0.2h6.1c0.2,0,0.5-0.1,0.6-0.2c0.2-0.1,0.2-0.3,0.2-0.5c0-0.2-0.1-0.4-0.2-0.5c-0.2-0.1-0.4-0.2-0.6-0.3
	l-1.2-0.2c-0.2,0-0.5-0.1-0.6-0.3c-0.2-0.2-0.2-0.5-0.2-0.8v-5.1l0,0c0-0.8,0.1-1.6,0.4-2.4c0.2-0.6,0.6-1.1,1-1.5
	c0.4-0.3,0.8-0.5,1.3-0.5c0.3,0,0.5,0.1,0.7,0.2c0.2,0.2,0.3,0.5,0.3,0.8v0.5c0,0.4,0.1,0.8,0.4,1c0.3,0.3,0.7,0.4,1.1,0.4
	c0.5,0,0.9-0.2,1.2-0.5c0.3-0.5,0.5-1,0.4-1.5c0-0.8-0.2-1.6-0.8-2.2C1266.6,427.1,1265.9,426.8,1265.1,426.9z M1276,439.8l-0.5-0.2
	c-0.2-0.1-0.4-0.2-0.5-0.3c-0.1-0.2-0.2-0.5-0.2-0.8v-10.6c0-0.2-0.1-0.4-0.2-0.6c-0.2-0.2-0.4-0.3-0.6-0.2c-0.2,0-0.4,0-0.7,0.1
	l-0.8,0.3l-2.3,0.8c-0.2,0.1-0.4,0.2-0.6,0.3c-0.1,0.1-0.2,0.3-0.2,0.5c0,0.2,0.1,0.3,0.2,0.4c0.1,0.1,0.3,0.2,0.4,0.3h0.9
	c0.2,0,0.3,0.1,0.5,0.3c0.1,0.2,0.2,0.5,0.2,0.7v7.8c0,0.3,0,0.5-0.2,0.8c-0.1,0.2-0.3,0.3-0.5,0.4l-0.5,0.2
	c-0.2,0.1-0.3,0.2-0.5,0.3c-0.1,0.1-0.2,0.3-0.2,0.5c0,0.2,0.1,0.4,0.2,0.5c0.2,0.1,0.4,0.2,0.6,0.2h5.2c0.2,0,0.5-0.1,0.7-0.2
	c0.2-0.1,0.2-0.3,0.2-0.5c0-0.2,0-0.3-0.2-0.5C1276.3,440,1276.2,439.9,1276,439.8z M1272.7,424.2c0.6,0,1.2-0.2,1.7-0.5
	c0.4-0.4,0.6-0.9,0.6-1.4c0-0.5-0.2-1.1-0.6-1.4c-0.5-0.4-1.1-0.6-1.7-0.5c-0.6,0-1.2,0.2-1.6,0.5c-0.4,0.4-0.6,0.9-0.6,1.4
	c0,0.5,0.2,1.1,0.6,1.4C1271.6,424.1,1272.2,424.3,1272.7,424.2z M1272.8,424.2C1272.7,424.2,1272.7,424.2,1272.8,424.2
	C1272.7,424.2,1272.7,424.2,1272.8,424.2L1272.8,424.2z M1290.3,427.8c-1.2-0.6-2.5-1-3.9-0.9c-1.4-0.1-2.8,0.3-4,0.9
	c-1.1,0.6-2,1.5-2.7,2.6c-0.7,1.1-1,2.4-1,3.8c0,1.4,0.3,2.7,1,3.9c0.6,1.1,1.5,2,2.6,2.6c1.2,0.7,2.5,1,3.9,1c1.4,0,2.8-0.3,4-1
	c1.1-0.6,2-1.5,2.7-2.6c0.7-1.1,1-2.4,1-3.8c0-1.3-0.3-2.7-0.9-3.8C1292.3,429.3,1291.4,428.4,1290.3,427.8z M1290.5,436.5
	c-0.1,0.8-0.5,1.6-1,2.2c-0.5,0.6-1.2,0.9-1.9,1.1c-0.8,0.1-1.5,0-2.2-0.3c-0.8-0.4-1.4-0.9-1.9-1.6c-0.6-0.9-1-1.9-1.2-2.9
	c-0.2-1-0.3-2-0.1-3c0.1-0.8,0.5-1.5,1-2.2c0.5-0.6,1.2-0.9,1.9-1.1c0.8-0.2,1.6-0.1,2.3,0.3c0.7,0.4,1.4,0.9,1.8,1.7
	c0.6,0.9,1,1.9,1.2,2.9C1290.6,434.5,1290.7,435.5,1290.5,436.5z M1311.6,439.8l-0.5-0.2c-0.2-0.1-0.4-0.2-0.5-0.3
	c-0.1-0.2-0.2-0.5-0.2-0.8v-10.6c0-0.2-0.1-0.5-0.2-0.7c-0.2-0.2-0.4-0.3-0.6-0.2c-0.2,0-0.4,0-0.7,0.1l-0.8,0.3l-2.2,0.8
	c-0.2,0.1-0.4,0.2-0.6,0.3c-0.1,0.1-0.2,0.3-0.2,0.5c0,0.2,0,0.3,0.2,0.4c0.1,0.1,0.3,0.2,0.4,0.2h1c0.2,0,0.3,0.1,0.4,0.3
	c0.1,0.2,0.2,0.4,0.2,0.7v6.8l-0.3,0.3c-0.6,0.5-1.2,0.9-1.8,1.3c-0.5,0.3-1.1,0.4-1.6,0.4c-0.7,0-1.3-0.2-1.8-0.7
	c-0.5-0.6-0.7-1.4-0.7-2.1v-8.6c0-0.2-0.1-0.5-0.2-0.7c-0.2-0.2-0.4-0.3-0.6-0.2c-0.2,0-0.4,0-0.7,0.1l-0.8,0.3l-2.3,0.8
	c-0.2,0.1-0.4,0.2-0.6,0.3c-0.1,0.1-0.2,0.3-0.2,0.5c0,0.2,0,0.3,0.2,0.4c0.1,0.1,0.3,0.2,0.4,0.2h0.9c0.2,0,0.3,0.1,0.5,0.3
	c0.1,0.2,0.2,0.5,0.2,0.7v6.6c-0.1,1.2,0.4,2.3,1.2,3.2c0.8,0.8,1.9,1.2,3,1.2c0.9,0,1.8-0.3,2.6-0.7c1-0.6,1.8-1.2,2.7-2l0.1,0.6
	l-0.1,0c0,0.1,0,0.2,0,0.3c0.1,0.8,0.8,1.5,1.7,1.4h2.4c0.2,0,0.5-0.1,0.7-0.2c0.2-0.1,0.2-0.3,0.2-0.5c0-0.2-0.1-0.3-0.2-0.5
	C1312,440,1311.8,439.9,1311.6,439.8z M1323.6,433.6c-0.9-0.4-1.9-0.8-2.9-1c-0.5-0.1-1-0.3-1.5-0.5c-0.4-0.2-0.7-0.4-1-0.7
	c-0.3-0.3-0.4-0.7-0.3-1.1c0-0.5,0.2-1,0.6-1.3c0.5-0.4,1.1-0.6,1.7-0.5c0.8,0,1.7,0.2,2.4,0.7c0.7,0.5,1.3,1.1,1.7,1.8
	c0.2,0.3,0.4,0.5,0.7,0.7c0.2,0.1,0.4,0.2,0.6,0.1c0.3-0.1,0.5-0.3,0.5-0.6c0-0.3,0-0.7-0.1-1l-0.8-2.5c0-0.2-0.1-0.4-0.3-0.5
	c-0.1-0.1-0.3-0.2-0.5-0.2c-0.1,0-0.3,0.1-0.4,0.2l-0.4,0.3c-0.1,0.1-0.3,0.2-0.4,0.2c-0.2,0-0.4-0.1-0.6-0.2
	c-0.3-0.1-0.7-0.2-1-0.3c-0.5-0.1-1-0.2-1.5-0.2c-0.9,0-1.8,0.2-2.6,0.5c-0.7,0.3-1.3,0.8-1.7,1.5c-0.8,1.3-0.8,3,0,4.3
	c0.5,0.6,1.1,1.2,1.8,1.5c0.9,0.4,1.8,0.7,2.7,0.9c0.6,0.1,1.1,0.3,1.7,0.5c0.4,0.2,0.8,0.4,1.2,0.8c0.3,0.3,0.4,0.7,0.4,1.1
	c0,0.6-0.2,1.1-0.6,1.5c-0.5,0.5-1.2,0.7-1.9,0.6c-0.6,0-1.1-0.1-1.6-0.3c-0.5-0.2-1.1-0.5-1.5-0.9c-0.5-0.4-0.9-0.9-1.3-1.5
	c-0.2-0.2-0.4-0.4-0.6-0.5c-0.2-0.1-0.5-0.1-0.8,0c-0.2,0.1-0.4,0.3-0.5,0.5c-0.1,0.3,0,0.7,0.1,1l1.1,2.4c0.1,0.2,0.2,0.5,0.4,0.6
	c0.1,0.1,0.3,0.2,0.5,0.2c0.2,0,0.3,0,0.4-0.1l0.3-0.3c0.1-0.1,0.3-0.2,0.4-0.2c0.2,0,0.5,0.1,0.7,0.1c0.2,0.1,0.6,0.2,1,0.3
	c0.4,0.1,0.9,0.1,1.3,0.1c1.4,0.1,2.8-0.3,3.9-1.2c0.9-0.8,1.4-1.9,1.3-3.1c0-0.8-0.2-1.5-0.7-2.2
	C1325,434.5,1324.4,434,1323.6,433.6z M1341.9,439.8l-0.5-0.2c-0.2-0.1-0.4-0.2-0.5-0.3c-0.1-0.2-0.2-0.5-0.2-0.8v-18.4
	c0-0.2-0.1-0.5-0.2-0.7c-0.2-0.2-0.4-0.3-0.6-0.2c-0.2,0-0.4,0-0.7,0.1l-0.8,0.3l-2.3,0.8c-0.2,0.1-0.4,0.2-0.6,0.3
	c-0.1,0.1-0.2,0.3-0.2,0.5c0,0.2,0,0.3,0.2,0.4c0.1,0.1,0.3,0.2,0.4,0.2l0.9,0c0.2,0,0.3,0.1,0.5,0.3c0.1,0.2,0.2,0.5,0.2,0.7v15.6
	c0,0.3,0,0.5-0.2,0.8c-0.1,0.2-0.3,0.3-0.5,0.4l-0.5,0.2c-0.2,0.1-0.3,0.2-0.5,0.3c-0.1,0.1-0.2,0.3-0.2,0.5c0,0.2,0.1,0.4,0.2,0.5
	c0.2,0.1,0.4,0.2,0.6,0.2h5.2c0.2,0,0.5-0.1,0.7-0.2c0.2-0.1,0.2-0.3,0.2-0.5c0-0.2,0-0.3-0.2-0.5
	C1342.2,440,1342.1,439.9,1341.9,439.8z M1357.5,436.5c-0.1,0-0.2,0-0.3,0.1c-0.1,0.1-0.2,0.2-0.3,0.4c-0.4,0.7-0.9,1.2-1.5,1.6
	c-0.8,0.5-1.7,0.7-2.6,0.7c-1.4,0.1-2.7-0.5-3.7-1.5c-0.9-1-1.4-2.3-1.4-3.7h8.3c0.5,0,1.1-0.1,1.5-0.5c0.4-0.4,0.6-0.9,0.5-1.4
	c0-1-0.2-1.9-0.8-2.8c-0.5-0.8-1.2-1.5-2.1-1.9c-1-0.5-2-0.7-3.1-0.7c-1.4,0-2.7,0.3-3.9,1c-1.1,0.6-1.9,1.6-2.5,2.7
	c-0.6,1.2-0.9,2.5-0.9,3.8c0,1.3,0.3,2.6,0.9,3.8c0.6,1.1,1.4,2,2.5,2.5c1.2,0.6,2.5,1,3.8,0.9c1.1,0,2.2-0.2,3.2-0.7
	c0.8-0.4,1.6-1,2.1-1.7c0.5-0.6,0.8-1.4,0.8-2.2c0-0.2,0-0.3-0.1-0.5C1357.8,436.6,1357.7,436.5,1357.5,436.5z M1348.2,430.9
	c0.3-0.7,0.8-1.3,1.4-1.7c0.6-0.4,1.3-0.6,2-0.6c0.9,0,1.7,0.3,2.3,0.9c0.6,0.7,0.9,1.6,0.9,2.5c0,0.6-0.3,0.9-0.9,0.9h-6.1
	C1347.7,432.2,1347.9,431.5,1348.2,430.9z M1374.3,425c-0.7,0-1.3,0.2-1.9,0.6c-0.6,0.5-1.2,1.2-1.5,1.9l0,0
	c-1.1-0.5-2.2-0.7-3.4-0.7c-1.2,0-2.4,0.2-3.5,0.7c-1,0.4-1.8,1.1-2.4,2c-0.6,0.9-0.9,1.9-0.9,3c0,1,0.3,2,0.8,2.8
	c0.6,0.9,1.4,1.6,2.3,2c0.2,0.1,0.4,0.2,0.6,0.2c-0.3,0.1-0.6,0.2-0.9,0.3c-0.4,0.2-0.7,0.5-1,0.8c-0.2,0.3-0.3,0.6-0.3,0.9
	c0,0.5,0.1,0.9,0.4,1.3c0.4,0.4,0.9,0.7,1.4,0.9c-0.9,0.2-1.8,0.6-2.7,1.1c-0.8,0.5-1.2,1.4-1.2,2.3c0,0.6,0.3,1.2,0.7,1.7
	c0.6,0.6,1.4,1,2.3,1.2c1.3,0.3,2.6,0.5,3.9,0.4c2.1,0.1,4.1-0.3,6-1.2c1.2-0.6,2-1.8,2.1-3.2c0-0.7-0.2-1.3-0.5-1.9
	c-0.5-0.6-1.1-1-1.8-1.3c-1-0.4-2.1-0.7-3.2-0.8c-1.2-0.2-2.2-0.3-2.8-0.5c-0.5-0.1-1-0.2-1.4-0.5c-0.2-0.1-0.4-0.3-0.4-0.6
	c0-0.2,0.1-0.4,0.2-0.6c0.1-0.1,0.2-0.1,0.3-0.2c0.6,0.1,1.1,0.2,1.7,0.1c1.2,0,2.3-0.2,3.4-0.7c0.9-0.4,1.7-1.1,2.3-2l0,0
	c0.6-0.9,0.9-2,0.8-3c0-1-0.3-2-0.8-2.8c-0.4-0.5-0.8-1-1.3-1.4c0.1-0.2,0.3-0.4,0.4-0.5c0.2-0.3,0.5-0.5,0.8-0.5
	c0.2,0,0.3,0.1,0.4,0.2c0.1,0.1,0.2,0.2,0.3,0.4c0.1,0.1,0.3,0.3,0.4,0.3c0.2,0.1,0.4,0.2,0.7,0.2c0.4,0,0.7-0.1,0.9-0.4
	c0.2-0.3,0.3-0.7,0.3-1.1c0-0.5-0.2-0.9-0.5-1.2C1375.2,425.1,1374.7,425,1374.3,425z M1365.7,442.3c0.8,0.2,1.6,0.3,2.3,0.4
	c0.9,0.1,1.8,0.2,2.6,0.5c0.5,0.1,1,0.4,1.3,0.7c0.3,0.2,0.4,0.6,0.4,0.9c0,0.4-0.2,0.9-0.5,1.2c-0.4,0.4-1,0.6-1.5,0.8
	c-0.8,0.2-1.7,0.3-2.6,0.3c-1.3,0.1-2.6-0.1-3.8-0.7c-0.6-0.3-1.1-1-1.1-1.7c0-0.6,0.4-1.2,0.9-1.6
	C1364.3,442.7,1365,442.4,1365.7,442.3z M1369.9,435.7c-0.6,0.7-1.5,1.1-2.4,1c-0.7,0-1.3-0.2-1.8-0.6c-0.6-0.4-1-1-1.3-1.7
	c-0.3-0.8-0.5-1.7-0.5-2.5c0-0.7,0.1-1.3,0.4-1.9c0.2-0.5,0.6-1,1.1-1.3l0,0c0.5-0.3,1.1-0.5,1.7-0.4c1,0,2,0.5,2.6,1.3
	c0.7,1,1,2.2,1,3.4C1370.8,434,1370.5,435,1369.9,435.7z M1388.2,435.1c-0.5-0.6-1.2-1.1-1.9-1.5c-0.9-0.4-1.9-0.8-2.9-1
	c-0.5-0.1-1-0.3-1.5-0.5c-0.4-0.2-0.7-0.4-1-0.7c-0.3-0.3-0.4-0.7-0.4-1.1c0-0.5,0.2-1,0.6-1.3c0.5-0.4,1.1-0.6,1.7-0.5
	c0.9,0,1.7,0.2,2.4,0.6c0.7,0.5,1.3,1.1,1.7,1.8c0.2,0.3,0.4,0.5,0.7,0.7c0.2,0.1,0.4,0.2,0.6,0.1c0.3-0.1,0.5-0.3,0.5-0.6
	c0-0.3,0-0.7-0.1-1l-0.8-2.5c0-0.2-0.1-0.4-0.3-0.5c-0.1-0.1-0.3-0.2-0.5-0.2c-0.1,0-0.3,0.1-0.4,0.2l-0.4,0.3
	c-0.1,0.1-0.3,0.2-0.4,0.2c-0.2,0-0.4-0.1-0.6-0.2c-0.3-0.1-0.7-0.2-1-0.3c-0.5-0.1-1-0.2-1.5-0.2c-0.9,0-1.8,0.2-2.6,0.5
	c-0.7,0.3-1.3,0.8-1.7,1.5c-0.4,0.6-0.6,1.4-0.6,2.1c0,0.8,0.2,1.6,0.6,2.2c0.5,0.6,1.1,1.2,1.8,1.5c0.9,0.4,1.8,0.7,2.7,0.9
	c0.6,0.1,1.1,0.3,1.7,0.5c0.4,0.2,0.8,0.4,1.2,0.8c0.3,0.3,0.4,0.7,0.4,1.1c0,0.6-0.2,1.1-0.6,1.5c-0.6,0.5-1.3,0.7-2,0.6
	c-0.6,0-1.1-0.1-1.7-0.3c-0.5-0.2-1.1-0.5-1.5-0.9c-0.5-0.4-0.9-0.9-1.3-1.5c-0.2-0.2-0.4-0.4-0.6-0.5c-0.2-0.1-0.5-0.1-0.8,0
	c-0.2,0.1-0.4,0.3-0.5,0.5c-0.1,0.3,0,0.7,0.1,1l1.1,2.4c0.1,0.2,0.2,0.5,0.4,0.6c0.1,0.1,0.3,0.2,0.5,0.2c0.2,0,0.3,0,0.4-0.1
	l0.3-0.3c0.1-0.1,0.3-0.2,0.4-0.2c0.2,0,0.5,0.1,0.7,0.1c0.2,0.1,0.6,0.2,1,0.3c0.4,0.1,0.9,0.2,1.3,0.2c1.4,0.1,2.8-0.3,3.9-1.2
	c0.9-0.8,1.4-1.9,1.3-3.1C1388.9,436.5,1388.6,435.8,1388.2,435.1z M899.9,449.3c-0.7-0.3-1.5-0.5-2.3-0.4c-1.2-0.1-2.5,0.3-3.4,1.1
	c-1.2,1-1.6,2.7-1.1,4.2c0.2,0.4,0.3,0.7,0.6,1.1l0.6,0.8c0.1,0.2,0.2,0.4,0.2,0.6h-1.8c-0.2,0-0.4,0.1-0.5,0.2
	c-0.1,0.1-0.2,0.3-0.2,0.5c0,0.2,0.1,0.4,0.3,0.5c0.2,0.2,0.5,0.3,0.8,0.4l0.5,0.2c0.3,0.1,0.5,0.2,0.7,0.4c0.1,0.2,0.2,0.4,0.2,0.7
	v8.1c0,0.3-0.1,0.6-0.2,0.8c-0.2,0.2-0.4,0.3-0.6,0.4l-0.6,0.1c-0.2,0.1-0.4,0.2-0.6,0.3c-0.1,0.1-0.2,0.3-0.2,0.5
	c0,0.2,0.1,0.4,0.2,0.5c0.2,0.1,0.4,0.2,0.6,0.2h6.7c0.6,0,0.9-0.2,0.9-0.7c0-0.2-0.1-0.4-0.2-0.5c-0.2-0.2-0.4-0.2-0.6-0.2
	l-1.4-0.2c-0.3,0-0.5-0.1-0.6-0.3c-0.2-0.2-0.2-0.5-0.2-0.8l0-9.3h2.1c0.4,0,0.9-0.1,1.3-0.3c0.2-0.2,0.4-0.4,0.4-0.7
	c0-0.2-0.1-0.4-0.2-0.5c-0.2-0.1-0.4-0.2-0.6-0.2h-3.2c0-0.2-0.1-0.5-0.2-0.7c-0.1-0.3-0.3-0.5-0.5-0.8c-0.2-0.3-0.4-0.6-0.6-0.9
	c-0.2-0.3-0.4-0.7-0.5-1c-0.1-0.4-0.2-0.7-0.2-1.1c0-0.5,0.2-1.1,0.5-1.5c0.4-0.4,0.9-0.5,1.4-0.5c0.4,0,0.8,0.1,1.1,0.4
	c0.3,0.3,0.4,0.7,0.4,1.1v0.6c0,0.4,0.1,0.9,0.4,1.2c0.3,0.3,0.7,0.4,1.1,0.4c0.4,0,0.8-0.1,1.1-0.4c0.3-0.4,0.4-0.8,0.4-1.3
	c0-0.6-0.2-1.2-0.5-1.7C901,449.9,900.5,449.5,899.9,449.3z M915.9,465.7c-0.1,0-0.2,0-0.3,0.1c-0.1,0.1-0.3,0.2-0.4,0.4
	c-0.4,0.7-0.9,1.2-1.5,1.6c-0.8,0.5-1.7,0.7-2.6,0.7c-1.4,0.1-2.7-0.5-3.7-1.5c-0.9-1-1.4-2.3-1.4-3.7h8.3c0.5,0,1.1-0.1,1.5-0.5
	c0.4-0.4,0.6-0.9,0.5-1.4c0-1-0.2-1.9-0.8-2.8c-0.5-0.8-1.2-1.5-2.1-1.9c-1-0.5-2-0.7-3.1-0.7c-1.4,0-2.7,0.3-3.9,1
	c-1.1,0.6-1.9,1.6-2.5,2.7c-0.6,1.2-0.9,2.5-0.9,3.8c0,1.3,0.3,2.6,0.9,3.8c0.6,1.1,1.4,2,2.5,2.5c1.2,0.6,2.5,1,3.8,0.9
	c1.1,0,2.2-0.2,3.2-0.7c0.8-0.4,1.6-1,2.1-1.7c0.5-0.6,0.8-1.4,0.8-2.2c0-0.2,0-0.3-0.1-0.5C916.2,465.7,916.1,465.7,915.9,465.7z
	 M906.6,460.1c0.3-0.7,0.8-1.3,1.4-1.7c0.6-0.4,1.3-0.6,2-0.6c0.9,0,1.7,0.3,2.3,0.9c0.6,0.7,0.9,1.6,0.9,2.5c0,0.6-0.3,0.8-0.9,0.8
	h-6.1C906.2,461.3,906.3,460.7,906.6,460.1z M927.8,462.8c-0.9-0.4-1.9-0.8-2.9-1c-0.5-0.1-1-0.3-1.5-0.5c-0.4-0.2-0.7-0.4-1-0.7
	c-0.3-0.3-0.4-0.7-0.4-1.1c0-0.5,0.2-1,0.6-1.3c0.5-0.4,1.1-0.6,1.7-0.5c0.9,0,1.7,0.2,2.4,0.7c0.7,0.5,1.3,1.1,1.7,1.8
	c0.2,0.3,0.4,0.5,0.7,0.7c0.2,0.1,0.4,0.2,0.6,0.1c0.3-0.1,0.5-0.3,0.5-0.6c0-0.3,0-0.7-0.1-1l-0.8-2.5c0-0.2-0.1-0.4-0.3-0.5
	c-0.1-0.1-0.3-0.2-0.5-0.2c-0.1,0-0.3,0.1-0.4,0.2l-0.4,0.3c-0.1,0.1-0.3,0.2-0.4,0.2c-0.2,0-0.4-0.1-0.6-0.2
	c-0.3-0.1-0.7-0.2-1-0.3c-0.5-0.1-1-0.2-1.5-0.2c-0.9,0-1.8,0.2-2.6,0.5c-0.7,0.3-1.3,0.8-1.7,1.5c-0.8,1.3-0.8,3,0,4.3
	c0.5,0.6,1.1,1.2,1.8,1.5c0.9,0.4,1.8,0.7,2.7,0.9c0.6,0.1,1.1,0.3,1.7,0.5c0.4,0.2,0.8,0.4,1.2,0.8c0.3,0.3,0.4,0.7,0.4,1.1
	c0,0.6-0.2,1.1-0.6,1.5c-0.6,0.5-1.3,0.7-2,0.6c-0.6,0-1.1-0.1-1.6-0.3c-0.5-0.2-1.1-0.5-1.5-0.9c-0.5-0.4-0.9-0.9-1.3-1.5
	c-0.2-0.2-0.4-0.4-0.6-0.5c-0.2-0.1-0.5-0.1-0.8-0.1c-0.2,0.1-0.4,0.3-0.5,0.5c-0.1,0.3,0,0.7,0.1,1l1.1,2.4
	c0.1,0.2,0.2,0.5,0.4,0.6c0.1,0.1,0.3,0.2,0.5,0.2c0.2,0,0.3,0,0.4-0.1l0.3-0.3c0.1-0.1,0.3-0.2,0.4-0.2c0.2,0,0.5,0.1,0.7,0.1
	c0.3,0.1,0.7,0.2,1.1,0.3c0.4,0.1,0.9,0.1,1.3,0.1c1.4,0.1,2.8-0.3,3.9-1.2c0.9-0.8,1.4-1.9,1.3-3.1c0-0.8-0.2-1.5-0.7-2.2
	C929.3,463.6,928.6,463.1,927.8,462.8z M940.2,458.1c0.4,0,0.9-0.1,1.3-0.3c0.3-0.2,0.4-0.4,0.4-0.7c0-0.2-0.1-0.4-0.2-0.5
	c-0.2-0.1-0.4-0.2-0.6-0.2h-3.3v-2.6c0-0.2-0.1-0.5-0.2-0.7c-0.2-0.2-0.4-0.2-0.6-0.2c-0.2,0-0.4,0.1-0.6,0.2
	c-0.2,0.2-0.4,0.4-0.5,0.6l-0.7,1.8c-0.1,0.3-0.2,0.5-0.5,0.7c-0.2,0.1-0.4,0.2-0.7,0.2h-0.7c-0.2,0-0.4,0.1-0.6,0.2
	c-0.1,0.1-0.2,0.3-0.2,0.5c0,0.2,0.1,0.3,0.2,0.5c0.1,0.1,0.3,0.2,0.4,0.3l0.7,0.1c0.3,0,0.5,0.2,0.7,0.4c0.2,0.2,0.2,0.5,0.2,0.8v8
	c-0.1,1,0.3,2,1,2.7c0.8,0.6,1.7,1,2.7,0.9c0.6,0,1.2-0.1,1.8-0.3c0.5-0.2,0.9-0.5,1.3-0.9c0.3-0.3,0.5-0.7,0.5-1.2
	c0.1-0.2,0-0.4-0.1-0.5c-0.1-0.1-0.2-0.2-0.4-0.2c-0.1,0-0.3,0-0.4,0.1c-0.1,0.1-0.3,0.2-0.4,0.3c-0.2,0.1-0.3,0.2-0.5,0.3
	c-0.2,0.1-0.5,0.1-0.7,0.1c-0.4,0-0.9-0.2-1.2-0.5c-0.3-0.4-0.5-0.9-0.4-1.4v-8.4L940.2,458.1z M950.4,469l-0.5-0.2
	c-0.2-0.1-0.4-0.2-0.5-0.3c-0.1-0.2-0.2-0.5-0.2-0.8v-10.6c0-0.2-0.1-0.4-0.2-0.6c-0.2-0.2-0.4-0.3-0.6-0.2c-0.2,0-0.4,0-0.7,0.1
	l-0.8,0.3l-2.3,0.8c-0.2,0.1-0.4,0.2-0.6,0.3c-0.1,0.1-0.2,0.3-0.2,0.5c0,0.2,0.1,0.3,0.2,0.4c0.1,0.1,0.3,0.2,0.4,0.3h0.9
	c0.2,0,0.3,0.1,0.5,0.3c0.1,0.2,0.2,0.5,0.2,0.7v7.8c0,0.3,0,0.5-0.2,0.8c-0.1,0.2-0.3,0.3-0.5,0.4l-0.5,0.2
	c-0.2,0.1-0.3,0.2-0.5,0.3c-0.1,0.1-0.2,0.3-0.2,0.5c0,0.2,0.1,0.4,0.2,0.5c0.2,0.1,0.4,0.2,0.6,0.2h5.2c0.2,0,0.5,0,0.7-0.2
	c0.2-0.1,0.2-0.3,0.2-0.5c0-0.2,0-0.3-0.2-0.5C950.7,469.1,950.6,469,950.4,469z M947.2,453.4L947.2,453.4c0.6,0,1.2-0.2,1.7-0.6
	c0.4-0.4,0.6-0.9,0.6-1.4c0-0.5-0.2-1.1-0.6-1.4c-0.5-0.4-1.1-0.6-1.7-0.5c-0.6,0-1.2,0.2-1.6,0.5c-0.4,0.4-0.6,0.9-0.6,1.4
	c0,0.5,0.2,1.1,0.6,1.4C946,453.3,946.6,453.5,947.2,453.4z M967.8,456.4h-4.2c-0.2,0-0.5,0.1-0.6,0.2c-0.2,0.1-0.2,0.3-0.2,0.5
	c0,0.2,0.1,0.4,0.2,0.5c0.2,0.1,0.3,0.2,0.5,0.3l0.6,0.2c0.3,0.1,0.5,0.3,0.6,0.5c0.1,0.4,0,0.8-0.1,1.1l-3.5,8.7l-3.3-8.6
	c-0.2-0.4-0.3-0.8-0.2-1.2c0-0.3,0.3-0.5,0.7-0.6l0.6-0.2c0.2-0.1,0.4-0.2,0.5-0.3c0.1-0.1,0.2-0.3,0.2-0.5c0-0.5-0.3-0.7-0.8-0.7
	H953c-0.2,0-0.5,0.1-0.6,0.2c-0.2,0.1-0.2,0.3-0.2,0.5c0,0.2,0,0.3,0.2,0.5c0.1,0.1,0.3,0.2,0.5,0.3l0.6,0.1
	c0.2,0.1,0.4,0.2,0.5,0.4c0.1,0.2,0.3,0.5,0.3,0.7l4.3,10.5c0.1,0.3,0.3,0.6,0.6,0.9c0.2,0.2,0.5,0.3,0.8,0.3h1
	c0.3,0,0.6-0.1,0.9-0.2c0.3-0.2,0.5-0.5,0.6-0.8l4.2-10.2c0.1-0.4,0.3-0.7,0.6-1.1c0.1-0.2,0.3-0.3,0.5-0.4l0.5-0.1
	c0.2-0.1,0.3-0.2,0.5-0.3c0.1-0.1,0.2-0.3,0.2-0.4c0-0.2-0.1-0.4-0.2-0.5C968.3,456.4,968,456.3,967.8,456.4z M982.9,465.7
	c-0.1,0-0.2,0-0.3,0.1c-0.1,0.1-0.2,0.2-0.3,0.4c-0.4,0.7-0.9,1.2-1.5,1.6c-0.8,0.5-1.7,0.7-2.6,0.7c-1.4,0.1-2.7-0.5-3.7-1.5
	c-0.9-1-1.4-2.3-1.4-3.7h8.3c0.5,0,1.1-0.1,1.5-0.5c0.4-0.4,0.6-0.9,0.5-1.4c0-1-0.2-1.9-0.8-2.8c-0.5-0.8-1.2-1.5-2.1-1.9
	c-1-0.5-2-0.7-3.1-0.7c-1.4,0-2.7,0.3-3.9,1c-1.1,0.6-1.9,1.6-2.5,2.7c-0.6,1.2-0.9,2.5-0.9,3.8c0,1.3,0.3,2.6,0.9,3.8
	c0.6,1.1,1.4,2,2.5,2.5c1.2,0.6,2.5,1,3.8,0.9c1.1,0,2.2-0.2,3.2-0.7c0.8-0.4,1.6-1,2.1-1.7c0.5-0.6,0.8-1.4,0.8-2.2
	c0-0.2,0-0.3-0.1-0.5C983.2,465.7,983,465.7,982.9,465.7z M973.5,460.1c0.3-0.7,0.8-1.3,1.4-1.7c0.6-0.4,1.3-0.6,2-0.6
	c0.9,0,1.7,0.3,2.3,0.9c0.6,0.7,0.9,1.6,0.9,2.5c0,0.6-0.3,0.8-0.9,0.8H973C973.1,461.3,973.3,460.7,973.5,460.1z M1006.4,454.2
	c-0.7,0-1.3,0.2-1.9,0.6c-0.6,0.5-1.2,1.2-1.5,1.9l0,0.1c-1.1-0.5-2.2-0.7-3.4-0.7c-1.2,0-2.4,0.2-3.5,0.7c-1,0.4-1.8,1.1-2.4,2
	c-0.6,0.9-0.9,1.9-0.9,3c0,1,0.3,2,0.8,2.8c0.6,0.8,1.4,1.5,2.3,2c0.2,0.1,0.4,0.1,0.5,0.2c-0.3,0.1-0.6,0.2-0.8,0.3
	c-0.4,0.2-0.7,0.5-1,0.8c-0.2,0.3-0.3,0.6-0.3,0.9c0,0.5,0.1,0.9,0.4,1.3c0.4,0.4,0.9,0.8,1.5,0.9c-1,0.2-1.9,0.6-2.7,1.1
	c-0.8,0.5-1.2,1.4-1.2,2.4c0,0.6,0.3,1.2,0.7,1.7c0.6,0.6,1.4,1,2.3,1.2c1.3,0.3,2.6,0.5,3.9,0.4c2.1,0.1,4.1-0.3,6-1.2
	c1.2-0.6,2-1.8,2.1-3.2c0-0.7-0.2-1.3-0.5-1.9c-0.5-0.6-1.1-1-1.8-1.3c-1-0.4-2.1-0.7-3.2-0.9c-1.2-0.2-2.2-0.3-2.8-0.4
	c-0.5-0.1-1-0.2-1.4-0.5c-0.2-0.1-0.4-0.4-0.4-0.6c0-0.2,0.1-0.4,0.2-0.6c0.1-0.1,0.1-0.1,0.2-0.2c0.6,0.1,1.2,0.2,1.8,0.2
	c1.2,0,2.3-0.2,3.4-0.7c0.9-0.4,1.7-1.1,2.3-2l0,0c0.6-0.9,0.8-1.9,0.8-3c0-1-0.3-2-0.8-2.8c-0.4-0.6-0.8-1-1.3-1.4
	c0.1-0.2,0.3-0.4,0.4-0.6c0.2-0.3,0.5-0.5,0.8-0.5c0.2,0,0.3,0.1,0.4,0.2c0.1,0.1,0.2,0.2,0.3,0.4c0.1,0.1,0.3,0.3,0.4,0.3
	c0.2,0.1,0.4,0.2,0.7,0.2c0.4,0,0.7-0.1,0.9-0.4c0.2-0.3,0.3-0.7,0.3-1.1c0-0.5-0.2-0.9-0.5-1.2
	C1007.4,454.3,1006.9,454.2,1006.4,454.2z M998,471.5c0.7,0.2,1.5,0.3,2.2,0.4c0.9,0.1,1.8,0.2,2.6,0.5c0.5,0.1,1,0.4,1.3,0.7
	c0.3,0.3,0.4,0.6,0.4,1c0,0.4-0.2,0.9-0.5,1.2c-0.4,0.4-1,0.6-1.5,0.8c-0.8,0.2-1.7,0.3-2.6,0.3c-1.3,0.1-2.6-0.1-3.8-0.7
	c-0.6-0.3-1-1-1.1-1.7c0-0.6,0.4-1.2,0.9-1.6C996.5,471.8,997.2,471.6,998,471.5z M1002,464.9c-0.6,0.7-1.5,1.1-2.4,1
	c-0.7,0-1.3-0.2-1.8-0.6c-0.6-0.4-1-1-1.3-1.7c-0.3-0.8-0.5-1.7-0.5-2.5c0-0.7,0.1-1.3,0.4-1.9c0.2-0.5,0.6-1,1.1-1.3l0,0
	c0.5-0.3,1.1-0.5,1.7-0.4c1,0,2,0.5,2.6,1.3c0.7,1,1,2.2,1,3.4C1002.9,463.2,1002.6,464.1,1002,464.9z M1015.7,469l-0.5-0.2
	c-0.2-0.1-0.4-0.2-0.5-0.3c-0.1-0.2-0.2-0.5-0.2-0.8v-18.4c0-0.2-0.1-0.4-0.2-0.6c-0.2-0.2-0.4-0.3-0.6-0.2c-0.2,0-0.4,0-0.7,0.1
	l-0.8,0.3l-2.3,0.8c-0.2,0.1-0.4,0.2-0.6,0.3c-0.1,0.1-0.2,0.3-0.2,0.5c0,0.2,0,0.3,0.2,0.4c0.1,0.1,0.3,0.2,0.4,0.2h0.9
	c0.2,0,0.3,0.1,0.5,0.3c0.1,0.2,0.2,0.5,0.2,0.7v15.6c0,0.3,0,0.5-0.2,0.8c-0.1,0.2-0.3,0.3-0.5,0.4l-0.5,0.2
	c-0.2,0.1-0.3,0.2-0.5,0.3c-0.1,0.1-0.2,0.3-0.2,0.5c0,0.2,0.1,0.4,0.2,0.5c0.2,0.1,0.4,0.2,0.6,0.2h5.2c0.2,0,0.5,0,0.7-0.2
	c0.2-0.1,0.2-0.3,0.2-0.5c0-0.2,0-0.3-0.2-0.5C1016.1,469.1,1015.9,469,1015.7,469z M1030.1,457c-1.2-0.6-2.5-1-3.9-0.9
	c-1.4,0-2.8,0.3-4,1c-1.1,0.6-2,1.5-2.7,2.6c-0.7,1.1-1,2.4-1,3.8c0,1.4,0.3,2.7,1,3.9c0.6,1.1,1.5,2,2.6,2.6c1.2,0.7,2.5,1,3.9,1
	c1.4,0,2.8-0.3,4-1c1.1-0.6,2-1.5,2.7-2.6c0.7-1.1,1-2.5,1-3.8c0-1.3-0.3-2.7-1-3.8C1032.1,458.5,1031.2,457.6,1030.1,457z
	 M1030.3,465.7c-0.1,0.8-0.5,1.6-1,2.2c-0.5,0.6-1.2,0.9-1.9,1.1c-0.8,0.1-1.5,0-2.2-0.3c-0.8-0.4-1.4-0.9-1.9-1.6
	c-0.6-0.9-1-1.9-1.2-2.9c-0.2-1-0.3-2-0.1-3c0.1-0.8,0.5-1.5,1-2.2c0.5-0.6,1.2-0.9,1.9-1.1c0.8-0.2,1.6-0.1,2.3,0.3
	c0.7,0.4,1.4,0.9,1.8,1.7c0.6,0.9,1,1.9,1.2,2.9C1030.4,463.7,1030.4,464.7,1030.3,465.7z M1048.5,457c-1-0.6-2.1-0.9-3.2-0.9
	c-1.2,0-2.4,0.3-3.4,1c-0.5,0.3-0.9,0.7-1.3,1.1v-9c0-0.2-0.1-0.4-0.2-0.6c-0.2-0.2-0.4-0.3-0.6-0.2c-0.2,0-0.4,0-0.7,0.1l-0.8,0.3
	l-2.3,0.8c-0.2,0.1-0.4,0.2-0.6,0.3c-0.1,0.1-0.2,0.3-0.2,0.5c0,0.2,0.1,0.3,0.2,0.4c0.1,0.1,0.3,0.2,0.4,0.2h0.9
	c0.2,0,0.4,0.1,0.5,0.3c0.1,0.2,0.2,0.4,0.2,0.7v17.9c0,0.2,0,0.4,0.2,0.6c0.1,0.1,0.3,0.2,0.5,0.2c0.2,0,0.5,0,0.7-0.2
	c0.2-0.1,0.5-0.2,0.7-0.3l0.8-0.9c0.3,0.3,0.6,0.5,0.9,0.7c1,0.6,2.1,0.9,3.2,0.9c1.2,0,2.5-0.3,3.6-0.9c1.1-0.6,1.9-1.6,2.5-2.7
	c0.7-1.2,1-2.6,1-4.1c0-1.3-0.3-2.5-0.8-3.7C1050.2,458.5,1049.4,457.7,1048.5,457z M1047.5,466.5c-0.3,0.8-0.8,1.4-1.5,1.9
	c-0.6,0.4-1.4,0.7-2.1,0.7c-0.8,0-1.7-0.3-2.4-0.8c-0.4-0.3-0.7-0.6-1-0.9v-7.6c0.3-0.3,0.6-0.6,1-0.9c0.7-0.5,1.5-0.8,2.4-0.8
	c0.8,0,1.5,0.2,2.2,0.6c0.7,0.5,1.2,1.1,1.5,1.8c0.4,0.9,0.6,1.9,0.5,2.9C1048.1,464.6,1047.9,465.6,1047.5,466.5z M1069.2,469
	l-0.5-0.2c-0.2-0.1-0.4-0.2-0.5-0.3c-0.1-0.2-0.2-0.5-0.2-0.8v-10.6c0-0.2-0.1-0.5-0.2-0.7c-0.2-0.2-0.4-0.3-0.6-0.2
	c-0.2,0-0.4,0-0.6,0.1l-0.8,0.3l-2.2,0.8c-0.2,0.1-0.4,0.2-0.6,0.3c-0.1,0.1-0.2,0.3-0.2,0.5c0,0.2,0.1,0.3,0.2,0.4
	c0.1,0.1,0.3,0.2,0.4,0.2h0.9c0.2,0,0.3,0.1,0.4,0.3c0.1,0.2,0.2,0.4,0.2,0.7v6.8l-0.3,0.3c-0.6,0.5-1.2,0.9-1.8,1.3
	c-0.5,0.3-1.1,0.4-1.6,0.4c-0.7,0-1.3-0.2-1.8-0.7c-0.5-0.6-0.7-1.4-0.7-2.1v-8.6c0-0.2-0.1-0.5-0.2-0.7c-0.2-0.2-0.4-0.3-0.6-0.2
	c-0.2,0-0.4,0-0.7,0.1l-0.8,0.3l-2.3,0.8c-0.2,0.1-0.4,0.2-0.6,0.3c-0.1,0.1-0.2,0.3-0.2,0.5c0,0.2,0.1,0.3,0.2,0.4
	c0.1,0.1,0.3,0.2,0.4,0.2h0.9c0.2,0,0.4,0.1,0.5,0.3c0.1,0.2,0.2,0.4,0.2,0.7v6.6c-0.1,1.2,0.4,2.3,1.2,3.2c0.8,0.8,1.9,1.2,3,1.2
	c0.9,0,1.8-0.3,2.6-0.7c1-0.6,1.8-1.2,2.7-2l0.1,0.6h0c-0.1,0.5,0.1,1,0.4,1.3c0.3,0.3,0.8,0.4,1.2,0.4h2.4c0.2,0,0.5-0.1,0.7-0.2
	c0.3-0.3,0.3-0.7,0.1-1C1069.6,469.2,1069.4,469.1,1069.2,469z M1078.6,469l-0.5-0.2c-0.2-0.1-0.4-0.2-0.5-0.3
	c-0.1-0.2-0.2-0.5-0.2-0.8v-18.4c0-0.2-0.1-0.4-0.2-0.6c-0.2-0.2-0.4-0.3-0.6-0.2c-0.2,0-0.4,0-0.7,0.1l-0.8,0.3l-2.3,0.8
	c-0.2,0.1-0.4,0.2-0.6,0.3c-0.1,0.1-0.2,0.3-0.2,0.5c0,0.2,0.1,0.3,0.2,0.4c0.1,0.1,0.3,0.2,0.4,0.2h0.9c0.2,0,0.4,0.1,0.5,0.3
	c0.1,0.2,0.2,0.4,0.2,0.7v15.6c0,0.3,0,0.5-0.2,0.8c-0.1,0.2-0.3,0.3-0.5,0.4l-0.5,0.2c-0.2,0.1-0.3,0.2-0.5,0.3
	c-0.1,0.1-0.2,0.3-0.2,0.5c0,0.2,0.1,0.4,0.2,0.5c0.2,0.1,0.4,0.2,0.6,0.2h5.2c0.2,0,0.5,0,0.6-0.2c0.2-0.1,0.2-0.3,0.2-0.5
	c0-0.2-0.1-0.3-0.2-0.5C1078.9,469.1,1078.8,469,1078.6,469z M1094.3,465.7c-0.1,0-0.2,0-0.3,0.1c-0.1,0.1-0.3,0.2-0.4,0.4
	c-0.4,0.7-0.9,1.2-1.5,1.6c-0.8,0.5-1.7,0.7-2.6,0.7c-1.4,0.1-2.7-0.5-3.7-1.5c-0.9-1-1.4-2.3-1.4-3.7h8.2c0.5,0,1.1-0.1,1.5-0.5
	c0.4-0.4,0.6-0.9,0.5-1.4c0-1-0.3-1.9-0.8-2.7c-0.5-0.8-1.2-1.5-2.1-1.9c-1-0.5-2-0.7-3.1-0.7c-1.4,0-2.7,0.3-3.9,1
	c-1.1,0.6-1.9,1.6-2.5,2.7c-0.6,1.2-0.9,2.5-0.9,3.8c0,1.3,0.3,2.6,0.9,3.8c0.6,1.1,1.5,1.9,2.6,2.5c1.2,0.6,2.5,1,3.8,0.9
	c1.1,0,2.2-0.2,3.2-0.7c0.8-0.4,1.6-1,2.1-1.7c0.5-0.6,0.8-1.4,0.8-2.2c0-0.2,0-0.3-0.1-0.5C1094.5,465.7,1094.4,465.7,1094.3,465.7
	z M1084.9,460.1c0.3-0.7,0.8-1.3,1.4-1.7c0.6-0.4,1.3-0.6,2-0.6c0.9,0,1.7,0.3,2.3,0.9c0.6,0.7,0.9,1.6,0.9,2.5c0,0.6-0.4,0.8-1,0.8
	h-6C1084.5,461.3,1084.6,460.7,1084.9,460.1z M1106.1,462.8c-0.9-0.4-1.9-0.8-2.9-1c-0.5-0.1-1-0.3-1.5-0.5c-0.4-0.2-0.7-0.4-1-0.7
	c-0.3-0.3-0.4-0.7-0.4-1.1c0-0.5,0.2-1,0.6-1.3c0.5-0.4,1.1-0.6,1.7-0.5c0.9,0,1.7,0.2,2.5,0.7c0.7,0.5,1.3,1.1,1.7,1.8
	c0.2,0.3,0.4,0.5,0.7,0.7c0.2,0.1,0.4,0.2,0.6,0.1c0.3-0.1,0.5-0.3,0.5-0.6c0-0.3,0-0.7-0.1-1l-0.8-2.5c0-0.2-0.1-0.4-0.3-0.5
	c-0.1-0.1-0.3-0.2-0.5-0.2c-0.1,0-0.3,0.1-0.4,0.2l-0.4,0.3c-0.1,0.1-0.3,0.2-0.4,0.2c-0.2,0-0.4-0.1-0.6-0.2
	c-0.3-0.1-0.7-0.2-1-0.3c-0.5-0.1-1-0.2-1.5-0.2c-0.9,0-1.8,0.2-2.6,0.5c-0.7,0.3-1.3,0.8-1.7,1.5c-0.8,1.3-0.8,3,0,4.3
	c0.5,0.6,1.1,1.2,1.8,1.5c0.9,0.4,1.8,0.7,2.7,0.9c0.6,0.1,1.1,0.3,1.7,0.5c0.4,0.2,0.8,0.4,1.2,0.8c0.3,0.3,0.4,0.7,0.4,1.1
	c0,0.6-0.2,1.1-0.6,1.5c-0.5,0.5-1.2,0.7-1.9,0.6c-0.6,0-1.1-0.1-1.6-0.3c-0.5-0.2-1.1-0.5-1.5-0.9c-0.5-0.4-0.9-0.9-1.3-1.5
	c-0.2-0.2-0.4-0.4-0.6-0.5c-0.2-0.1-0.5-0.1-0.8-0.1c-0.2,0.1-0.4,0.3-0.5,0.5c-0.1,0.3,0,0.7,0.1,1l1.1,2.4
	c0.1,0.2,0.2,0.5,0.4,0.6c0.1,0.1,0.3,0.2,0.5,0.2c0.2,0,0.3,0,0.4-0.1l0.3-0.3c0.1-0.1,0.3-0.2,0.4-0.2c0.2,0,0.5,0.1,0.7,0.1
	c0.2,0.1,0.6,0.2,1,0.3c0.4,0.1,0.9,0.1,1.3,0.1c1.4,0.1,2.8-0.3,3.9-1.2c0.9-0.8,1.4-1.9,1.3-3.1c0-0.8-0.2-1.5-0.7-2.2
	C1107.5,463.6,1106.9,463.1,1106.1,462.8z M324.7,398c-0.8,0-1.6,0.3-2.3,0.8c-0.8,0.6-1.3,1.3-1.7,2.2c0,0,0,0.1,0,0.1l-0.1-2
	c0-0.3-0.1-0.5-0.2-0.8c-0.2-0.1-0.4-0.2-0.6-0.2c-0.2,0-0.4,0-0.5,0.1l-0.7,0.2l-2.3,0.8c-0.2,0.1-0.4,0.2-0.6,0.3
	c-0.1,0.1-0.2,0.3-0.2,0.5c0,0.2,0.1,0.3,0.2,0.4c0.1,0.1,0.3,0.2,0.4,0.2l0.9,0c0.2,0,0.3,0.1,0.5,0.3c0.1,0.2,0.2,0.5,0.2,0.7v7.8
	c0,0.3,0,0.5-0.2,0.8c-0.1,0.2-0.3,0.3-0.5,0.4l-0.5,0.2c-0.2,0.1-0.3,0.2-0.5,0.3c-0.1,0.1-0.2,0.3-0.2,0.5c0,0.2,0.1,0.4,0.2,0.5
	c0.2,0.1,0.4,0.2,0.6,0.2h6.1c0.2,0,0.5-0.1,0.6-0.2c0.2-0.1,0.2-0.3,0.2-0.5c0-0.2-0.1-0.4-0.2-0.5c-0.2-0.2-0.4-0.2-0.6-0.3
	l-1.2-0.2c-0.2,0-0.5-0.2-0.6-0.3c-0.2-0.2-0.2-0.5-0.2-0.8v-5.1l0,0c0-0.8,0.1-1.6,0.4-2.4c0.2-0.6,0.5-1.1,1-1.5
	c0.4-0.3,0.8-0.5,1.3-0.5c0.3,0,0.5,0.1,0.7,0.2c0.2,0.2,0.3,0.5,0.3,0.7v0.5c0,0.4,0.1,0.8,0.4,1.1c0.3,0.3,0.7,0.4,1.1,0.4
	c0.4,0,0.9-0.2,1.2-0.5c0.3-0.4,0.5-1,0.5-1.5c0-0.8-0.2-1.6-0.8-2.2C326.2,398.3,325.5,398,324.7,398z M343.1,410.3
	c-0.1,0-0.2,0-0.3,0.1c-0.1,0.1-0.2,0.2-0.3,0.2c-0.1,0.1-0.3,0.1-0.5,0.1c-0.2,0-0.4-0.1-0.5-0.2c-0.1-0.1-0.2-0.3-0.2-0.5v-7.8
	c0.1-1.1-0.4-2.2-1.2-3c-1-0.8-2.3-1.2-3.6-1.1c-1.2,0-2.4,0.2-3.5,0.6c-0.8,0.3-1.6,0.8-2.2,1.5c-0.5,0.5-0.7,1.2-0.8,1.9l0,0
	c0,0.4,0.1,0.7,0.4,1c0.3,0.3,0.7,0.4,1.1,0.4c0.5,0,1-0.1,1.3-0.4c0.3-0.3,0.5-0.7,0.5-1.1v-1c0-0.4,0.2-0.8,0.6-1
	c0.5-0.3,1.1-0.5,1.7-0.4c0.7,0,1.4,0.2,1.9,0.6c0.5,0.5,0.7,1.1,0.7,1.8v3.6c-0.3-0.1-0.6-0.2-0.9-0.2c-0.6-0.1-1.2-0.2-1.8-0.2
	c-1.6-0.1-3.1,0.3-4.5,1.2c-1,0.6-1.7,1.8-1.7,3c0,1,0.4,2,1.2,2.6c0.9,0.7,2,1,3.1,0.9c1.1,0,2.1-0.2,3.1-0.7
	c0.6-0.3,1.2-0.7,1.7-1.3c0,0.6,0.3,1.1,0.7,1.5c0.5,0.4,1.2,0.6,1.9,0.5c0.5,0,0.9-0.1,1.3-0.3c0.4-0.2,0.7-0.4,0.9-0.7
	c0.2-0.3,0.3-0.6,0.3-0.9c0-0.2,0-0.3-0.2-0.5C343.4,410.3,343.3,410.3,343.1,410.3z M338.3,409.6c-0.3,0.3-0.7,0.6-1.1,0.8
	c-0.6,0.3-1.3,0.5-2.1,0.5c-0.6,0-1.2-0.2-1.7-0.5c-0.5-0.4-0.7-1-0.7-1.6c0-0.7,0.3-1.3,0.9-1.7c0.7-0.4,1.5-0.7,2.3-0.6
	c0.5,0,1,0,1.4,0.1c0.3,0.1,0.6,0.2,1,0.3V409.6z M360.8,410.9l-0.5-0.2c-0.2-0.1-0.4-0.2-0.5-0.4c-0.1-0.2-0.2-0.5-0.2-0.8v-10.6
	c0-0.2-0.1-0.5-0.2-0.7c-0.2-0.2-0.4-0.3-0.6-0.2c-0.2,0-0.4,0-0.7,0.1c-0.2,0.1-0.5,0.2-0.8,0.3l-2.2,0.8c-0.2,0.1-0.4,0.2-0.6,0.3
	c-0.1,0.1-0.2,0.3-0.2,0.5c0,0.2,0,0.3,0.2,0.4c0.1,0.1,0.3,0.2,0.4,0.2l1,0c0.2,0,0.3,0.1,0.5,0.3c0.1,0.2,0.2,0.5,0.2,0.7v6.8
	l-0.2,0.2c-0.6,0.5-1.2,0.9-1.9,1.3c-0.5,0.3-1.1,0.4-1.6,0.4c-0.7,0-1.3-0.2-1.8-0.7c-0.5-0.6-0.7-1.4-0.7-2.1v-8.6
	c0-0.2-0.1-0.5-0.2-0.7c-0.2-0.2-0.4-0.3-0.6-0.2c-0.2,0-0.4,0-0.7,0.1c-0.2,0.1-0.5,0.2-0.8,0.3l-2.3,0.8c-0.2,0.1-0.4,0.2-0.6,0.3
	c-0.1,0.1-0.2,0.3-0.2,0.5c0,0.2,0,0.3,0.2,0.4c0.1,0.1,0.3,0.2,0.4,0.2l0.9,0c0.2,0,0.3,0.1,0.5,0.3c0.1,0.2,0.2,0.5,0.2,0.7v6.6
	c-0.1,1.2,0.4,2.3,1.2,3.2c0.8,0.8,1.9,1.2,3,1.2c0.9,0,1.8-0.3,2.6-0.8c1-0.5,1.9-1.2,2.7-2l0.1,0.6c0,0.5,0.1,0.9,0.4,1.3
	c0.3,0.3,0.8,0.5,1.2,0.4h2.3c0.2,0,0.5-0.1,0.7-0.2c0.3-0.3,0.3-0.7,0.1-1C361.2,411.1,361,411,360.8,410.9z M376.6,407.7
	c-0.1,0-0.2,0-0.3,0.1c-0.1,0.1-0.3,0.2-0.4,0.4c-0.4,0.6-0.9,1.1-1.5,1.5c-0.8,0.5-1.7,0.7-2.5,0.7c-0.9,0-1.8-0.2-2.6-0.7
	c-0.8-0.5-1.4-1.1-1.8-1.9c-0.5-1-0.7-2-0.7-3.1c0-0.9,0.2-1.8,0.5-2.6c0.3-0.7,0.8-1.3,1.4-1.7c0.6-0.4,1.3-0.6,2-0.6
	c0.7,0,1.4,0.2,2,0.6c0.5,0.3,0.7,0.9,0.7,1.5v0.4c0,0.4,0.1,0.8,0.4,1.2c0.3,0.3,0.8,0.5,1.2,0.4c0.5,0,0.9-0.2,1.2-0.5
	c0.3-0.3,0.5-0.8,0.5-1.2c0-0.7-0.2-1.4-0.7-2c-0.5-0.6-1.2-1.2-1.9-1.5c-0.9-0.4-2-0.6-3-0.6c-1.4,0-2.7,0.3-3.9,1
	c-1.1,0.7-2,1.6-2.6,2.7c-0.6,1.2-0.9,2.5-0.9,3.9c0,1.3,0.3,2.6,0.9,3.7c0.6,1.1,1.5,1.9,2.5,2.5c1.1,0.6,2.4,0.9,3.7,0.9
	c1.1,0,2.1-0.2,3.1-0.6c0.8-0.4,1.6-0.9,2.1-1.7c0.5-0.6,0.8-1.4,0.8-2.2c0-0.2,0-0.3-0.1-0.5C376.9,407.7,376.7,407.6,376.6,407.7z
	 M390.7,399c-1.2-0.6-2.5-1-3.9-0.9c-1.4,0-2.7,0.3-3.9,0.9c-1.1,0.6-2,1.5-2.7,2.6c-0.7,1.1-1,2.4-1,3.8c0,1.3,0.3,2.7,0.9,3.9
	c0.6,1.1,1.5,2,2.6,2.6c2.5,1.3,5.4,1.3,7.9,0c1.1-0.6,2-1.5,2.7-2.6c0.7-1.1,1-2.5,1-3.8c0-1.3-0.3-2.7-1-3.8
	C392.7,400.5,391.8,399.6,390.7,399z M390.9,407.7c-0.1,0.8-0.5,1.6-1,2.2c-0.5,0.6-1.2,0.9-1.9,1.1h0c-0.8,0.1-1.6,0-2.3-0.3
	c-0.8-0.4-1.4-0.9-1.9-1.6c-0.6-0.9-1-1.9-1.2-2.9c-0.2-1-0.3-2-0.1-3c0.1-0.8,0.5-1.6,1-2.2c0.5-0.6,1.2-0.9,1.9-1.1
	c0.8-0.2,1.6-0.1,2.3,0.3c0.7,0.4,1.4,0.9,1.8,1.7c0.6,0.9,1,1.9,1.2,2.9C391,405.7,391,406.7,390.9,407.7z M412.1,410.9l-0.5-0.2
	c-0.2-0.1-0.4-0.2-0.5-0.4c-0.1-0.2-0.2-0.5-0.2-0.8v-10.6c0-0.2-0.1-0.5-0.2-0.7c-0.2-0.2-0.4-0.3-0.6-0.2c-0.2,0-0.4,0-0.6,0.1
	c-0.2,0.1-0.5,0.2-0.8,0.3l-2.2,0.8c-0.2,0.1-0.4,0.2-0.6,0.3c-0.1,0.1-0.2,0.3-0.2,0.5c0,0.2,0.1,0.3,0.2,0.4
	c0.1,0.1,0.3,0.2,0.4,0.2l0.9,0c0.2,0,0.3,0.1,0.5,0.3c0.1,0.2,0.2,0.5,0.2,0.7v6.8l-0.3,0.2c-0.6,0.5-1.2,0.9-1.8,1.3
	c-0.5,0.3-1.1,0.4-1.6,0.4c-0.7,0-1.3-0.2-1.8-0.7c-0.5-0.6-0.7-1.4-0.7-2.1v-8.6c0-0.2-0.1-0.5-0.2-0.7c-0.2-0.2-0.4-0.3-0.6-0.2
	c-0.2,0-0.4,0-0.7,0.1c-0.2,0.1-0.5,0.2-0.8,0.3l-2.3,0.8c-0.2,0.1-0.4,0.2-0.6,0.3c-0.1,0.1-0.2,0.3-0.2,0.5c0,0.2,0.1,0.3,0.2,0.4
	c0.1,0.1,0.3,0.2,0.4,0.2l0.9,0c0.2,0,0.3,0.1,0.5,0.3c0.1,0.2,0.2,0.5,0.2,0.7v6.6c-0.1,1.2,0.4,2.3,1.2,3.2c0.8,0.8,1.9,1.2,3,1.2
	c0.9,0,1.8-0.3,2.6-0.8c1-0.6,1.8-1.2,2.7-2l0.1,0.6c0,0.5,0.1,0.9,0.4,1.3c0.3,0.3,0.8,0.5,1.2,0.4h2.4c0.2,0,0.5-0.1,0.7-0.2
	c0.2-0.1,0.2-0.3,0.2-0.5c0-0.2-0.1-0.3-0.2-0.5C412.4,411.1,412.2,411,412.1,410.9z M424,404.8c-0.9-0.4-1.9-0.8-2.9-1
	c-0.5-0.1-1-0.3-1.5-0.5c-0.4-0.2-0.7-0.4-1-0.7c-0.3-0.3-0.4-0.7-0.4-1.1c0-0.5,0.2-1,0.6-1.3c0.5-0.4,1.1-0.6,1.7-0.5
	c0.8,0,1.6,0.2,2.3,0.6c0.7,0.5,1.3,1.1,1.7,1.8c0.2,0.3,0.4,0.5,0.7,0.7c0.2,0.1,0.4,0.2,0.6,0.1c0.3-0.1,0.5-0.3,0.5-0.6
	c0-0.3,0-0.7-0.1-1l-0.8-2.5c0-0.2-0.1-0.4-0.3-0.5c-0.1-0.1-0.3-0.2-0.5-0.2c-0.1,0-0.3,0-0.4,0.1c-0.1,0.1-0.2,0.2-0.4,0.3
	c-0.1,0.1-0.3,0.2-0.4,0.2c-0.2,0-0.4-0.1-0.6-0.2c-0.3-0.1-0.7-0.2-1-0.3c-0.5-0.1-1-0.1-1.5-0.1c-0.9,0-1.8,0.2-2.6,0.5
	c-0.7,0.3-1.3,0.8-1.7,1.5c-0.4,0.6-0.6,1.4-0.6,2.1c0,0.8,0.2,1.6,0.6,2.2c0.5,0.6,1.1,1.2,1.8,1.5c0.9,0.4,1.8,0.7,2.7,0.9
	c0.6,0.1,1.1,0.3,1.7,0.5c0.4,0.2,0.8,0.4,1.2,0.8c0.3,0.3,0.4,0.7,0.4,1.1c0,0.6-0.2,1.1-0.6,1.5c-0.6,0.5-1.3,0.7-2,0.6
	c-0.6,0-1.1-0.1-1.6-0.3c-0.6-0.2-1.1-0.5-1.5-0.9c-0.5-0.4-0.9-0.9-1.3-1.5c-0.2-0.2-0.4-0.4-0.6-0.5c-0.2-0.1-0.5-0.1-0.7,0
	c-0.2,0.1-0.4,0.3-0.5,0.5c-0.1,0.3,0,0.7,0.1,1l1.1,2.4c0.1,0.2,0.2,0.5,0.4,0.6c0.1,0.1,0.3,0.2,0.5,0.2c0.2,0,0.3,0,0.4-0.2
	l0.3-0.3c0.1-0.1,0.3-0.2,0.5-0.2c0.3,0,0.5,0.1,0.7,0.1c0.3,0.1,0.6,0.2,1,0.3c0.4,0.1,0.9,0.2,1.3,0.2c1.4,0.1,2.9-0.3,4-1.2
	c0.9-0.8,1.4-1.9,1.3-3.1c0-0.8-0.2-1.5-0.7-2.2C425.4,405.6,424.8,405.1,424,404.8z M448.6,407.7c-0.1,0-0.2,0-0.3,0.1l-0.4,0.4
	c-0.4,0.6-0.9,1.1-1.5,1.5c-0.8,0.5-1.7,0.7-2.5,0.7c-0.9,0-1.8-0.2-2.6-0.7c-0.8-0.5-1.4-1.1-1.8-1.9c-0.5-1-0.7-2-0.7-3.1
	c0-0.9,0.2-1.8,0.5-2.6c0.3-0.7,0.8-1.3,1.4-1.7c0.6-0.4,1.3-0.6,2.1-0.6c0.7,0,1.4,0.2,2,0.6c0.5,0.4,0.7,0.9,0.7,1.5v0.4
	c0,0.4,0.1,0.9,0.4,1.2c0.3,0.3,0.8,0.5,1.2,0.4c0.5,0,0.9-0.2,1.2-0.5c0.3-0.3,0.5-0.8,0.5-1.2c0-0.7-0.2-1.4-0.7-2
	c-0.5-0.7-1.2-1.2-2-1.5c-0.9-0.4-2-0.6-3-0.6c-1.4,0-2.7,0.3-3.9,1c-1.1,0.7-2,1.6-2.6,2.7c-0.6,1.2-0.9,2.5-0.9,3.9
	c0,1.3,0.3,2.6,0.9,3.7c0.6,1.1,1.4,1.9,2.5,2.5c1.1,0.6,2.4,0.9,3.7,0.9c1.1,0,2.1-0.2,3.1-0.6c0.8-0.4,1.6-0.9,2.1-1.7
	c0.5-0.6,0.8-1.4,0.8-2.2c0-0.2,0-0.3-0.1-0.5C448.9,407.7,448.7,407.6,448.6,407.7z M462.7,399c-1.2-0.6-2.5-1-3.9-0.9
	c-1.4,0-2.7,0.3-3.9,1c-1.1,0.6-2,1.5-2.7,2.6c-0.7,1.1-1,2.4-1,3.8c0,1.3,0.3,2.6,0.9,3.8c0.6,1.1,1.5,2,2.6,2.6
	c2.5,1.3,5.4,1.3,7.8,0c1.1-0.6,2-1.5,2.7-2.6c0.7-1.1,1-2.5,1-3.8c0-1.3-0.3-2.7-1-3.8C464.7,400.5,463.8,399.6,462.7,399z
	 M462.9,407.7c-0.1,0.8-0.5,1.6-1,2.2c-0.5,0.6-1.2,0.9-1.9,1.1h0c-0.8,0.1-1.6,0-2.3-0.3c-0.8-0.4-1.4-0.9-1.9-1.6
	c-0.6-0.9-1-1.9-1.2-2.9c-0.2-1-0.3-2-0.1-3c0.1-0.8,0.5-1.6,1-2.2c0.5-0.6,1.2-0.9,1.9-1.1c0.8-0.2,1.6-0.1,2.3,0.3
	c0.7,0.4,1.4,0.9,1.8,1.7c0.6,0.9,1,1.9,1.2,2.9C463.1,405.7,463.1,406.7,462.9,407.7z M494,411l-0.5-0.2c-0.2-0.1-0.4-0.2-0.5-0.4
	c-0.1-0.2-0.2-0.5-0.2-0.8v-7.3c0-1.2-0.4-2.3-1.2-3.2c-0.8-0.8-1.9-1.2-3-1.2c-0.9,0-1.8,0.3-2.7,0.8c-1,0.6-2,1.3-2.8,2.2
	c-0.2-0.7-0.5-1.3-1-1.8c-0.8-0.8-1.9-1.2-3-1.2c-0.9,0-1.8,0.3-2.7,0.7c-0.9,0.5-1.8,1.2-2.6,1.9v-1.6c0-0.2-0.1-0.4-0.2-0.6
	c-0.2-0.2-0.4-0.3-0.6-0.2c-0.2,0-0.4,0-0.7,0.1c-0.3,0.1-0.5,0.2-0.8,0.3l-2.2,0.8c-0.2,0.1-0.4,0.2-0.6,0.3
	c-0.1,0.1-0.2,0.3-0.2,0.5c0,0.2,0.1,0.3,0.2,0.4c0.1,0.1,0.3,0.2,0.4,0.3h0.9c0.2,0,0.3,0.1,0.5,0.3c0.1,0.2,0.2,0.5,0.2,0.7v7.8
	c0,0.3,0,0.5-0.2,0.8c-0.1,0.2-0.3,0.3-0.5,0.4l-0.5,0.2c-0.2,0.1-0.3,0.2-0.5,0.3c-0.1,0.1-0.2,0.3-0.2,0.5c0,0.2,0.1,0.4,0.2,0.5
	c0.2,0.1,0.4,0.2,0.6,0.2h5.2c0.5,0,0.8-0.2,0.8-0.7c0-0.3-0.2-0.6-0.6-0.7l-0.6-0.2c-0.2-0.1-0.4-0.2-0.5-0.4
	c-0.1-0.3-0.2-0.5-0.2-0.8v-7.4l0.2-0.2c0.6-0.5,1.2-1,1.9-1.3c0.5-0.3,1.1-0.4,1.7-0.4c0.7,0,1.4,0.2,1.9,0.7
	c0.5,0.6,0.8,1.4,0.7,2.2v6.5c0,0.3,0,0.6-0.2,0.8c-0.1,0.2-0.3,0.3-0.5,0.4L479,411c-0.4,0.2-0.6,0.4-0.6,0.7
	c0,0.5,0.3,0.7,0.8,0.7h5.1c0.5,0,0.8-0.2,0.8-0.7c0-0.3-0.2-0.6-0.6-0.7l-0.5-0.2c-0.2-0.1-0.4-0.2-0.5-0.4
	c-0.1-0.3-0.2-0.5-0.2-0.8v-7.3c0,0,0,0,0,0l0.2-0.2c0.6-0.6,1.2-1,1.9-1.4c0.5-0.3,1.1-0.4,1.7-0.4c0.7,0,1.4,0.2,1.9,0.7
	c0.5,0.6,0.8,1.4,0.7,2.2v6.5c0,0.3,0,0.6-0.2,0.8c-0.1,0.2-0.3,0.3-0.5,0.4l-0.5,0.2c-0.3,0.1-0.6,0.4-0.6,0.7
	c0,0.5,0.3,0.7,0.8,0.7h5.1c0.2,0,0.5-0.1,0.7-0.2c0.2-0.1,0.3-0.3,0.2-0.5c0-0.2-0.1-0.3-0.2-0.5C494.4,411.2,494.2,411.1,494,411z
	 M509.3,399c-1-0.6-2.1-0.9-3.2-0.9c-1.2,0-2.4,0.3-3.4,1c-0.5,0.3-0.9,0.7-1.3,1.1v-9c0-0.2-0.1-0.4-0.2-0.6
	c-0.2-0.2-0.4-0.3-0.6-0.2c-0.2,0-0.4,0-0.7,0.1c-0.2,0.1-0.5,0.2-0.8,0.3l-2.3,0.8c-0.2,0.1-0.4,0.2-0.6,0.3
	c-0.1,0.1-0.2,0.3-0.2,0.5c0,0.2,0.1,0.3,0.2,0.4c0.1,0.1,0.3,0.2,0.4,0.2h0.9c0.2,0,0.3,0.1,0.5,0.3c0.1,0.2,0.2,0.5,0.2,0.7v17.9
	c0,0.2,0,0.4,0.2,0.6c0.1,0.1,0.3,0.2,0.5,0.2c0.2,0,0.5-0.1,0.7-0.2c0.2-0.1,0.5-0.2,0.7-0.3l0.9-1c0.3,0.3,0.6,0.5,0.9,0.7
	c1,0.6,2.1,1,3.2,0.9c1.3,0,2.5-0.3,3.6-0.9c1.1-0.6,2-1.6,2.5-2.7c0.7-1.2,1-2.6,1-4c0-1.3-0.3-2.5-0.8-3.7
	C511,400.5,510.2,399.6,509.3,399z M508.3,408.4c-0.3,0.8-0.8,1.4-1.5,1.9c-0.6,0.4-1.4,0.7-2.1,0.7c-0.8,0-1.7-0.3-2.4-0.8
	c-0.4-0.3-0.7-0.6-1-0.9v-7.6c0.3-0.3,0.6-0.7,1-0.9c0.7-0.5,1.5-0.7,2.4-0.7c0.8,0,1.5,0.2,2.2,0.6c0.7,0.5,1.2,1.1,1.5,1.8
	c0.4,0.9,0.6,1.9,0.5,2.9C508.9,406.5,508.7,407.5,508.3,408.4z M526.2,399c-1.2-0.6-2.5-1-3.9-0.9c-1.4,0-2.7,0.3-3.9,0.9
	c-1.1,0.6-2,1.5-2.7,2.6c-0.7,1.1-1,2.4-1,3.8c0,1.4,0.3,2.7,1,3.9c0.6,1.1,1.5,2,2.6,2.6c2.5,1.3,5.4,1.3,7.8,0
	c1.1-0.6,2-1.5,2.7-2.6c0.7-1.1,1-2.5,1-3.8c0-1.3-0.3-2.7-1-3.8C528.2,400.5,527.3,399.6,526.2,399z M526.4,407.7
	c-0.1,0.8-0.5,1.6-1,2.2c-0.5,0.6-1.2,0.9-1.9,1.1c-0.8,0.1-1.6,0-2.3-0.3c-0.8-0.4-1.4-0.9-1.9-1.6c-0.6-0.9-1-1.9-1.2-2.9
	c-0.2-1-0.3-2-0.1-3c0.1-0.8,0.5-1.6,1-2.2c0.5-0.6,1.2-0.9,1.9-1.1c0.8-0.2,1.6-0.1,2.3,0.3c0.7,0.4,1.4,0.9,1.8,1.7
	c0.6,0.9,1,1.9,1.2,2.9C526.6,405.7,526.6,406.7,526.4,407.7z M546.9,398.3h-4.2c-0.2,0-0.5,0-0.6,0.2c-0.2,0.1-0.2,0.3-0.2,0.5
	c0,0.2,0.1,0.4,0.2,0.5c0.2,0.1,0.3,0.2,0.5,0.3l0.6,0.2c0.3,0.1,0.5,0.3,0.6,0.5c0.1,0.4,0,0.8-0.1,1.1l-3.5,8.7l-3.3-8.6
	c-0.2-0.4-0.3-0.8-0.2-1.2c0-0.3,0.3-0.5,0.7-0.6l0.5-0.2c0.2-0.1,0.4-0.2,0.5-0.3c0.1-0.1,0.2-0.3,0.2-0.5c0-0.5-0.3-0.7-0.8-0.7
	h-5.8c-0.2,0-0.5,0-0.6,0.2c-0.2,0.1-0.2,0.3-0.2,0.5c0,0.2,0.1,0.3,0.2,0.5c0.1,0.1,0.3,0.2,0.5,0.3l0.5,0.1
	c0.2,0.1,0.4,0.2,0.5,0.4c0.1,0.2,0.3,0.5,0.4,0.7l4.3,10.5c0.1,0.3,0.3,0.6,0.6,0.9c0.2,0.2,0.5,0.3,0.8,0.3h1
	c0.3,0,0.6-0.1,0.8-0.2c0.3-0.2,0.5-0.5,0.6-0.8l4.3-10.2c0.1-0.4,0.3-0.7,0.5-1.1c0.1-0.2,0.3-0.3,0.5-0.4l0.5-0.1
	c0.2-0.1,0.3-0.2,0.5-0.3c0.1-0.1,0.2-0.3,0.2-0.4c0-0.2-0.1-0.4-0.2-0.5C547.4,398.4,547.1,398.3,546.9,398.3z M562,407.7
	c-0.1,0-0.2,0-0.3,0.1c-0.1,0.1-0.2,0.2-0.3,0.4c-0.4,0.7-0.9,1.2-1.5,1.6c-0.8,0.5-1.7,0.7-2.6,0.7c-1.4,0.1-2.7-0.5-3.7-1.5
	c-0.9-1-1.4-2.3-1.4-3.7h8.2c0.5,0,1.1-0.1,1.5-0.5c0.4-0.4,0.6-0.9,0.5-1.4c0-1-0.2-1.9-0.7-2.7c-0.5-0.8-1.2-1.5-2.1-1.9
	c-1-0.5-2-0.7-3.1-0.7c-1.4,0-2.7,0.3-3.9,1c-1.1,0.7-1.9,1.6-2.5,2.7c-0.6,1.2-0.9,2.5-0.9,3.8c0,1.3,0.3,2.6,0.9,3.8
	c0.6,1.1,1.4,2,2.5,2.5c1.2,0.6,2.5,1,3.8,0.9c1.1,0,2.2-0.2,3.2-0.7c0.8-0.4,1.6-1,2.1-1.7c0.5-0.6,0.8-1.4,0.8-2.2
	c0-0.2,0-0.3-0.1-0.5C562.3,407.7,562.2,407.7,562,407.7z M552.7,402c0.3-0.7,0.8-1.3,1.4-1.7c0.6-0.4,1.3-0.6,2-0.6
	c0.9,0,1.7,0.3,2.3,0.9c0.6,0.7,0.9,1.6,0.9,2.5c0,0.6-0.3,0.8-1,0.8h-6.1C552.2,403.3,552.4,402.7,552.7,402z M573.9,398
	c-0.8,0-1.6,0.3-2.3,0.8c-0.8,0.6-1.3,1.3-1.7,2.2c0,0,0,0.1,0,0.1l-0.1-2c0-0.3-0.1-0.5-0.2-0.8c-0.2-0.1-0.4-0.2-0.6-0.2
	c-0.2,0-0.4,0-0.5,0.1l-0.7,0.2l-2.3,0.8c-0.2,0.1-0.4,0.2-0.6,0.3c-0.1,0.1-0.2,0.3-0.2,0.5c0,0.2,0.1,0.3,0.2,0.4
	c0.1,0.1,0.3,0.2,0.4,0.2l0.9,0c0.2,0,0.3,0.1,0.5,0.3c0.1,0.2,0.2,0.5,0.2,0.7v7.8c0,0.3,0,0.5-0.2,0.8c-0.1,0.2-0.3,0.3-0.5,0.4
	l-0.5,0.2c-0.2,0.1-0.3,0.2-0.5,0.3c-0.1,0.1-0.2,0.3-0.2,0.5c0,0.2,0.1,0.4,0.2,0.5c0.2,0.1,0.4,0.2,0.6,0.2h6.1
	c0.2,0,0.5-0.1,0.6-0.2c0.2-0.1,0.2-0.3,0.2-0.5c0-0.2-0.1-0.4-0.2-0.5c-0.2-0.2-0.4-0.2-0.6-0.3l-1.2-0.2c-0.2,0-0.5-0.2-0.6-0.3
	c-0.2-0.2-0.2-0.5-0.2-0.8v-5.1l0,0c0-0.8,0.1-1.6,0.4-2.4c0.2-0.6,0.5-1.1,1-1.5c0.4-0.3,0.8-0.5,1.3-0.5c0.3,0,0.5,0.1,0.7,0.2
	c0.2,0.2,0.3,0.5,0.3,0.7v0.5c0,0.4,0.1,0.8,0.4,1.1c0.3,0.3,0.7,0.4,1.1,0.4c0.4,0,0.9-0.2,1.2-0.5c0.3-0.4,0.5-1,0.5-1.5
	c0-0.8-0.2-1.6-0.8-2.2C575.4,398.3,574.7,398,573.9,398z M587.4,404.8c-0.9-0.4-1.9-0.8-2.9-1c-0.5-0.1-1-0.3-1.5-0.5
	c-0.4-0.2-0.7-0.4-1-0.7c-0.3-0.3-0.4-0.7-0.4-1.1c0-0.5,0.2-1,0.6-1.4c0.5-0.4,1.1-0.6,1.7-0.5c0.9,0,1.7,0.2,2.4,0.7
	c0.7,0.5,1.3,1.1,1.7,1.8c0.2,0.3,0.4,0.5,0.7,0.7c0.2,0.1,0.4,0.2,0.6,0.1c0.3-0.1,0.5-0.3,0.5-0.6c0-0.3,0-0.7-0.1-1l-0.8-2.5
	c0-0.2-0.1-0.4-0.3-0.5c-0.1-0.1-0.3-0.2-0.5-0.2c-0.1,0-0.3,0.1-0.4,0.1c-0.1,0.1-0.2,0.2-0.4,0.3c-0.1,0.1-0.3,0.1-0.4,0.2
	c-0.2,0-0.4-0.1-0.6-0.2c-0.3-0.1-0.7-0.2-1-0.3c-0.5-0.1-1-0.1-1.5-0.1c-0.9,0-1.8,0.2-2.6,0.5c-0.7,0.3-1.3,0.8-1.7,1.5
	c-0.4,0.6-0.6,1.4-0.6,2.1c0,0.8,0.2,1.6,0.6,2.2c0.5,0.6,1.1,1.2,1.8,1.5c0.9,0.4,1.8,0.7,2.7,0.9c0.6,0.1,1.1,0.3,1.7,0.5
	c0.4,0.2,0.8,0.4,1.2,0.8c0.3,0.3,0.4,0.7,0.4,1.1c0,0.6-0.2,1.1-0.6,1.5c-0.6,0.5-1.3,0.7-2,0.6c-0.6,0-1.1-0.1-1.7-0.3
	c-0.5-0.2-1.1-0.5-1.5-0.9c-0.5-0.4-0.9-0.9-1.3-1.5c-0.2-0.2-0.4-0.4-0.6-0.5c-0.2-0.1-0.5-0.1-0.7,0c-0.2,0.1-0.4,0.3-0.5,0.5
	c-0.1,0.3,0,0.7,0.1,1l1.1,2.4c0.1,0.2,0.2,0.5,0.4,0.6c0.1,0.1,0.3,0.2,0.5,0.2c0.2,0,0.3,0,0.4-0.2l0.4-0.3
	c0.1-0.1,0.3-0.2,0.5-0.2c0.2,0,0.5,0.1,0.7,0.1c0.3,0.1,0.6,0.2,1,0.3c0.4,0.1,0.9,0.2,1.3,0.2c1.4,0.1,2.8-0.3,3.9-1.2
	c0.9-0.8,1.4-1.9,1.3-3.1c0-0.8-0.2-1.5-0.7-2.2C588.8,405.6,588.2,405.1,587.4,404.8z"/>
</svg>
